STARTFONT 2.1
FONT -HP-Sung-Medium-R-Normal--18-180-75-75-C-160-CNS11643.1992-3
SIZE 18 75 75
FONTBOUNDINGBOX 16 18 0 -2

STARTPROPERTIES 23
FONTNAME_REGISTRY ""
FOUNDRY "HP"
FAMILY_NAME "Sung"
WEIGHT_NAME "Medium"
SLANT "R"
SETWIDTH_NAME "Normal"
ADD_STYLE_NAME ""
PIXEL_SIZE 18
POINT_SIZE 180
RESOLUTION_X 75
RESOLUTION_Y 75
SPACING "C"
AVERAGE_WIDTH 160
CHARSET_REGISTRY "CNS11643.1992"
CHARSET_ENCODING "3"
COPYRIGHT "Copyright (c) 1994 Hewlett-Packard Company."
_HP_ASXVERSION "@(#) ASX 3.00 $Revision: 13.9 $ sungX18n3"
WEIGHT 10
X_HEIGHT 8
QUAD_WIDTH 16
DEFAULT_CHAR 25159
FONT_DESCENT 2
FONT_ASCENT 16
ENDPROPERTIES

CHARS 6149

STARTCHAR cns3_2121
ENCODING 8481
SWIDTH 854 0
DWIDTH 16 0
BBX 16 18 0 -2
BITMAP
0000
0080
0080
0080
0080
0080
0080
0080
0080
0080
0080
0080
0080
0080
0080
0080
0080
0000
ENDCHAR

STARTCHAR cns3_2122
ENCODING 8482
SWIDTH 854 0
DWIDTH 16 0
BBX 16 18 0 -2
BITMAP
0000
0000
0000
0000
0000
0000
0000
0100
0080
00C0
0060
0020
0000
0000
0000
0000
0000
0000
ENDCHAR

STARTCHAR cns3_2123
ENCODING 8483
SWIDTH 854 0
DWIDTH 16 0
BBX 16 18 0 -2
BITMAP
0000
0020
0020
0020
0020
0020
0020
0020
0020
0020
0020
0020
0040
0040
0080
0080
0100
0000
ENDCHAR

STARTCHAR cns3_2124
ENCODING 8484
SWIDTH 854 0
DWIDTH 16 0
BBX 16 18 0 -2
BITMAP
0000
0040
0040
0040
0040
0040
0040
0040
0040
0040
0040
0040
0040
0040
0040
0040
01C0
0000
ENDCHAR

STARTCHAR cns3_2125
ENCODING 8485
SWIDTH 854 0
DWIDTH 16 0
BBX 16 18 0 -2
BITMAP
0000
0000
7FFF
0080
0080
0080
0080
0080
0080
0080
0080
0080
0080
0080
0080
0080
0080
0000
ENDCHAR

STARTCHAR cns3_2126
ENCODING 8486
SWIDTH 854 0
DWIDTH 16 0
BBX 16 18 0 -2
BITMAP
0000
0080
0080
0080
0080
0080
0080
0080
0080
0080
0080
0080
0080
0080
0080
7FFF
0000
0000
ENDCHAR

STARTCHAR cns3_2127
ENCODING 8487
SWIDTH 854 0
DWIDTH 16 0
BBX 16 18 0 -2
BITMAP
0000
0000
3FFC
2004
2004
2004
2004
2004
2004
2004
2004
2004
2004
2004
2004
2038
0000
0000
ENDCHAR

STARTCHAR cns3_2128
ENCODING 8488
SWIDTH 854 0
DWIDTH 16 0
BBX 16 18 0 -2
BITMAP
0000
0000
0000
0000
0000
0000
0000
1FFE
1002
2004
0000
0000
0000
0000
0000
0000
0000
0000
ENDCHAR

STARTCHAR cns3_2129
ENCODING 8489
SWIDTH 854 0
DWIDTH 16 0
BBX 16 18 0 -2
BITMAP
0000
0000
7FFE
2000
2000
2000
2000
2000
2000
2000
2000
2000
2000
2000
2000
3FFF
0000
0000
ENDCHAR

STARTCHAR cns3_212A
ENCODING 8490
SWIDTH 854 0
DWIDTH 16 0
BBX 16 18 0 -2
BITMAP
0000
0000
07FC
0404
0404
0404
0404
0404
0404
0404
0404
0478
0400
0400
0400
0400
0400
0000
ENDCHAR

STARTCHAR cns3_212B
ENCODING 8491
SWIDTH 854 0
DWIDTH 16 0
BBX 16 18 0 -2
BITMAP
0000
0000
0000
0000
0040
0040
0080
0090
0110
0108
0208
0204
047C
0F82
7002
0002
0000
0000
ENDCHAR

STARTCHAR cns3_212C
ENCODING 8492
SWIDTH 854 0
DWIDTH 16 0
BBX 16 18 0 -2
BITMAP
0000
0000
0080
0080
0140
0220
0410
0888
3086
0080
0080
0080
0080
0080
0080
0080
0080
0000
ENDCHAR

STARTCHAR cns3_212D
ENCODING 8493
SWIDTH 854 0
DWIDTH 16 0
BBX 16 18 0 -2
BITMAP
0000
0400
0400
0800
0FFF
1040
1040
2040
0040
0040
0040
0040
0040
0040
0040
03C0
0000
0000
ENDCHAR

STARTCHAR cns3_212E
ENCODING 8494
SWIDTH 854 0
DWIDTH 16 0
BBX 16 18 0 -2
BITMAP
0000
0000
0004
0004
0904
0888
0888
0448
0450
0210
0220
0140
0080
0140
0620
1818
6006
0000
ENDCHAR

STARTCHAR cns3_212F
ENCODING 8495
SWIDTH 854 0
DWIDTH 16 0
BBX 16 18 0 -2
BITMAP
0000
0000
0200
0200
0400
0FE0
0820
0820
0820
0820
0820
0820
0820
1021
1021
203F
4000
0000
ENDCHAR

STARTCHAR cns3_2130
ENCODING 8496
SWIDTH 854 0
DWIDTH 16 0
BBX 16 18 0 -2
BITMAP
0000
0000
0080
1080
1080
1080
1080
1080
2080
3FC0
0140
0120
0220
0410
0808
1006
6000
0000
ENDCHAR

STARTCHAR cns3_2131
ENCODING 8497
SWIDTH 854 0
DWIDTH 16 0
BBX 16 18 0 -2
BITMAP
0000
0000
3FFE
0000
0000
0000
7FFF
0800
0800
1FFC
2004
0004
0004
0004
0004
0008
0070
0000
ENDCHAR

STARTCHAR cns3_2132
ENCODING 8498
SWIDTH 854 0
DWIDTH 16 0
BBX 16 18 0 -2
BITMAP
0000
0000
0000
0080
0180
0240
0240
0420
0810
0810
1008
6006
0000
0000
0000
3FFE
0000
0000
ENDCHAR

STARTCHAR cns3_2133
ENCODING 8499
SWIDTH 854 0
DWIDTH 16 0
BBX 16 18 0 -2
BITMAP
0000
0000
2000
2080
2080
2080
2080
2080
2080
2080
20C0
2140
2120
2210
2408
2804
3FFF
0000
ENDCHAR

STARTCHAR cns3_2134
ENCODING 8500
SWIDTH 854 0
DWIDTH 16 0
BBX 16 18 0 -2
BITMAP
0000
0000
2000
2100
2100
2100
2080
2080
20C0
20A0
2120
2110
2210
2208
2404
2802
3FFF
0000
ENDCHAR

STARTCHAR cns3_2135
ENCODING 8501
SWIDTH 854 0
DWIDTH 16 0
BBX 16 18 0 -2
BITMAP
0000
0080
0080
07E0
0420
0420
0420
0420
0420
0420
0420
0420
0820
0821
1021
203F
4000
0000
ENDCHAR

STARTCHAR cns3_2136
ENCODING 8502
SWIDTH 854 0
DWIDTH 16 0
BBX 16 18 0 -2
BITMAP
0000
0000
3FFC
0104
1104
0904
0904
0504
0304
0184
0344
0224
0418
040C
080B
1008
60F8
0000
ENDCHAR

STARTCHAR cns3_2137
ENCODING 8503
SWIDTH 854 0
DWIDTH 16 0
BBX 16 18 0 -2
BITMAP
0000
0420
0420
0420
0420
7FA0
04A0
04A0
04A0
04A0
08A0
08A0
10A1
10A1
20A1
43BF
0000
0000
ENDCHAR

STARTCHAR cns3_2138
ENCODING 8504
SWIDTH 854 0
DWIDTH 16 0
BBX 16 18 0 -2
BITMAP
0000
0410
0410
0410
0410
0410
0410
0410
7FFF
0410
0410
0410
0410
0410
0410
0410
0410
0000
ENDCHAR

STARTCHAR cns3_2139
ENCODING 8505
SWIDTH 854 0
DWIDTH 16 0
BBX 16 18 0 -2
BITMAP
0000
0000
0000
0000
0400
0400
07FC
0C08
0A10
1120
20C0
4140
0638
7807
0000
0000
0000
0000
ENDCHAR

STARTCHAR cns3_213A
ENCODING 8506
SWIDTH 854 0
DWIDTH 16 0
BBX 16 18 0 -2
BITMAP
0000
0000
0000
0000
0200
0200
17FC
0C08
1210
2120
00C0
01A0
0610
1808
6006
0000
0000
0000
ENDCHAR

STARTCHAR cns3_213B
ENCODING 8507
SWIDTH 854 0
DWIDTH 16 0
BBX 16 18 0 -2
BITMAP
0000
0000
0000
0080
2080
3FFF
2001
4002
0004
0000
0000
0000
0000
0000
0000
0000
0000
0000
ENDCHAR

STARTCHAR cns3_213C
ENCODING 8508
SWIDTH 854 0
DWIDTH 16 0
BBX 16 18 0 -2
BITMAP
0000
0000
0000
0244
0244
0488
0888
1110
2120
1220
1110
0910
0888
0488
0444
0444
0000
0000
ENDCHAR

STARTCHAR cns3_213D
ENCODING 8509
SWIDTH 854 0
DWIDTH 16 0
BBX 16 18 0 -2
BITMAP
0000
0000
0080
0080
0100
0100
2208
1408
0810
0420
0340
0080
0088
0104
0206
3FFA
0002
0000
ENDCHAR

STARTCHAR cns3_213E
ENCODING 8510
SWIDTH 854 0
DWIDTH 16 0
BBX 16 18 0 -2
BITMAP
0000
0000
0080
3FFF
2000
2000
2000
2000
2000
2000
2000
2000
2000
2000
2000
4000
4000
0000
ENDCHAR

STARTCHAR cns3_213F
ENCODING 8511
SWIDTH 854 0
DWIDTH 16 0
BBX 16 18 0 -2
BITMAP
0000
0000
0000
7C00
0800
0800
1000
1000
3E00
2200
2200
0400
1400
0800
1400
2200
C1FF
0000
ENDCHAR

STARTCHAR cns3_2140
ENCODING 8512
SWIDTH 854 0
DWIDTH 16 0
BBX 16 18 0 -2
BITMAP
0000
0000
0000
0000
0000
0000
7FF8
0008
0008
0008
3FF8
0008
0008
0008
7FFF
0000
0000
0000
ENDCHAR

STARTCHAR cns3_2141
ENCODING 8513
SWIDTH 854 0
DWIDTH 16 0
BBX 16 18 0 -2
BITMAP
0000
0000
0100
0100
0100
03FC
0204
0404
0408
0808
0808
0FF0
1010
1010
0010
0010
FFFF
0000
ENDCHAR

STARTCHAR cns3_2142
ENCODING 8514
SWIDTH 854 0
DWIDTH 16 0
BBX 16 18 0 -2
BITMAP
0000
0000
0010
0020
0040
0080
0304
0C08
0010
0060
0180
0E04
0008
0010
0060
0380
1C00
0000
ENDCHAR

STARTCHAR cns3_2143
ENCODING 8515
SWIDTH 854 0
DWIDTH 16 0
BBX 16 18 0 -2
BITMAP
0000
0000
0000
07E0
0420
0440
0440
0480
0440
0420
0410
0410
0410
05F0
0420
0400
0400
0000
ENDCHAR

STARTCHAR cns3_2144
ENCODING 8516
SWIDTH 854 0
DWIDTH 16 0
BBX 16 18 0 -2
BITMAP
0000
0000
0050
0048
0044
7FFF
0040
0040
0440
0440
0240
0280
0180
0180
0660
1818
6007
0000
ENDCHAR

STARTCHAR cns3_2145
ENCODING 8517
SWIDTH 854 0
DWIDTH 16 0
BBX 16 18 0 -2
BITMAP
0000
0000
0440
0440
0840
0840
1140
6140
1240
0A40
0440
0840
0A40
1140
26C1
5841
607F
0000
ENDCHAR

STARTCHAR cns3_2146
ENCODING 8518
SWIDTH 854 0
DWIDTH 16 0
BBX 16 18 0 -2
BITMAP
0000
0000
0820
0820
0920
4920
4920
4920
4920
4920
4920
4920
4921
4921
7F3E
4120
0000
0000
ENDCHAR

STARTCHAR cns3_2147
ENCODING 8519
SWIDTH 854 0
DWIDTH 16 0
BBX 16 18 0 -2
BITMAP
0000
0000
0100
0100
0080
7FFF
0420
0420
0420
0420
0420
0420
0420
0820
0820
1020
6020
0000
ENDCHAR

STARTCHAR cns3_2148
ENCODING 8520
SWIDTH 854 0
DWIDTH 16 0
BBX 16 18 0 -2
BITMAP
0000
0000
0080
0080
0080
3FFE
2082
2082
21C2
2142
2222
2412
380E
2002
2002
2002
200E
0000
ENDCHAR

STARTCHAR cns3_2149
ENCODING 8521
SWIDTH 854 0
DWIDTH 16 0
BBX 16 18 0 -2
BITMAP
0000
0000
0400
05FF
0482
0882
0882
1044
1044
3028
5028
1010
1010
1028
1044
1082
1301
0000
ENDCHAR

STARTCHAR cns3_214A
ENCODING 8522
SWIDTH 854 0
DWIDTH 16 0
BBX 16 18 0 -2
BITMAP
0000
0000
0400
0420
0820
0820
1040
3040
5040
1080
1080
1108
1104
1202
121E
17E1
1001
0000
ENDCHAR

STARTCHAR cns3_214B
ENCODING 8523
SWIDTH 854 0
DWIDTH 16 0
BBX 16 18 0 -2
BITMAP
0000
0000
0000
0410
0410
0410
0410
0410
0410
0618
0E28
0924
1144
10C2
2083
C300
0000
0000
ENDCHAR

STARTCHAR cns3_214C
ENCODING 8524
SWIDTH 854 0
DWIDTH 16 0
BBX 16 18 0 -2
BITMAP
0000
0000
0080
0080
0080
0140
0220
0410
0808
1084
6083
0080
0140
0220
0410
180C
6003
0000
ENDCHAR

STARTCHAR cns3_214D
ENCODING 8525
SWIDTH 854 0
DWIDTH 16 0
BBX 16 18 0 -2
BITMAP
0000
0000
1FFC
1004
1004
1004
7FFE
1004
1004
1004
3FFE
1004
1004
1004
2004
2004
401C
0000
ENDCHAR

STARTCHAR cns3_214E
ENCODING 8526
SWIDTH 854 0
DWIDTH 16 0
BBX 16 18 0 -2
BITMAP
0000
0000
7FFE
4102
4102
4102
4102
4102
7FFE
4002
4002
4002
4002
4002
4002
4002
401E
0000
ENDCHAR

STARTCHAR cns3_214F
ENCODING 8527
SWIDTH 854 0
DWIDTH 16 0
BBX 16 18 0 -2
BITMAP
0000
0000
0000
7FFF
4001
4001
4411
4411
0410
0410
0410
0410
0410
0811
0811
1011
601F
0000
ENDCHAR

STARTCHAR cns3_2150
ENCODING 8528
SWIDTH 854 0
DWIDTH 16 0
BBX 16 18 0 -2
BITMAP
0000
0000
0000
07FF
4010
2010
1010
0010
0010
0810
0810
1010
2010
4010
0010
0010
00F0
0000
ENDCHAR

STARTCHAR cns3_2151
ENCODING 8529
SWIDTH 854 0
DWIDTH 16 0
BBX 16 18 0 -2
BITMAP
0000
0000
0000
3FFC
2004
2FF4
2414
2424
2224
2144
2084
2144
2224
2C14
4005
4002
0000
0000
ENDCHAR

STARTCHAR cns3_2152
ENCODING 8530
SWIDTH 854 0
DWIDTH 16 0
BBX 16 18 0 -2
BITMAP
0000
0000
0000
7FF8
0108
0108
2108
110C
090A
060A
0209
0409
0409
0808
1010
21E0
4000
0000
ENDCHAR

STARTCHAR cns3_2153
ENCODING 8531
SWIDTH 854 0
DWIDTH 16 0
BBX 16 18 0 -2
BITMAP
0000
0200
0200
0200
7FF8
0208
0A08
0A0C
120A
220A
4409
0409
0808
0808
1008
1008
20F0
0000
ENDCHAR

STARTCHAR cns3_2154
ENCODING 8532
SWIDTH 854 0
DWIDTH 16 0
BBX 16 18 0 -2
BITMAP
0000
0000
0008
7F88
0088
20FF
1109
1109
0909
0A09
0A09
0411
0411
0A21
0A21
1141
2146
0000
ENDCHAR

STARTCHAR cns3_2155
ENCODING 8533
SWIDTH 854 0
DWIDTH 16 0
BBX 16 18 0 -2
BITMAP
0000
0000
0400
0400
0FFF
0801
1081
2081
4081
0081
0141
0141
0221
0411
080D
3001
000E
0000
ENDCHAR

STARTCHAR cns3_2156
ENCODING 8534
SWIDTH 854 0
DWIDTH 16 0
BBX 16 18 0 -2
BITMAP
0000
0000
0800
0800
1FFF
1001
2C01
4301
01C1
0061
0001
0019
0071
01C1
0701
1C02
001C
0000
ENDCHAR

STARTCHAR cns3_2157
ENCODING 8535
SWIDTH 854 0
DWIDTH 16 0
BBX 16 18 0 -2
BITMAP
0000
0000
0000
3FFE
2000
2808
2608
2190
2060
2020
2050
2088
2104
2204
2400
3FFF
0000
0000
ENDCHAR

STARTCHAR cns3_2158
ENCODING 8536
SWIDTH 854 0
DWIDTH 16 0
BBX 16 18 0 -2
BITMAP
0000
0000
1020
1020
1020
11FF
7E21
1021
1021
1021
1021
1021
1041
1041
1081
1102
121C
0000
ENDCHAR

STARTCHAR cns3_2159
ENCODING 8537
SWIDTH 854 0
DWIDTH 16 0
BBX 16 18 0 -2
BITMAP
0000
0000
0200
3FF0
0210
0210
0410
0410
0811
1091
208E
4080
FFFF
0080
0080
0080
0080
0000
ENDCHAR

STARTCHAR cns3_215A
ENCODING 8538
SWIDTH 854 0
DWIDTH 16 0
BBX 16 18 0 -2
BITMAP
0000
0220
0220
0220
0220
0220
0220
0220
7E3F
0220
0220
0220
0220
0220
0220
0220
0220
0000
ENDCHAR

STARTCHAR cns3_215B
ENCODING 8539
SWIDTH 854 0
DWIDTH 16 0
BBX 16 18 0 -2
BITMAP
0000
0000
1FFF
1080
1080
1080
17FE
1082
1082
1082
1082
1082
2102
2102
2202
4404
4838
0000
ENDCHAR

STARTCHAR cns3_215C
ENCODING 8540
SWIDTH 854 0
DWIDTH 16 0
BBX 16 18 0 -2
BITMAP
0000
0000
0200
0200
0200
7FFE
0400
0440
0440
0880
0880
1100
1108
2204
223E
4FC2
0001
0000
ENDCHAR

STARTCHAR cns3_215D
ENCODING 8541
SWIDTH 854 0
DWIDTH 16 0
BBX 16 18 0 -2
BITMAP
0000
0000
0080
0080
0110
0108
0204
043C
7FC2
0102
0100
0210
0208
0408
083C
7FC2
0002
0000
ENDCHAR

STARTCHAR cns3_215E
ENCODING 8542
SWIDTH 854 0
DWIDTH 16 0
BBX 16 18 0 -2
BITMAP
0000
0000
0000
7FFF
2121
2121
2122
1122
1212
1214
0A14
0408
0408
0A14
1112
20A1
C0C0
0000
ENDCHAR

STARTCHAR cns3_215F
ENCODING 8543
SWIDTH 854 0
DWIDTH 16 0
BBX 16 18 0 -2
BITMAP
0000
0000
3FFC
0208
0210
0120
00C0
0320
0C18
7FF6
0410
0220
0140
00C0
00A0
0318
3C07
0000
ENDCHAR

STARTCHAR cns3_2160
ENCODING 8544
SWIDTH 854 0
DWIDTH 16 0
BBX 16 18 0 -2
BITMAP
0000
0000
0200
03FE
2242
2242
2222
2222
2224
2214
2214
2608
3A08
6214
0224
0242
0381
0000
ENDCHAR

STARTCHAR cns3_2161
ENCODING 8545
SWIDTH 854 0
DWIDTH 16 0
BBX 16 18 0 -2
BITMAP
0000
0000
0080
0080
0080
0080
0080
0080
3FFE
0080
0088
0088
0084
0084
0080
7FFF
0000
0000
ENDCHAR

STARTCHAR cns3_2162
ENCODING 8546
SWIDTH 854 0
DWIDTH 16 0
BBX 16 18 0 -2
BITMAP
0000
0080
2082
2082
2082
2082
2082
2082
3FFE
0080
0080
0080
0080
0080
0080
7FFF
0000
0000
ENDCHAR

STARTCHAR cns3_2163
ENCODING 8547
SWIDTH 854 0
DWIDTH 16 0
BBX 16 18 0 -2
BITMAP
0000
0000
7FFF
0080
0080
0080
3FFC
2084
2084
2084
2084
2084
2098
0080
0080
0080
0080
0000
ENDCHAR

STARTCHAR cns3_2164
ENCODING 8548
SWIDTH 854 0
DWIDTH 16 0
BBX 16 18 0 -2
BITMAP
0000
0048
0048
0044
0044
0040
7FFF
0040
0040
0040
0020
0020
7F90
0011
0009
0005
0002
0000
ENDCHAR

STARTCHAR cns3_2165
ENCODING 8549
SWIDTH 854 0
DWIDTH 16 0
BBX 16 18 0 -2
BITMAP
0000
0300
00C0
0820
0FFE
0802
0802
0802
0FFE
0800
0800
0800
0800
1000
1000
2000
2000
0000
ENDCHAR

STARTCHAR cns3_2166
ENCODING 8550
SWIDTH 854 0
DWIDTH 16 0
BBX 16 18 0 -2
BITMAP
0000
0000
0FFE
0000
0000
0FFE
0802
0802
0802
0FFE
0802
0800
0800
0800
1000
1000
2000
0000
ENDCHAR

STARTCHAR cns3_2167
ENCODING 8551
SWIDTH 854 0
DWIDTH 16 0
BBX 16 18 0 -2
BITMAP
0000
0080
0080
0080
00FC
0080
0080
0FF0
0210
0220
0220
0140
0140
0080
0340
0C30
300E
0000
ENDCHAR

STARTCHAR cns3_2168
ENCODING 8552
SWIDTH 854 0
DWIDTH 16 0
BBX 16 18 0 -2
BITMAP
0000
0200
0200
0400
0400
0FFF
0810
1410
2410
0220
0220
0140
0080
0120
0610
180C
6003
0000
ENDCHAR

STARTCHAR cns3_2169
ENCODING 8553
SWIDTH 854 0
DWIDTH 16 0
BBX 16 18 0 -2
BITMAP
0000
0000
3FFE
0080
0080
0080
7FFF
0080
00C0
0140
0140
0240
0241
0441
1841
603E
0000
0000
ENDCHAR

STARTCHAR cns3_216A
ENCODING 8554
SWIDTH 854 0
DWIDTH 16 0
BBX 16 18 0 -2
BITMAP
0000
0000
0FFF
0820
0820
0820
0820
7FFF
0020
0020
0120
0120
00A0
0070
002E
0020
01C0
0000
ENDCHAR

STARTCHAR cns3_216B
ENCODING 8555
SWIDTH 854 0
DWIDTH 16 0
BBX 16 18 0 -2
BITMAP
0000
0400
0400
0FFE
0880
1080
2080
4080
0080
1FFE
0080
0080
0080
0080
0080
7FFF
0000
0000
ENDCHAR

STARTCHAR cns3_216C
ENCODING 8556
SWIDTH 854 0
DWIDTH 16 0
BBX 16 18 0 -2
BITMAP
0000
0080
2082
2082
2082
2082
2082
3FFE
2002
0000
0000
3FFE
0000
0000
0000
7FFF
0000
0000
ENDCHAR

STARTCHAR cns3_216D
ENCODING 8557
SWIDTH 854 0
DWIDTH 16 0
BBX 16 18 0 -2
BITMAP
0000
0400
05FE
0420
0820
0820
1820
1BFF
2820
4820
0820
0820
0820
0820
0820
0820
0820
0000
ENDCHAR

STARTCHAR cns3_216E
ENCODING 8558
SWIDTH 854 0
DWIDTH 16 0
BBX 16 18 0 -2
BITMAP
0000
0220
0220
0420
0420
0820
1BFF
2820
4820
0820
0850
0850
0888
0888
0904
0902
0A01
0000
ENDCHAR

STARTCHAR cns3_216F
ENCODING 8559
SWIDTH 854 0
DWIDTH 16 0
BBX 16 18 0 -2
BITMAP
0000
0400
05F8
0508
0908
0908
1948
1928
2928
4908
0908
0908
0908
0908
0A09
0A09
0C07
0000
ENDCHAR

STARTCHAR cns3_2170
ENCODING 8560
SWIDTH 854 0
DWIDTH 16 0
BBX 16 18 0 -2
BITMAP
0000
0080
0080
0080
0080
00FE
0080
0080
0080
7FFF
0080
0080
0140
0220
0410
180C
6003
0000
ENDCHAR

STARTCHAR cns3_2171
ENCODING 8561
SWIDTH 854 0
DWIDTH 16 0
BBX 16 18 0 -2
BITMAP
0000
0400
05FF
0848
0848
1848
1848
2848
2848
4848
0848
0888
0888
0888
0909
0909
0A06
0000
ENDCHAR

STARTCHAR cns3_2172
ENCODING 8562
SWIDTH 854 0
DWIDTH 16 0
BBX 16 18 0 -2
BITMAP
0000
0420
0420
0820
0820
10A8
10A4
3124
5122
1222
1221
1421
1420
1020
1020
1020
11C0
0000
ENDCHAR

STARTCHAR cns3_2173
ENCODING 8563
SWIDTH 854 0
DWIDTH 16 0
BBX 16 18 0 -2
BITMAP
0000
0000
0220
0240
047F
0481
0881
1942
2A22
4814
0804
0808
0808
0810
0860
0980
0800
0000
ENDCHAR

STARTCHAR cns3_2174
ENCODING 8564
SWIDTH 854 0
DWIDTH 16 0
BBX 16 18 0 -2
BITMAP
0000
0220
0220
0420
05FF
0844
1844
2884
4884
0984
0948
0A28
0818
0824
0842
0981
0E00
0000
ENDCHAR

STARTCHAR cns3_2175
ENCODING 8565
SWIDTH 854 0
DWIDTH 16 0
BBX 16 18 0 -2
BITMAP
0000
0000
0080
0180
0240
0420
0850
108C
6303
0C20
0040
0088
0310
0C20
00C0
0300
1C00
0000
ENDCHAR

STARTCHAR cns3_2176
ENCODING 8566
SWIDTH 854 0
DWIDTH 16 0
BBX 16 18 0 -2
BITMAP
0000
0080
0080
0140
0220
0410
180C
6003
0FF8
0080
0080
0080
0080
0080
0080
7FFF
0000
0000
ENDCHAR

STARTCHAR cns3_2177
ENCODING 8567
SWIDTH 854 0
DWIDTH 16 0
BBX 16 18 0 -2
BITMAP
0000
0000
7FFE
4002
4FE2
4822
4822
4822
4822
4FE2
4822
4802
4802
480A
4FF2
4002
401E
0000
ENDCHAR

STARTCHAR cns3_2178
ENCODING 8568
SWIDTH 854 0
DWIDTH 16 0
BBX 16 18 0 -2
BITMAP
0000
0000
7FFE
4002
4002
4002
47E2
4422
4422
4422
4422
47E2
4422
4002
4002
4002
401C
0000
ENDCHAR

STARTCHAR cns3_2179
ENCODING 8569
SWIDTH 854 0
DWIDTH 16 0
BBX 16 18 0 -2
BITMAP
0000
0000
3E7C
2244
2244
2244
2244
2244
7FFF
2244
2244
2244
2244
2244
2244
2244
2E5C
0000
ENDCHAR

STARTCHAR cns3_217A
ENCODING 8570
SWIDTH 854 0
DWIDTH 16 0
BBX 16 18 0 -2
BITMAP
0000
0000
7FFF
4001
4201
4201
47F9
0400
0800
0FF8
0008
0008
7FFF
0008
0010
0010
0060
0000
ENDCHAR

STARTCHAR cns3_217B
ENCODING 8571
SWIDTH 854 0
DWIDTH 16 0
BBX 16 18 0 -2
BITMAP
0000
0000
1FFF
1001
1FFF
1000
1000
13F0
1210
1210
1210
1210
1210
2411
2411
4811
500E
0000
ENDCHAR

STARTCHAR cns3_217C
ENCODING 8572
SWIDTH 854 0
DWIDTH 16 0
BBX 16 18 0 -2
BITMAP
0000
0800
09FF
0821
0821
7F21
0821
0821
0821
0821
0821
0F41
7041
0081
0081
0101
020E
0000
ENDCHAR

STARTCHAR cns3_217D
ENCODING 8573
SWIDTH 854 0
DWIDTH 16 0
BBX 16 18 0 -2
BITMAP
0000
0002
0182
7E12
0412
0412
0412
0412
7FD2
0412
0412
0412
0412
0412
0802
0802
100C
0000
ENDCHAR

STARTCHAR cns3_217E
ENCODING 8574
SWIDTH 854 0
DWIDTH 16 0
BBX 16 18 0 -2
BITMAP
0000
0400
05FF
0811
0811
1111
6111
1211
0A11
0411
0821
0A21
1141
2FC1
7082
0102
021C
0000
ENDCHAR

STARTCHAR cns3_2221
ENCODING 8737
SWIDTH 854 0
DWIDTH 16 0
BBX 16 18 0 -2
BITMAP
0000
0000
7FFF
4081
4081
5FFD
4085
4085
4085
4085
4105
4105
4205
4209
4431
7FFF
4001
0000
ENDCHAR

STARTCHAR cns3_2222
ENCODING 8738
SWIDTH 854 0
DWIDTH 16 0
BBX 16 18 0 -2
BITMAP
0000
0800
0800
1000
1FFF
2001
2081
4081
0FFD
0801
0801
0801
0801
0805
0FFD
0801
001E
0000
ENDCHAR

STARTCHAR cns3_2223
ENCODING 8739
SWIDTH 854 0
DWIDTH 16 0
BBX 16 18 0 -2
BITMAP
0000
0400
0400
0800
1FFF
1001
2041
2841
4841
0841
08A1
0911
0E0D
0801
0FFD
0801
001E
0000
ENDCHAR

STARTCHAR cns3_2224
ENCODING 8740
SWIDTH 854 0
DWIDTH 16 0
BBX 16 18 0 -2
BITMAP
0000
0400
0400
0800
0FFF
1041
1041
20FD
4105
0205
0D09
0089
0051
0061
0181
0601
001E
0000
ENDCHAR

STARTCHAR cns3_2225
ENCODING 8741
SWIDTH 854 0
DWIDTH 16 0
BBX 16 18 0 -2
BITMAP
0000
1000
1000
3FFE
2112
4112
2212
1422
0822
1442
2242
4182
00C2
0132
021E
0C03
303C
0000
ENDCHAR

STARTCHAR cns3_2226
ENCODING 8742
SWIDTH 854 0
DWIDTH 16 0
BBX 16 18 0 -2
BITMAP
0000
0000
7FFF
4000
4000
5FFC
4080
4080
4080
4080
4080
4080
4080
5FFC
4000
7FFF
4000
0000
ENDCHAR

STARTCHAR cns3_2227
ENCODING 8743
SWIDTH 854 0
DWIDTH 16 0
BBX 16 18 0 -2
BITMAP
0000
0020
0020
7E20
4220
4220
4220
4230
4228
4224
4223
4220
7E20
4220
0020
0020
0020
0000
ENDCHAR

STARTCHAR cns3_2228
ENCODING 8744
SWIDTH 854 0
DWIDTH 16 0
BBX 16 18 0 -2
BITMAP
0000
0000
007F
7F41
0841
0841
0841
0841
0841
0841
0B41
0C41
1841
605E
0040
0040
0040
0000
ENDCHAR

STARTCHAR cns3_2229
ENCODING 8745
SWIDTH 854 0
DWIDTH 16 0
BBX 16 18 0 -2
BITMAP
0000
0000
1FFF
1000
17FE
1100
1100
1100
11FC
1104
1104
1204
1204
2404
2404
4804
1078
0000
ENDCHAR

STARTCHAR cns3_222A
ENCODING 8746
SWIDTH 854 0
DWIDTH 16 0
BBX 16 18 0 -2
BITMAP
0000
0080
0080
7FFF
0220
0220
0410
0888
1084
6103
0100
0210
0208
0404
043C
0FC2
1001
0000
ENDCHAR

STARTCHAR cns3_222B
ENCODING 8747
SWIDTH 854 0
DWIDTH 16 0
BBX 16 18 0 -2
BITMAP
0000
001C
1FE0
0080
0080
7FFF
0100
0100
03FC
0208
0508
0510
08A0
1040
20B0
430C
1C03
0000
ENDCHAR

STARTCHAR cns3_222C
ENCODING 8748
SWIDTH 854 0
DWIDTH 16 0
BBX 16 18 0 -2
BITMAP
0000
0040
0040
7C40
4440
4440
4440
4440
4440
44A0
44A0
4490
7D10
4508
0208
0404
1803
0000
ENDCHAR

STARTCHAR cns3_222D
ENCODING 8749
SWIDTH 854 0
DWIDTH 16 0
BBX 16 18 0 -2
BITMAP
0000
0010
0010
0010
7C10
4410
4410
45FF
4410
4410
4410
4410
7C10
4410
0010
0010
0010
0000
ENDCHAR

STARTCHAR cns3_222E
ENCODING 8750
SWIDTH 854 0
DWIDTH 16 0
BBX 16 18 0 -2
BITMAP
0000
0000
0FFC
0804
0804
0804
0FFC
0804
7FFF
0200
0400
07FC
0804
0004
0004
0008
00F0
0000
ENDCHAR

STARTCHAR cns3_222F
ENCODING 8751
SWIDTH 854 0
DWIDTH 16 0
BBX 16 18 0 -2
BITMAP
0000
0000
01FE
0082
7C82
4482
4444
4444
4428
4428
4410
4410
7C28
4444
0082
0101
0000
0000
ENDCHAR

STARTCHAR cns3_2230
ENCODING 8752
SWIDTH 854 0
DWIDTH 16 0
BBX 16 18 0 -2
BITMAP
0000
0040
0040
7C40
4440
47FC
4444
4444
4444
4444
4448
4488
7C88
4509
4109
0209
0406
0000
ENDCHAR

STARTCHAR cns3_2231
ENCODING 8753
SWIDTH 854 0
DWIDTH 16 0
BBX 16 18 0 -2
BITMAP
0000
0200
0200
7FF0
0210
0210
0410
0411
0811
300E
0000
1FF8
1008
1008
1008
1008
1FF8
0000
ENDCHAR

STARTCHAR cns3_2232
ENCODING 8754
SWIDTH 854 0
DWIDTH 16 0
BBX 16 18 0 -2
BITMAP
0000
0000
7FFE
4002
5FFA
4412
4412
4412
4222
4222
4142
4082
4142
4222
4412
7FFE
4002
0000
ENDCHAR

STARTCHAR cns3_2233
ENCODING 8755
SWIDTH 854 0
DWIDTH 16 0
BBX 16 18 0 -2
BITMAP
0000
0810
0810
0810
0810
09FF
7E11
0811
0811
0811
0811
0821
0F21
7041
0041
0081
010E
0000
ENDCHAR

STARTCHAR cns3_2234
ENCODING 8756
SWIDTH 854 0
DWIDTH 16 0
BBX 16 18 0 -2
BITMAP
0000
0840
0840
0840
0840
0840
7E60
0850
0848
0844
0843
0840
0F40
7040
0040
0040
0040
0000
ENDCHAR

STARTCHAR cns3_2235
ENCODING 8757
SWIDTH 854 0
DWIDTH 16 0
BBX 16 18 0 -2
BITMAP
0000
0800
0808
0808
1008
1F90
1090
20A0
2130
5148
0A44
0483
0A80
1180
2060
401F
0000
0000
ENDCHAR

STARTCHAR cns3_2236
ENCODING 8758
SWIDTH 854 0
DWIDTH 16 0
BBX 16 18 0 -2
BITMAP
0000
0000
047E
0442
0842
0FC2
10C2
1142
3142
4A42
0642
0442
0842
085C
1040
1040
2040
0000
ENDCHAR

STARTCHAR cns3_2237
ENCODING 8759
SWIDTH 854 0
DWIDTH 16 0
BBX 16 18 0 -2
BITMAP
0000
0080
0080
0080
0080
7FFF
0080
0140
0220
0490
0888
1084
6083
0FF8
0080
0080
0080
0000
ENDCHAR

STARTCHAR cns3_2238
ENCODING 8760
SWIDTH 854 0
DWIDTH 16 0
BBX 16 18 0 -2
BITMAP
0000
0080
0080
0080
7FFF
0120
0230
0410
0C18
1414
6413
0410
0410
0810
0810
1010
2010
0000
ENDCHAR

STARTCHAR cns3_2239
ENCODING 8761
SWIDTH 854 0
DWIDTH 16 0
BBX 16 18 0 -2
BITMAP
0000
0080
0880
0480
0280
2080
1080
0880
7FFE
0080
0140
0140
0220
0220
0410
0808
3006
0000
ENDCHAR

STARTCHAR cns3_223A
ENCODING 8762
SWIDTH 854 0
DWIDTH 16 0
BBX 16 18 0 -2
BITMAP
0000
0000
0040
0080
0100
7FFF
0220
0410
0808
1006
6001
0804
0804
0804
0804
0FFC
0804
0000
ENDCHAR

STARTCHAR cns3_223B
ENCODING 8763
SWIDTH 854 0
DWIDTH 16 0
BBX 16 18 0 -2
BITMAP
0000
0000
09FF
0808
0808
7E08
1208
1208
2208
2208
6408
3408
0C08
1208
2108
4008
0070
0000
ENDCHAR

STARTCHAR cns3_223C
ENCODING 8764
SWIDTH 854 0
DWIDTH 16 0
BBX 16 18 0 -2
BITMAP
0000
0080
0080
7FFF
4001
4001
0FFC
0208
0208
0110
0110
00A0
0040
00A0
0310
0C0C
3003
0000
ENDCHAR

STARTCHAR cns3_223D
ENCODING 8765
SWIDTH 854 0
DWIDTH 16 0
BBX 16 18 0 -2
BITMAP
0000
0080
2080
3FFF
4002
4004
0220
0220
0220
0220
0220
0220
0220
0422
0422
0822
301C
0000
ENDCHAR

STARTCHAR cns3_223E
ENCODING 8766
SWIDTH 854 0
DWIDTH 16 0
BBX 16 18 0 -2
BITMAP
0000
0002
7FC2
1042
1042
08FF
0882
0502
0502
0222
0222
0512
0502
0882
1082
2042
405C
0000
ENDCHAR

STARTCHAR cns3_223F
ENCODING 8767
SWIDTH 854 0
DWIDTH 16 0
BBX 16 18 0 -2
BITMAP
0000
0400
0400
0800
0FFE
1082
2084
0080
0080
0890
0890
1088
1088
2084
4082
0080
0700
0000
ENDCHAR

STARTCHAR cns3_2240
ENCODING 8768
SWIDTH 854 0
DWIDTH 16 0
BBX 16 18 0 -2
BITMAP
0000
0000
1FFF
1001
1001
1FFF
1000
1000
17FE
1102
1084
1048
1030
1050
2088
2304
4C03
0000
ENDCHAR

STARTCHAR cns3_2241
ENCODING 8769
SWIDTH 854 0
DWIDTH 16 0
BBX 16 18 0 -2
BITMAP
0000
0000
10FC
1084
1084
5484
5484
5484
5484
5484
5484
5484
5484
5484
7D05
4105
0206
0000
ENDCHAR

STARTCHAR cns3_2242
ENCODING 8770
SWIDTH 854 0
DWIDTH 16 0
BBX 16 18 0 -2
BITMAP
0000
0080
2084
2084
2084
3FFC
2084
0080
0080
0140
0220
0220
0410
0410
0808
1004
6003
0000
ENDCHAR

STARTCHAR cns3_2243
ENCODING 8771
SWIDTH 854 0
DWIDTH 16 0
BBX 16 18 0 -2
BITMAP
0000
0080
2084
2084
2084
3FFC
2004
0100
0100
0080
0080
00C0
0140
0220
0410
0808
3006
0000
ENDCHAR

STARTCHAR cns3_2244
ENCODING 8772
SWIDTH 854 0
DWIDTH 16 0
BBX 16 18 0 -2
BITMAP
0000
0080
2082
2082
3FFE
2002
0000
1FF0
0210
0220
023E
0222
0202
0402
0402
0802
303C
0000
ENDCHAR

STARTCHAR cns3_2245
ENCODING 8773
SWIDTH 854 0
DWIDTH 16 0
BBX 16 18 0 -2
BITMAP
0000
0000
1FF8
0008
0008
0008
0008
1FF8
1000
1000
1FFC
1004
1004
1004
1004
1FFC
1004
0000
ENDCHAR

STARTCHAR cns3_2246
ENCODING 8774
SWIDTH 854 0
DWIDTH 16 0
BBX 16 18 0 -2
BITMAP
0000
0820
0820
0820
0820
7F20
4920
493E
4920
4920
4920
4920
4920
4F20
0821
0821
081E
0000
ENDCHAR

STARTCHAR cns3_2247
ENCODING 8775
SWIDTH 854 0
DWIDTH 16 0
BBX 16 18 0 -2
BITMAP
0000
0040
0040
1FFF
1000
1000
13FE
1020
1020
1020
1020
1020
2020
2020
2020
4020
41C0
0000
ENDCHAR

STARTCHAR cns3_2248
ENCODING 8776
SWIDTH 854 0
DWIDTH 16 0
BBX 16 18 0 -2
BITMAP
0000
0040
0040
1FFF
1000
1000
1080
1080
1080
1100
1100
1108
1208
2204
243E
2FC2
5801
0000
ENDCHAR

STARTCHAR cns3_2249
ENCODING 8777
SWIDTH 854 0
DWIDTH 16 0
BBX 16 18 0 -2
BITMAP
0000
0020
0020
0028
0024
7FFF
0020
0020
3F20
0020
0020
0010
3F10
0008
0009
0005
0003
0000
ENDCHAR

STARTCHAR cns3_224A
ENCODING 8778
SWIDTH 854 0
DWIDTH 16 0
BBX 16 18 0 -2
BITMAP
0000
0800
09FE
0802
0802
0802
0802
4802
29FE
1802
0802
0802
0802
0802
1002
11FE
2000
0000
ENDCHAR

STARTCHAR cns3_224B
ENCODING 8779
SWIDTH 854 0
DWIDTH 16 0
BBX 16 18 0 -2
BITMAP
0000
0400
05FF
0808
1208
2408
0808
1808
2808
4808
0808
0808
0808
0808
0808
0808
0870
0000
ENDCHAR

STARTCHAR cns3_224C
ENCODING 8780
SWIDTH 854 0
DWIDTH 16 0
BBX 16 18 0 -2
BITMAP
0000
1000
11FF
1008
3408
3208
5208
5008
1008
1008
1008
1008
1008
1008
1008
1008
1070
0000
ENDCHAR

STARTCHAR cns3_224D
ENCODING 8781
SWIDTH 854 0
DWIDTH 16 0
BBX 16 18 0 -2
BITMAP
0000
0820
0820
0820
2DFF
2A21
2A21
4821
0821
0821
0821
0821
0841
0841
0881
0881
091E
0000
ENDCHAR

STARTCHAR cns3_224E
ENCODING 8782
SWIDTH 854 0
DWIDTH 16 0
BBX 16 18 0 -2
BITMAP
0000
0006
1FF8
1000
1FFE
1002
1FFE
1002
17F0
1040
1080
1102
1202
2402
2402
43FC
0000
0000
ENDCHAR

STARTCHAR cns3_224F
ENCODING 8783
SWIDTH 854 0
DWIDTH 16 0
BBX 16 18 0 -2
BITMAP
0000
0800
09FF
0821
7E21
0821
0821
0821
0821
0E21
1821
6821
0841
0841
0881
0881
711E
0000
ENDCHAR

STARTCHAR cns3_2250
ENCODING 8784
SWIDTH 854 0
DWIDTH 16 0
BBX 16 18 0 -2
BITMAP
0000
0840
0840
0840
7E40
0BFC
0844
0844
0E44
1844
6888
0888
0888
0908
0909
0A09
7206
0000
ENDCHAR

STARTCHAR cns3_2251
ENCODING 8785
SWIDTH 854 0
DWIDTH 16 0
BBX 16 18 0 -2
BITMAP
0000
1000
13FE
1202
1202
1202
1202
1202
13FE
1202
1202
1202
1202
1202
13FE
1202
1000
0000
ENDCHAR

STARTCHAR cns3_2252
ENCODING 8786
SWIDTH 854 0
DWIDTH 16 0
BBX 16 18 0 -2
BITMAP
0000
0080
0090
008C
0080
7FFF
01C0
02C0
02A0
04A0
0490
0888
1084
2083
4080
0080
0080
0000
ENDCHAR

STARTCHAR cns3_2253
ENCODING 8787
SWIDTH 854 0
DWIDTH 16 0
BBX 16 18 0 -2
BITMAP
0000
0040
0040
007E
0040
0140
03FE
0604
0A04
1108
6088
0070
0010
0060
0180
0600
1800
0000
ENDCHAR

STARTCHAR cns3_2254
ENCODING 8788
SWIDTH 854 0
DWIDTH 16 0
BBX 16 18 0 -2
BITMAP
0000
0000
7F10
0212
0212
05D4
0458
0890
0898
1114
1113
2210
4071
4001
4001
3FFE
0000
0000
ENDCHAR

STARTCHAR cns3_2255
ENCODING 8789
SWIDTH 854 0
DWIDTH 16 0
BBX 16 18 0 -2
BITMAP
0000
0200
2200
1A00
020C
0230
42C0
3300
0200
0200
0A00
0A00
1201
1201
2201
01FE
0000
0000
ENDCHAR

STARTCHAR cns3_2256
ENCODING 8790
SWIDTH 854 0
DWIDTH 16 0
BBX 16 18 0 -2
BITMAP
0000
0000
21FC
1904
0104
0104
4104
3104
0104
0104
0104
0104
1204
1204
2405
2405
4806
0000
ENDCHAR

STARTCHAR cns3_2257
ENCODING 8791
SWIDTH 854 0
DWIDTH 16 0
BBX 16 18 0 -2
BITMAP
0000
0080
0080
0080
0080
40C2
30A4
00A8
7E90
0290
0488
0488
0884
1084
2083
4C80
0380
0000
ENDCHAR

STARTCHAR cns3_2258
ENCODING 8792
SWIDTH 854 0
DWIDTH 16 0
BBX 16 18 0 -2
BITMAP
0000
0040
0040
2040
1840
0040
0040
4040
3040
0040
00A0
08A0
1110
1208
2208
2404
4803
0000
ENDCHAR

STARTCHAR cns3_2259
ENCODING 8793
SWIDTH 854 0
DWIDTH 16 0
BBX 16 18 0 -2
BITMAP
0000
0000
47FF
3040
0040
0080
4080
31FE
0002
0002
0402
0402
0802
0802
1002
1002
203C
0000
ENDCHAR

STARTCHAR cns3_225A
ENCODING 8794
SWIDTH 854 0
DWIDTH 16 0
BBX 16 18 0 -2
BITMAP
0000
0040
0040
7F40
0840
0840
0840
0840
7F40
0840
0840
0840
0B40
1C40
6041
0041
003E
0000
ENDCHAR

STARTCHAR cns3_225B
ENCODING 8795
SWIDTH 854 0
DWIDTH 16 0
BBX 16 18 0 -2
BITMAP
0000
0040
0040
0FFF
4800
2800
2800
1800
0800
1800
2800
4800
1000
1000
2000
2000
4000
0000
ENDCHAR

STARTCHAR cns3_225C
ENCODING 8796
SWIDTH 854 0
DWIDTH 16 0
BBX 16 18 0 -2
BITMAP
0000
0000
0000
3F88
10D2
0924
0618
1807
6000
0000
0000
0000
0000
0000
0000
0000
0000
0000
ENDCHAR

STARTCHAR cns3_225D
ENCODING 8797
SWIDTH 854 0
DWIDTH 16 0
BBX 16 18 0 -2
BITMAP
0000
0000
7FDF
2051
2051
1092
1092
1094
0914
0912
0612
0411
0611
0911
1096
6090
0050
0000
ENDCHAR

STARTCHAR cns3_225E
ENCODING 8798
SWIDTH 854 0
DWIDTH 16 0
BBX 16 18 0 -2
BITMAP
0000
0000
7FDF
0211
0212
0212
0212
0214
0214
0212
0212
0211
0211
0211
0216
0210
1C10
0000
ENDCHAR

STARTCHAR cns3_225F
ENCODING 8799
SWIDTH 854 0
DWIDTH 16 0
BBX 16 18 0 -2
BITMAP
0000
0000
1F1F
1111
1111
1112
1112
1114
1114
1112
1112
1111
2111
2131
2136
41D0
0010
0000
ENDCHAR

STARTCHAR cns3_2260
ENCODING 8800
SWIDTH 854 0
DWIDTH 16 0
BBX 16 18 0 -2
BITMAP
0000
0000
7DFF
4408
4408
4808
4808
5008
5008
4808
4808
4408
4408
4408
5808
4008
4070
0000
ENDCHAR

STARTCHAR cns3_2261
ENCODING 8801
SWIDTH 854 0
DWIDTH 16 0
BBX 16 18 0 -2
BITMAP
0000
0000
7FFF
0080
0080
3FFE
2082
288A
288A
288A
2FFA
2002
2002
2002
2002
2002
200E
0000
ENDCHAR

STARTCHAR cns3_2262
ENCODING 8802
SWIDTH 854 0
DWIDTH 16 0
BBX 16 18 0 -2
BITMAP
0000
0220
0220
0220
0220
7E3F
0220
0220
0220
0220
0220
0221
0221
7E3E
0000
7FFF
0000
0000
ENDCHAR

STARTCHAR cns3_2263
ENCODING 8803
SWIDTH 854 0
DWIDTH 16 0
BBX 16 18 0 -2
BITMAP
0000
0000
001C
3FE0
0080
0080
3FFE
0080
0080
0080
7FFF
0100
0108
0204
043E
0FC2
3001
0000
ENDCHAR

STARTCHAR cns3_2264
ENCODING 8804
SWIDTH 854 0
DWIDTH 16 0
BBX 16 18 0 -2
BITMAP
0000
0820
0820
1220
1120
2120
2EA0
70A0
0020
3F20
2120
2120
2120
2120
2121
3F21
201E
0000
ENDCHAR

STARTCHAR cns3_2265
ENCODING 8805
SWIDTH 854 0
DWIDTH 16 0
BBX 16 18 0 -2
BITMAP
0000
0400
0FE0
1040
2080
7FFC
0084
0084
7FFF
0084
0084
1FFC
0084
0080
0080
0080
0300
0000
ENDCHAR

STARTCHAR cns3_2266
ENCODING 8806
SWIDTH 854 0
DWIDTH 16 0
BBX 16 18 0 -2
BITMAP
0000
0000
7FFF
0000
1FFC
1004
1004
1004
1FFC
1004
1004
1004
1FFC
1004
0000
7FFF
0000
0000
ENDCHAR

STARTCHAR cns3_2267
ENCODING 8807
SWIDTH 854 0
DWIDTH 16 0
BBX 16 18 0 -2
BITMAP
0000
0420
0420
0426
0BF8
0820
1020
13FE
3020
5020
17FF
1020
1020
1020
1020
1020
1020
0000
ENDCHAR

STARTCHAR cns3_2268
ENCODING 8808
SWIDTH 854 0
DWIDTH 16 0
BBX 16 18 0 -2
BITMAP
0000
0410
0410
0490
0894
0914
1112
1211
2210
5410
1012
1014
10E4
1008
1030
10C0
1700
0000
ENDCHAR

STARTCHAR cns3_2269
ENCODING 8809
SWIDTH 854 0
DWIDTH 16 0
BBX 16 18 0 -2
BITMAP
0000
04F0
0410
0410
0BFF
0A11
1211
1229
3229
5245
1245
1283
1201
1201
1201
1201
120E
0000
ENDCHAR

STARTCHAR cns3_226A
ENCODING 8810
SWIDTH 854 0
DWIDTH 16 0
BBX 16 18 0 -2
BITMAP
0000
0434
05C4
0484
0884
0884
1084
17FF
3084
5084
1084
1084
1084
1104
1104
1204
1404
0000
ENDCHAR

STARTCHAR cns3_226B
ENCODING 8811
SWIDTH 854 0
DWIDTH 16 0
BBX 16 18 0 -2
BITMAP
0000
0406
05F8
0820
0820
1020
1020
2020
37FF
5020
1020
1050
1050
1088
1104
1202
1401
0000
ENDCHAR

STARTCHAR cns3_226C
ENCODING 8812
SWIDTH 854 0
DWIDTH 16 0
BBX 16 18 0 -2
BITMAP
0000
0480
0480
09FF
0925
1245
1445
3089
5089
1111
1211
1421
1021
1041
1081
1101
101E
0000
ENDCHAR

STARTCHAR cns3_226D
ENCODING 8813
SWIDTH 854 0
DWIDTH 16 0
BBX 16 18 0 -2
BITMAP
0000
0400
05FE
0802
0844
1028
1010
37FF
3012
5012
1010
1010
1010
1010
1010
1010
1060
0000
ENDCHAR

STARTCHAR cns3_226E
ENCODING 8814
SWIDTH 854 0
DWIDTH 16 0
BBX 16 18 0 -2
BITMAP
0000
0400
07FF
0820
0820
1020
1020
3020
5020
13FE
1020
1020
1020
1020
1020
1020
17FF
0000
ENDCHAR

STARTCHAR cns3_226F
ENCODING 8815
SWIDTH 854 0
DWIDTH 16 0
BBX 16 18 0 -2
BITMAP
0000
0400
05FF
0900
0900
1100
19FE
2942
2942
4924
0924
0918
0A18
0A24
0A42
0C81
0800
0000
ENDCHAR

STARTCHAR cns3_2270
ENCODING 8816
SWIDTH 854 0
DWIDTH 16 0
BBX 16 18 0 -2
BITMAP
0000
0000
0440
0440
0840
0FFF
1080
3080
50FE
1144
1144
1228
1210
1428
1844
1082
1301
0000
ENDCHAR

STARTCHAR cns3_2271
ENCODING 8817
SWIDTH 854 0
DWIDTH 16 0
BBX 16 18 0 -2
BITMAP
0000
0900
0900
13FE
1200
27FC
3400
5000
17F8
1008
1008
1008
1008
1009
1005
1005
1002
0000
ENDCHAR

STARTCHAR cns3_2272
ENCODING 8818
SWIDTH 854 0
DWIDTH 16 0
BBX 16 18 0 -2
BITMAP
0000
0440
0440
08FF
0881
1101
1101
22FD
3001
5001
100D
1031
11C1
1001
1001
1001
101E
0000
ENDCHAR

STARTCHAR cns3_2273
ENCODING 8819
SWIDTH 854 0
DWIDTH 16 0
BBX 16 18 0 -2
BITMAP
0000
0440
0440
0BF8
0848
1048
1088
3089
5129
1226
1420
1020
1FFF
1020
1020
1020
1020
0000
ENDCHAR

STARTCHAR cns3_2274
ENCODING 8820
SWIDTH 854 0
DWIDTH 16 0
BBX 16 18 0 -2
BITMAP
0000
0000
04F8
0488
0888
0888
1089
110E
3A00
2BFE
4904
0904
0888
0850
0830
08CC
0B03
0000
ENDCHAR

STARTCHAR cns3_2275
ENCODING 8821
SWIDTH 854 0
DWIDTH 16 0
BBX 16 18 0 -2
BITMAP
0000
0080
0140
0220
0410
0808
17F4
6003
0000
1FFE
0100
0100
0210
0208
043C
0FC2
1000
0000
ENDCHAR

STARTCHAR cns3_2276
ENCODING 8822
SWIDTH 854 0
DWIDTH 16 0
BBX 16 18 0 -2
BITMAP
0000
0080
0140
0220
0410
0808
1004
6003
07F0
0400
0400
0400
07F0
0400
0400
0400
07F0
0000
ENDCHAR

STARTCHAR cns3_2277
ENCODING 8823
SWIDTH 854 0
DWIDTH 16 0
BBX 16 18 0 -2
BITMAP
0000
0080
0080
0080
0080
0140
0220
0410
080C
1003
6810
0810
0810
0810
1428
2244
4183
0000
ENDCHAR

STARTCHAR cns3_2278
ENCODING 8824
SWIDTH 854 0
DWIDTH 16 0
BBX 16 18 0 -2
BITMAP
0000
0270
0410
0508
0908
1224
2412
49F9
1E44
0240
0240
0240
0440
0441
0841
1041
603E
0000
ENDCHAR

STARTCHAR cns3_2279
ENCODING 8825
SWIDTH 854 0
DWIDTH 16 0
BBX 16 18 0 -2
BITMAP
0000
0180
0080
0140
0220
0410
0808
1004
6003
1FFC
1004
1004
1FFC
1004
1004
1FFC
1004
0000
ENDCHAR

STARTCHAR cns3_227A
ENCODING 8826
SWIDTH 854 0
DWIDTH 16 0
BBX 16 18 0 -2
BITMAP
0000
0000
7FFE
0080
0080
3FFC
0080
0080
7FFF
0000
0380
0080
0440
0420
0810
100C
6003
0000
ENDCHAR

STARTCHAR cns3_227B
ENCODING 8827
SWIDTH 854 0
DWIDTH 16 0
BBX 16 18 0 -2
BITMAP
0000
0000
7FFF
0080
0080
1FFC
1084
1084
7FFF
1084
1084
7FFF
1004
1004
1004
1004
1018
0000
ENDCHAR

STARTCHAR cns3_227C
ENCODING 8828
SWIDTH 854 0
DWIDTH 16 0
BBX 16 18 0 -2
BITMAP
0000
0000
03FF
2088
1888
0108
0108
0208
0BFF
0808
1018
1028
2048
4088
0108
0208
0070
0000
ENDCHAR

STARTCHAR cns3_227D
ENCODING 8829
SWIDTH 854 0
DWIDTH 16 0
BBX 16 18 0 -2
BITMAP
0000
0040
4040
2040
2040
07FC
0044
0844
0844
17FF
1040
2040
2040
40A0
0110
060C
1803
0000
ENDCHAR

STARTCHAR cns3_227E
ENCODING 8830
SWIDTH 854 0
DWIDTH 16 0
BBX 16 18 0 -2
BITMAP
0000
0020
0020
4020
3020
03FE
0222
0222
0A22
0A22
1222
13FE
2222
2020
4020
0020
0020
0000
ENDCHAR

STARTCHAR cns3_2321
ENCODING 8993
SWIDTH 854 0
DWIDTH 16 0
BBX 16 18 0 -2
BITMAP
0000
0000
0006
43F8
2020
1020
0020
0020
0FFF
1020
1020
2020
2050
4088
0104
0202
0C01
0000
ENDCHAR

STARTCHAR cns3_2322
ENCODING 8994
SWIDTH 854 0
DWIDTH 16 0
BBX 16 18 0 -2
BITMAP
0000
0000
1FFC
1004
1004
17F4
1004
1004
17F4
1004
1104
1104
1224
1215
24FD
2F0A
4000
0000
ENDCHAR

STARTCHAR cns3_2323
ENCODING 8995
SWIDTH 854 0
DWIDTH 16 0
BBX 16 18 0 -2
BITMAP
0000
0100
0080
7FFF
0000
4409
4409
4211
4211
4121
40C1
4141
4631
580D
4001
7FFF
4001
0000
ENDCHAR

STARTCHAR cns3_2324
ENCODING 8996
SWIDTH 854 0
DWIDTH 16 0
BBX 16 18 0 -2
BITMAP
0000
0401
0409
0409
3FC9
0449
0449
0449
0449
7FE9
0409
0409
0A09
0A01
1101
2081
4066
0000
ENDCHAR

STARTCHAR cns3_2325
ENCODING 8997
SWIDTH 854 0
DWIDTH 16 0
BBX 16 18 0 -2
BITMAP
0000
0801
0809
1009
1FC9
2009
5F89
0009
3F89
0109
0209
0409
0809
1001
2021
2021
1FC6
0000
ENDCHAR

STARTCHAR cns3_2326
ENCODING 8998
SWIDTH 854 0
DWIDTH 16 0
BBX 16 18 0 -2
BITMAP
0000
0000
3FFC
0084
0084
0104
0104
0204
1C38
0000
7F7F
0909
0909
0911
1111
1121
2E46
0000
ENDCHAR

STARTCHAR cns3_2327
ENCODING 8999
SWIDTH 854 0
DWIDTH 16 0
BBX 16 18 0 -2
BITMAP
0000
0401
0409
0409
7FE9
1089
1089
1089
0889
0909
0509
0509
0209
0501
0881
1041
6036
0000
ENDCHAR

STARTCHAR cns3_2328
ENCODING 9000
SWIDTH 854 0
DWIDTH 16 0
BBX 16 18 0 -2
BITMAP
0000
0008
3F08
0008
0008
007F
0009
0009
7F89
0409
0409
0911
0891
10A1
1061
27C1
784E
0000
ENDCHAR

STARTCHAR cns3_2329
ENCODING 9001
SWIDTH 854 0
DWIDTH 16 0
BBX 16 18 0 -2
BITMAP
0000
0080
0080
0080
3FFE
0080
0088
0488
0488
7FFF
0408
0408
0408
0808
0808
1008
2008
0000
ENDCHAR

STARTCHAR cns3_232A
ENCODING 9002
SWIDTH 854 0
DWIDTH 16 0
BBX 16 18 0 -2
BITMAP
0000
0080
0080
0080
3FFE
0080
0888
0888
0888
7FFF
0808
0808
0808
0808
0808
0FF8
0000
0000
ENDCHAR

STARTCHAR cns3_232B
ENCODING 9003
SWIDTH 854 0
DWIDTH 16 0
BBX 16 18 0 -2
BITMAP
0000
1020
1020
1020
1020
11FC
7E24
1024
10A6
10A5
1125
1225
1024
1044
1044
1084
1138
0000
ENDCHAR

STARTCHAR cns3_232C
ENCODING 9004
SWIDTH 854 0
DWIDTH 16 0
BBX 16 18 0 -2
BITMAP
0000
0000
7FFF
0080
01C0
06B0
188C
6083
0080
0080
0080
7FFF
0080
0080
0080
0080
0080
0000
ENDCHAR

STARTCHAR cns3_232D
ENCODING 9005
SWIDTH 854 0
DWIDTH 16 0
BBX 16 18 0 -2
BITMAP
0000
0000
40FF
4080
4080
4080
4080
4080
4080
7FFF
0081
0081
0081
0081
0081
0081
7F81
0000
ENDCHAR

STARTCHAR cns3_232E
ENCODING 9006
SWIDTH 854 0
DWIDTH 16 0
BBX 16 18 0 -2
BITMAP
0000
0000
1FFF
1000
1FFF
1040
1080
1100
1208
1610
1120
10C0
1048
2084
217C
4F82
0002
0000
ENDCHAR

STARTCHAR cns3_232F
ENCODING 9007
SWIDTH 854 0
DWIDTH 16 0
BBX 16 18 0 -2
BITMAP
0000
0000
1FFF
1040
1040
1040
1040
1040
17FE
1040
1048
1044
1044
2040
2040
5FFF
4000
0000
ENDCHAR

STARTCHAR cns3_2330
ENCODING 9008
SWIDTH 854 0
DWIDTH 16 0
BBX 16 18 0 -2
BITMAP
0000
0000
1FFF
1040
10A0
1110
1208
1404
1BFB
1000
1000
17FC
1008
1010
2020
2040
4180
0000
ENDCHAR

STARTCHAR cns3_2331
ENCODING 9009
SWIDTH 854 0
DWIDTH 16 0
BBX 16 18 0 -2
BITMAP
0000
0000
7FFE
0102
0102
3FFA
0102
0102
7FFE
0102
0102
0201
0440
0820
11F0
3E08
0004
0000
ENDCHAR

STARTCHAR cns3_2332
ENCODING 9010
SWIDTH 854 0
DWIDTH 16 0
BBX 16 18 0 -2
BITMAP
0000
0080
0080
3FFE
2082
2082
3FFE
0080
0080
1FFC
0808
0410
0220
0140
0180
0660
381E
0000
ENDCHAR

STARTCHAR cns3_2333
ENCODING 9011
SWIDTH 854 0
DWIDTH 16 0
BBX 16 18 0 -2
BITMAP
0000
0000
0FF8
0410
0220
0140
00C0
0F38
0000
7F7F
1121
0A12
0A12
040C
0A14
2122
40C1
0000
ENDCHAR

STARTCHAR cns3_2334
ENCODING 9012
SWIDTH 854 0
DWIDTH 16 0
BBX 16 18 0 -2
BITMAP
0000
0000
0101
7C82
4444
4428
4410
4410
4410
4410
4410
4410
7C10
4410
0010
0010
0010
0000
ENDCHAR

STARTCHAR cns3_2335
ENCODING 9013
SWIDTH 854 0
DWIDTH 16 0
BBX 16 18 0 -2
BITMAP
0000
0000
03FE
0020
7C20
4420
4420
4420
4420
4420
4420
4420
7C20
4420
0020
03FE
0000
0000
ENDCHAR

STARTCHAR cns3_2336
ENCODING 9014
SWIDTH 854 0
DWIDTH 16 0
BBX 16 18 0 -2
BITMAP
0000
0000
00FF
7C81
4481
4481
4481
44FF
4481
4480
4480
4480
7C80
4480
4100
0100
0200
0000
ENDCHAR

STARTCHAR cns3_2337
ENCODING 9015
SWIDTH 854 0
DWIDTH 16 0
BBX 16 18 0 -2
BITMAP
0000
0006
7C38
47E0
4420
4420
4420
47FF
4420
4420
4420
7C20
4420
4020
0020
0020
0020
0000
ENDCHAR

STARTCHAR cns3_2338
ENCODING 9016
SWIDTH 854 0
DWIDTH 16 0
BBX 16 18 0 -2
BITMAP
0000
0000
0FFC
0804
0804
0804
0804
0FFC
0080
0080
7FFF
0080
0140
0220
0410
0808
3006
0000
ENDCHAR

STARTCHAR cns3_2339
ENCODING 9017
SWIDTH 854 0
DWIDTH 16 0
BBX 16 18 0 -2
BITMAP
0000
0000
7E7E
4242
4242
4242
4242
4242
4242
4242
4242
4242
4242
4242
7E7E
4242
4040
0000
ENDCHAR

STARTCHAR cns3_233A
ENCODING 9018
SWIDTH 854 0
DWIDTH 16 0
BBX 16 18 0 -2
BITMAP
0000
0000
03FF
0020
7C20
4420
4420
4430
4428
4424
4420
7C20
4420
4420
0020
0020
0020
0000
ENDCHAR

STARTCHAR cns3_233B
ENCODING 9019
SWIDTH 854 0
DWIDTH 16 0
BBX 16 18 0 -2
BITMAP
0000
0000
1FFC
1004
1004
1004
1004
1FFC
0000
0000
3FFE
2002
2002
2002
2002
3FFE
2002
0000
ENDCHAR

STARTCHAR cns3_233C
ENCODING 9020
SWIDTH 854 0
DWIDTH 16 0
BBX 16 18 0 -2
BITMAP
0000
0010
0010
7C20
4420
4440
4448
4488
4490
4510
4520
4420
7C48
4484
409A
01E2
0601
0000
ENDCHAR

STARTCHAR cns3_233D
ENCODING 9021
SWIDTH 854 0
DWIDTH 16 0
BBX 16 18 0 -2
BITMAP
0000
0000
7FFF
4001
4211
4211
4211
4211
5FFD
4211
4211
4211
4411
4811
4001
7FFF
4001
0000
ENDCHAR

STARTCHAR cns3_233E
ENCODING 9022
SWIDTH 854 0
DWIDTH 16 0
BBX 16 18 0 -2
BITMAP
0000
0000
7FFF
4001
4021
4021
5FFD
4021
4021
4821
4621
4021
4021
41C1
4001
7FFF
4001
0000
ENDCHAR

STARTCHAR cns3_233F
ENCODING 9023
SWIDTH 854 0
DWIDTH 16 0
BBX 16 18 0 -2
BITMAP
0000
0040
1040
1040
1040
1040
7E40
107F
1040
1040
1040
1340
1C40
3040
4040
07FF
0000
0000
ENDCHAR

STARTCHAR cns3_2340
ENCODING 9024
SWIDTH 854 0
DWIDTH 16 0
BBX 16 18 0 -2
BITMAP
0000
0080
0100
7FFF
0220
0C18
3086
4081
0080
0080
3FFE
0080
0080
0080
0080
7FFF
0000
0000
ENDCHAR

STARTCHAR cns3_2341
ENCODING 9025
SWIDTH 854 0
DWIDTH 16 0
BBX 16 18 0 -2
BITMAP
0000
0300
3C10
0810
0810
0810
09FE
7E10
0810
0810
0810
0810
0810
1010
1010
23FF
0000
0000
ENDCHAR

STARTCHAR cns3_2342
ENCODING 9026
SWIDTH 854 0
DWIDTH 16 0
BBX 16 18 0 -2
BITMAP
0000
0806
0838
0BD0
0810
7E10
0810
0810
0BFF
0810
0810
0810
0E10
7810
0010
0010
0010
0000
ENDCHAR

STARTCHAR cns3_2343
ENCODING 9027
SWIDTH 854 0
DWIDTH 16 0
BBX 16 18 0 -2
BITMAP
0000
0410
0410
0410
0410
4410
3410
0C10
05FF
0410
0C10
3410
4410
0410
0410
0410
04FE
0000
ENDCHAR

STARTCHAR cns3_2344
ENCODING 9028
SWIDTH 854 0
DWIDTH 16 0
BBX 16 18 0 -2
BITMAP
0000
0100
0200
07F8
0810
1220
2140
01C0
0E38
7087
0FF0
0880
0880
3FF8
0080
0080
0080
0000
ENDCHAR

STARTCHAR cns3_2345
ENCODING 9029
SWIDTH 854 0
DWIDTH 16 0
BBX 16 18 0 -2
BITMAP
0000
007C
1F80
0100
0100
7FFF
0210
0408
0804
1413
6410
0410
0410
0410
0810
0810
1010
0000
ENDCHAR

STARTCHAR cns3_2346
ENCODING 9030
SWIDTH 854 0
DWIDTH 16 0
BBX 16 18 0 -2
BITMAP
0000
0080
0080
7FFF
0140
0220
0410
0808
3416
0410
7FFF
0410
0410
0410
0810
0810
1010
0000
ENDCHAR

STARTCHAR cns3_2347
ENCODING 9031
SWIDTH 854 0
DWIDTH 16 0
BBX 16 18 0 -2
BITMAP
0000
0810
0810
0810
0810
7F7E
0810
0810
0810
0810
0828
1428
1444
2244
2282
4101
4101
0000
ENDCHAR

STARTCHAR cns3_2348
ENCODING 9032
SWIDTH 854 0
DWIDTH 16 0
BBX 16 18 0 -2
BITMAP
0000
0000
0080
0080
7FFF
0080
0140
0220
0410
180C
6083
0080
7FFF
0140
0220
0C18
7007
0000
ENDCHAR

STARTCHAR cns3_2349
ENCODING 9033
SWIDTH 854 0
DWIDTH 16 0
BBX 16 18 0 -2
BITMAP
0000
0000
09FC
0844
0844
7E44
1244
1244
247C
25C4
4444
7844
0C44
1345
2085
4086
0100
0000
ENDCHAR

STARTCHAR cns3_234A
ENCODING 9034
SWIDTH 854 0
DWIDTH 16 0
BBX 16 18 0 -2
BITMAP
0000
0840
0840
1048
1046
7E40
13FF
1240
2240
2440
4420
2820
1820
0C10
1211
2109
4006
0000
ENDCHAR

STARTCHAR cns3_234B
ENCODING 9035
SWIDTH 854 0
DWIDTH 16 0
BBX 16 18 0 -2
BITMAP
0000
0000
0820
0820
0840
7EFC
1284
1304
2204
2404
4408
2808
1010
0818
1424
22C2
4301
0000
ENDCHAR

STARTCHAR cns3_234C
ENCODING 9036
SWIDTH 854 0
DWIDTH 16 0
BBX 16 18 0 -2
BITMAP
0000
0100
7FFF
0210
0420
0A40
0180
1E78
0000
0100
7FFF
0210
0420
0E40
01B0
060C
3803
0000
ENDCHAR

STARTCHAR cns3_234D
ENCODING 9037
SWIDTH 854 0
DWIDTH 16 0
BBX 16 18 0 -2
BITMAP
0000
0420
0420
0420
07FF
4444
3444
0C84
0488
0508
0D10
34D0
4430
0428
0444
0482
0701
0000
ENDCHAR

STARTCHAR cns3_234E
ENCODING 9038
SWIDTH 854 0
DWIDTH 16 0
BBX 16 18 0 -2
BITMAP
0000
0844
1088
2110
1088
0844
0000
1FF0
0020
0040
0080
7FFF
0080
0080
0080
0080
0300
0000
ENDCHAR

STARTCHAR cns3_234F
ENCODING 9039
SWIDTH 854 0
DWIDTH 16 0
BBX 16 18 0 -2
BITMAP
0000
0080
0080
7FFF
4001
4201
4201
07F0
0820
1020
2040
0040
00A0
0110
0208
0C04
7003
0000
ENDCHAR

STARTCHAR cns3_2350
ENCODING 9040
SWIDTH 854 0
DWIDTH 16 0
BBX 16 18 0 -2
BITMAP
0000
0080
0080
7FFF
4001
5FFD
4005
0004
0FFC
1004
1000
2000
7FFE
0002
0002
0004
0078
0000
ENDCHAR

STARTCHAR cns3_2351
ENCODING 9041
SWIDTH 854 0
DWIDTH 16 0
BBX 16 18 0 -2
BITMAP
0000
0080
1084
0888
0888
7FFF
0001
0001
0001
0001
3FFF
0001
0001
0001
0001
7FFF
0000
0000
ENDCHAR

STARTCHAR cns3_2352
ENCODING 9042
SWIDTH 854 0
DWIDTH 16 0
BBX 16 18 0 -2
BITMAP
0000
0080
0080
0490
0490
0888
1084
2082
0300
0000
0080
0080
3FFE
0080
0080
7FFF
0000
0000
ENDCHAR

STARTCHAR cns3_2353
ENCODING 9043
SWIDTH 854 0
DWIDTH 16 0
BBX 16 18 0 -2
BITMAP
0000
0000
1FFE
1002
1002
1FFE
1000
17FC
1008
1010
1020
1020
1FFF
1020
2020
2020
40C0
0000
ENDCHAR

STARTCHAR cns3_2354
ENCODING 9044
SWIDTH 854 0
DWIDTH 16 0
BBX 16 18 0 -2
BITMAP
0000
0000
1FFE
1002
1002
1002
1002
1FFE
1042
1440
1240
1120
10A0
1410
2208
2186
4000
0000
ENDCHAR

STARTCHAR cns3_2355
ENCODING 9045
SWIDTH 854 0
DWIDTH 16 0
BBX 16 18 0 -2
BITMAP
0000
0000
0800
087F
0808
4908
4908
4908
4908
4908
4908
4908
4908
4908
7F08
4108
007F
0000
ENDCHAR

STARTCHAR cns3_2356
ENCODING 9046
SWIDTH 854 0
DWIDTH 16 0
BBX 16 18 0 -2
BITMAP
0000
1000
11FE
1004
5408
5410
5410
5410
57FF
5410
5410
5410
5410
7C10
4410
0010
0060
0000
ENDCHAR

STARTCHAR cns3_2357
ENCODING 9047
SWIDTH 854 0
DWIDTH 16 0
BBX 16 18 0 -2
BITMAP
0000
0080
0080
7FFF
0120
0210
0408
0804
1082
6081
1084
1084
1084
1084
1084
1FFC
1004
0000
ENDCHAR

STARTCHAR cns3_2358
ENCODING 9048
SWIDTH 854 0
DWIDTH 16 0
BBX 16 18 0 -2
BITMAP
0000
0000
7FFC
0004
0004
0004
3FFC
2000
2002
2002
1FFC
0080
2082
2082
2082
3FFE
2002
0000
ENDCHAR

STARTCHAR cns3_2359
ENCODING 9049
SWIDTH 854 0
DWIDTH 16 0
BBX 16 18 0 -2
BITMAP
0000
0000
10FE
1082
1082
5482
5482
5482
5482
54FE
5482
5480
5480
5480
7C81
4481
007E
0000
ENDCHAR

STARTCHAR cns3_235A
ENCODING 9050
SWIDTH 854 0
DWIDTH 16 0
BBX 16 18 0 -2
BITMAP
0000
0080
0080
2082
2082
2082
2082
2082
3FFE
2082
0080
2082
2082
2082
2082
3FFE
2002
0000
ENDCHAR

STARTCHAR cns3_235B
ENCODING 9051
SWIDTH 854 0
DWIDTH 16 0
BBX 16 18 0 -2
BITMAP
0000
1040
1040
1040
10A0
1110
1208
1404
1FFF
0888
0888
0888
0888
0888
1089
1089
2086
0000
ENDCHAR

STARTCHAR cns3_235C
ENCODING 9052
SWIDTH 854 0
DWIDTH 16 0
BBX 16 18 0 -2
BITMAP
0000
0800
0FFF
0820
0820
0820
0BFE
4A22
3A22
0A22
0A22
0A22
0A22
0A22
122C
1020
2020
0000
ENDCHAR

STARTCHAR cns3_235D
ENCODING 9053
SWIDTH 854 0
DWIDTH 16 0
BBX 16 18 0 -2
BITMAP
0000
1020
1040
1080
7CF8
5488
5488
5488
5488
5488
5488
5488
5488
5C88
1109
1109
1206
0000
ENDCHAR

STARTCHAR cns3_235E
ENCODING 9054
SWIDTH 854 0
DWIDTH 16 0
BBX 16 18 0 -2
BITMAP
0000
0100
0080
0080
1FFF
1040
1040
10F8
1108
1210
1410
1020
1050
1088
2104
2202
4C01
0000
ENDCHAR

STARTCHAR cns3_235F
ENCODING 9055
SWIDTH 854 0
DWIDTH 16 0
BBX 16 18 0 -2
BITMAP
0000
0040
0040
1FFF
1000
17FE
1040
1040
1040
1FFF
1040
1040
1040
1040
2040
2040
4180
0000
ENDCHAR

STARTCHAR cns3_2360
ENCODING 9056
SWIDTH 854 0
DWIDTH 16 0
BBX 16 18 0 -2
BITMAP
0000
0040
0040
1FFF
1000
100C
10F0
1F80
1080
1080
108E
1FF0
1080
1080
2081
2081
407E
0000
ENDCHAR

STARTCHAR cns3_2361
ENCODING 9057
SWIDTH 854 0
DWIDTH 16 0
BBX 16 18 0 -2
BITMAP
0000
0000
0049
7C49
0892
1124
1124
2248
3E90
4548
2524
1494
1892
104A
1849
2400
43FF
0000
ENDCHAR

STARTCHAR cns3_2362
ENCODING 9058
SWIDTH 854 0
DWIDTH 16 0
BBX 16 18 0 -2
BITMAP
0000
0020
0020
0028
0024
7FFF
0020
0020
3FA0
0010
0010
3F10
0008
0008
7F85
0005
0002
0000
ENDCHAR

STARTCHAR cns3_2363
ENCODING 9059
SWIDTH 854 0
DWIDTH 16 0
BBX 16 18 0 -2
BITMAP
0000
7C40
0440
0440
04FF
3C81
2101
4241
4021
7C11
0411
0401
0401
0401
0401
0401
781E
0000
ENDCHAR

STARTCHAR cns3_2364
ENCODING 9060
SWIDTH 854 0
DWIDTH 16 0
BBX 16 18 0 -2
BITMAP
0000
0000
7DFF
0400
0400
05FF
3C40
2040
4040
40FE
7C82
0402
0402
0402
0402
0804
7038
0000
ENDCHAR

STARTCHAR cns3_2365
ENCODING 9061
SWIDTH 854 0
DWIDTH 16 0
BBX 16 18 0 -2
BITMAP
0000
0008
1810
0620
0360
00C0
0330
0C0C
3003
0484
1442
1421
2405
2404
4404
03F8
0000
0000
ENDCHAR

STARTCHAR cns3_2366
ENCODING 9062
SWIDTH 854 0
DWIDTH 16 0
BBX 16 18 0 -2
BITMAP
0000
0000
11FF
1010
1010
3410
3210
5210
53FF
1010
1010
1010
1010
1010
1010
1010
1010
0000
ENDCHAR

STARTCHAR cns3_2367
ENCODING 9063
SWIDTH 854 0
DWIDTH 16 0
BBX 16 18 0 -2
BITMAP
0000
1010
1090
1090
1096
349A
32F2
5394
5290
1090
1090
1090
1080
1081
1081
1081
107E
0000
ENDCHAR

STARTCHAR cns3_2368
ENCODING 9064
SWIDTH 854 0
DWIDTH 16 0
BBX 16 18 0 -2
BITMAP
0000
1000
13FE
1022
1822
3522
30A2
50A2
5062
1022
1032
104A
1042
1082
1084
1104
1218
0000
ENDCHAR

STARTCHAR cns3_2369
ENCODING 9065
SWIDTH 854 0
DWIDTH 16 0
BBX 16 18 0 -2
BITMAP
0000
1000
10F8
1088
3488
3288
5288
50C8
10A8
1088
1088
1088
1088
1108
1109
1209
1406
0000
ENDCHAR

STARTCHAR cns3_236A
ENCODING 9066
SWIDTH 854 0
DWIDTH 16 0
BBX 16 18 0 -2
BITMAP
0000
0100
0120
0110
3FFC
0100
0100
3FFC
0100
0080
7FFE
0088
0050
0020
00F1
0709
7806
0000
ENDCHAR

STARTCHAR cns3_236B
ENCODING 9067
SWIDTH 854 0
DWIDTH 16 0
BBX 16 18 0 -2
BITMAP
0000
0010
7F90
1098
1094
1092
111F
09F0
0912
0A12
0414
0414
0A18
0A29
1145
2082
4040
0000
ENDCHAR

STARTCHAR cns3_236C
ENCODING 9068
SWIDTH 854 0
DWIDTH 16 0
BBX 16 18 0 -2
BITMAP
0000
0800
09FE
0800
7E00
09FF
0820
0820
0840
0E7E
1882
6882
0802
0802
0802
0802
783C
0000
ENDCHAR

STARTCHAR cns3_236D
ENCODING 9069
SWIDTH 854 0
DWIDTH 16 0
BBX 16 18 0 -2
BITMAP
0000
0800
09FC
0844
7E44
0844
0844
0844
087C
0FC4
1844
6844
0844
0844
0885
0885
7106
0000
ENDCHAR

STARTCHAR cns3_236E
ENCODING 9070
SWIDTH 854 0
DWIDTH 16 0
BBX 16 18 0 -2
BITMAP
0000
1040
1040
1040
7FFC
1044
1044
1044
1044
1548
18C8
7068
1058
1089
1089
1109
7206
0000
ENDCHAR

STARTCHAR cns3_236F
ENCODING 9071
SWIDTH 854 0
DWIDTH 16 0
BBX 16 18 0 -2
BITMAP
0000
0810
0810
0810
7E10
0810
09FF
0810
0E10
1810
6810
0810
0810
0810
0810
7BFF
0000
0000
ENDCHAR

STARTCHAR cns3_2370
ENCODING 9072
SWIDTH 854 0
DWIDTH 16 0
BBX 16 18 0 -2
BITMAP
0000
0080
0080
7FFF
0210
0120
00C0
0738
7817
0410
0410
0410
0410
0410
0810
0810
1010
0000
ENDCHAR

STARTCHAR cns3_2371
ENCODING 9073
SWIDTH 854 0
DWIDTH 16 0
BBX 16 18 0 -2
BITMAP
0000
0810
0810
0810
7F90
1010
1010
1E10
1210
1210
1228
1228
2244
2244
2282
4282
5D01
0000
ENDCHAR

STARTCHAR cns3_2372
ENCODING 9074
SWIDTH 854 0
DWIDTH 16 0
BBX 16 18 0 -2
BITMAP
0000
0000
01FF
7C21
4421
4421
4421
4421
7C21
4421
4421
4441
4441
7C41
4481
0081
010E
0000
ENDCHAR

STARTCHAR cns3_2373
ENCODING 9075
SWIDTH 854 0
DWIDTH 16 0
BBX 16 18 0 -2
BITMAP
0000
0010
0010
7C10
4410
4410
4410
45FF
7C10
4410
4410
4410
4410
7C10
4410
0010
0010
0000
ENDCHAR

STARTCHAR cns3_2374
ENCODING 9076
SWIDTH 854 0
DWIDTH 16 0
BBX 16 18 0 -2
BITMAP
0000
0080
0080
0080
3FFE
2082
2082
3FFE
2082
2082
3FFE
2082
0140
0120
0210
0C0C
7003
0000
ENDCHAR

STARTCHAR cns3_2375
ENCODING 9077
SWIDTH 854 0
DWIDTH 16 0
BBX 16 18 0 -2
BITMAP
0000
0800
09FF
0811
0811
7F11
0811
0811
0C11
1A11
2821
2821
4841
0841
0881
0881
0906
0000
ENDCHAR

STARTCHAR cns3_2376
ENCODING 9078
SWIDTH 854 0
DWIDTH 16 0
BBX 16 18 0 -2
BITMAP
0000
0800
0BFE
0884
7F84
0888
0888
1C9F
1A91
2881
2881
4881
0881
0881
0901
0901
0A1E
0000
ENDCHAR

STARTCHAR cns3_2377
ENCODING 9079
SWIDTH 854 0
DWIDTH 16 0
BBX 16 18 0 -2
BITMAP
0000
0820
0820
0820
0820
7F20
0820
0820
1C20
1A20
2850
2850
4848
0888
0904
0A02
0C01
0000
ENDCHAR

STARTCHAR cns3_2378
ENCODING 9080
SWIDTH 854 0
DWIDTH 16 0
BBX 16 18 0 -2
BITMAP
0000
0000
3FF8
0208
0210
041F
0411
0802
309C
0080
7FFF
01A0
0290
0C8C
3083
4080
0080
0000
ENDCHAR

STARTCHAR cns3_2379
ENCODING 9081
SWIDTH 854 0
DWIDTH 16 0
BBX 16 18 0 -2
BITMAP
0000
0010
7F90
20A0
20FF
1149
1189
0A0A
0A08
0408
0408
0414
0A14
0A22
1142
2081
4080
0000
ENDCHAR

STARTCHAR cns3_237A
ENCODING 9082
SWIDTH 854 0
DWIDTH 16 0
BBX 16 18 0 -2
BITMAP
0000
0400
0800
1FFF
2000
4000
07FC
0444
0444
0884
7FFF
0884
0904
1104
1FFF
1004
0078
0000
ENDCHAR

STARTCHAR cns3_237B
ENCODING 9083
SWIDTH 854 0
DWIDTH 16 0
BBX 16 18 0 -2
BITMAP
0000
0300
7C00
0BFC
0848
0850
7E5E
0852
0882
0882
7E82
0902
0903
0A1D
0801
07FE
0000
0000
ENDCHAR

STARTCHAR cns3_237C
ENCODING 9084
SWIDTH 854 0
DWIDTH 16 0
BBX 16 18 0 -2
BITMAP
0000
0000
0006
6038
19E0
0020
0020
4020
37FF
0020
0020
0820
1020
1020
2020
2020
4020
0000
ENDCHAR

STARTCHAR cns3_237D
ENCODING 9085
SWIDTH 854 0
DWIDTH 16 0
BBX 16 18 0 -2
BITMAP
0000
0000
000C
2070
1BC0
0040
0040
4040
307E
07C0
0040
0040
1040
1041
2041
2041
403E
0000
ENDCHAR

STARTCHAR cns3_237E
ENCODING 9086
SWIDTH 854 0
DWIDTH 16 0
BBX 16 18 0 -2
BITMAP
0000
0040
0040
2040
1880
00FE
0104
4204
3488
0088
0050
0850
1020
1050
2088
2104
4602
0000
ENDCHAR

STARTCHAR cns3_2421
ENCODING 9249
SWIDTH 854 0
DWIDTH 16 0
BBX 16 18 0 -2
BITMAP
0000
0080
0080
0086
7E98
02A0
04C0
08B0
130C
6083
0080
0140
0220
0410
0808
1004
6003
0000
ENDCHAR

STARTCHAR cns3_2422
ENCODING 9250
SWIDTH 854 0
DWIDTH 16 0
BBX 16 18 0 -2
BITMAP
0000
0420
0420
0820
0820
1320
10E1
3022
5074
10A8
10A8
1124
1124
1222
1421
1020
11C0
0000
ENDCHAR

STARTCHAR cns3_2423
ENCODING 9251
SWIDTH 854 0
DWIDTH 16 0
BBX 16 18 0 -2
BITMAP
0000
0000
23FF
1820
0020
0040
47FF
3080
0080
01FE
0002
0802
1002
1002
2002
2002
407C
0000
ENDCHAR

STARTCHAR cns3_2424
ENCODING 9252
SWIDTH 854 0
DWIDTH 16 0
BBX 16 18 0 -2
BITMAP
0000
0000
23FE
1802
0002
0002
4002
3002
01FE
0102
0100
0900
0900
1100
1101
2101
00FE
0000
ENDCHAR

STARTCHAR cns3_2425
ENCODING 9253
SWIDTH 854 0
DWIDTH 16 0
BBX 16 18 0 -2
BITMAP
0000
0000
23FE
1802
0404
0048
4030
3020
0810
07FF
0010
0810
1010
1010
2010
4010
00E0
0000
ENDCHAR

STARTCHAR cns3_2426
ENCODING 9254
SWIDTH 854 0
DWIDTH 16 0
BBX 16 18 0 -2
BITMAP
0000
0800
09FF
0808
0808
2A08
2C08
2808
4808
4808
0808
0808
1408
1408
2208
2208
4170
0000
ENDCHAR

STARTCHAR cns3_2427
ENCODING 9255
SWIDTH 854 0
DWIDTH 16 0
BBX 16 18 0 -2
BITMAP
0000
0201
0201
0201
0209
1249
1249
1289
2289
2209
0309
0509
0481
0841
0821
1001
600E
0000
ENDCHAR

STARTCHAR cns3_2428
ENCODING 9256
SWIDTH 854 0
DWIDTH 16 0
BBX 16 18 0 -2
BITMAP
0000
0080
0884
0888
1090
1140
0230
0C0C
7003
0410
0410
0410
0410
0412
0812
1012
200C
0000
ENDCHAR

STARTCHAR cns3_2429
ENCODING 9257
SWIDTH 854 0
DWIDTH 16 0
BBX 16 18 0 -2
BITMAP
0000
0000
1FFF
1040
1040
1040
1242
1244
1448
1440
1040
10A0
10A0
1110
2208
2404
4802
0000
ENDCHAR

STARTCHAR cns3_242A
ENCODING 9258
SWIDTH 854 0
DWIDTH 16 0
BBX 16 18 0 -2
BITMAP
0000
0000
1FFC
1084
1084
1084
128C
1294
14A4
1484
1084
1144
1224
1415
280D
3006
4000
0000
ENDCHAR

STARTCHAR cns3_242B
ENCODING 9259
SWIDTH 854 0
DWIDTH 16 0
BBX 16 18 0 -2
BITMAP
0000
0400
0400
0FFF
0881
1081
2081
4089
0891
0491
0481
014E
0140
0220
0410
0808
3006
0000
ENDCHAR

STARTCHAR cns3_242C
ENCODING 9260
SWIDTH 854 0
DWIDTH 16 0
BBX 16 18 0 -2
BITMAP
0000
0040
4040
2240
1440
19F8
2848
4848
0848
0848
19C8
2868
4898
0889
0909
0A0E
3000
0000
ENDCHAR

STARTCHAR cns3_242D
ENCODING 9261
SWIDTH 854 0
DWIDTH 16 0
BBX 16 18 0 -2
BITMAP
0000
0008
2108
1208
0C08
0C08
15FF
6408
0418
0C18
1428
2428
4448
0448
0488
3428
0C18
0000
ENDCHAR

STARTCHAR cns3_242E
ENCODING 9262
SWIDTH 854 0
DWIDTH 16 0
BBX 16 18 0 -2
BITMAP
0000
0000
0020
0020
7F20
0820
0840
0840
0840
7F40
0880
0888
0884
0B02
1D3E
63C1
0001
0000
ENDCHAR

STARTCHAR cns3_242F
ENCODING 9263
SWIDTH 854 0
DWIDTH 16 0
BBX 16 18 0 -2
BITMAP
0000
0010
0010
7F10
09FF
0811
0811
0811
0811
7F11
0811
0811
0821
0B21
1C41
6041
008E
0000
ENDCHAR

STARTCHAR cns3_2430
ENCODING 9264
SWIDTH 854 0
DWIDTH 16 0
BBX 16 18 0 -2
BITMAP
0000
0020
0020
7F20
0820
0860
0830
0828
0824
7F22
0821
0820
0820
0B20
1C20
6020
0020
0000
ENDCHAR

STARTCHAR cns3_2431
ENCODING 9265
SWIDTH 854 0
DWIDTH 16 0
BBX 16 18 0 -2
BITMAP
0000
0001
7F81
0411
0411
0411
0411
0411
7F91
0411
0411
0411
0411
0591
1E01
6001
000E
0000
ENDCHAR

STARTCHAR cns3_2432
ENCODING 9266
SWIDTH 854 0
DWIDTH 16 0
BBX 16 18 0 -2
BITMAP
0000
0000
7FFF
0100
0100
0140
0220
0210
07FE
0A02
1202
2202
4202
0202
0202
03FE
0202
0000
ENDCHAR

STARTCHAR cns3_2433
ENCODING 9267
SWIDTH 854 0
DWIDTH 16 0
BBX 16 18 0 -2
BITMAP
0000
0840
0840
0840
7F40
0140
0240
0440
0840
1C40
6A40
0840
0840
0841
0841
0841
083E
0000
ENDCHAR

STARTCHAR cns3_2434
ENCODING 9268
SWIDTH 854 0
DWIDTH 16 0
BBX 16 18 0 -2
BITMAP
0000
0080
0080
3FFE
0808
0808
0410
0410
7FFF
0080
0080
0080
0080
0080
0080
0080
0080
0000
ENDCHAR

STARTCHAR cns3_2435
ENCODING 9269
SWIDTH 854 0
DWIDTH 16 0
BBX 16 18 0 -2
BITMAP
0000
0020
3C20
2420
2420
2420
37FC
2C24
2424
2424
2C28
3428
2448
2448
2489
2489
5906
0000
ENDCHAR

STARTCHAR cns3_2436
ENCODING 9270
SWIDTH 854 0
DWIDTH 16 0
BBX 16 18 0 -2
BITMAP
0000
0000
7FFF
4001
8002
0FF8
0808
0808
0B08
08C8
0828
0808
0828
08C8
0B08
0808
1070
0000
ENDCHAR

STARTCHAR cns3_2437
ENCODING 9271
SWIDTH 854 0
DWIDTH 16 0
BBX 16 18 0 -2
BITMAP
0000
0810
0810
7FFF
0810
0810
0000
3FFE
0400
0800
0FFC
0804
0004
0004
0004
0008
0070
0000
ENDCHAR

STARTCHAR cns3_2438
ENCODING 9272
SWIDTH 854 0
DWIDTH 16 0
BBX 16 18 0 -2
BITMAP
0000
0408
0408
7F7F
0408
0488
0080
3FFE
0082
0082
0082
0102
0102
0202
0202
0402
183C
0000
ENDCHAR

STARTCHAR cns3_2439
ENCODING 9273
SWIDTH 854 0
DWIDTH 16 0
BBX 16 18 0 -2
BITMAP
0000
0808
0808
7F7F
0808
0808
0000
01F0
0410
0410
0410
0410
0808
0808
1004
1004
6003
0000
ENDCHAR

STARTCHAR cns3_243A
ENCODING 9274
SWIDTH 854 0
DWIDTH 16 0
BBX 16 18 0 -2
BITMAP
0000
0080
0080
0080
1FFC
0080
0080
0080
7FFF
0010
1010
1020
0820
0840
0180
3E70
000F
0000
ENDCHAR

STARTCHAR cns3_243B
ENCODING 9275
SWIDTH 854 0
DWIDTH 16 0
BBX 16 18 0 -2
BITMAP
0000
0000
2020
1020
1020
01FE
0022
7822
0822
0822
1042
1042
1082
130C
1000
2C01
43FE
0000
ENDCHAR

STARTCHAR cns3_243C
ENCODING 9276
SWIDTH 854 0
DWIDTH 16 0
BBX 16 18 0 -2
BITMAP
0000
043F
0421
04A1
44A2
44A2
44A4
44A4
44A2
44A2
44A1
44A1
44A1
7FA1
40AE
4020
0020
0000
ENDCHAR

STARTCHAR cns3_243D
ENCODING 9277
SWIDTH 854 0
DWIDTH 16 0
BBX 16 18 0 -2
BITMAP
0000
0400
041F
0411
0811
0812
7FF2
0894
0894
1092
1092
2091
1111
0A11
0616
1910
6090
0000
ENDCHAR

STARTCHAR cns3_243E
ENCODING 9278
SWIDTH 854 0
DWIDTH 16 0
BBX 16 18 0 -2
BITMAP
0000
0000
7DFE
4404
4404
4848
4830
5010
53FF
4810
4810
4410
4410
4410
5810
4010
40E0
0000
ENDCHAR

STARTCHAR cns3_243F
ENCODING 9279
SWIDTH 854 0
DWIDTH 16 0
BBX 16 18 0 -2
BITMAP
0000
0000
7FFF
0210
0210
3FFE
2212
2212
2512
28AA
3046
2086
2002
2002
2002
2002
201C
0000
ENDCHAR

STARTCHAR cns3_2440
ENCODING 9280
SWIDTH 854 0
DWIDTH 16 0
BBX 16 18 0 -2
BITMAP
0000
01A0
3E20
0420
0420
0420
7FA0
0420
0420
0420
0420
3F20
2120
2121
2121
3F21
211E
0000
ENDCHAR

STARTCHAR cns3_2441
ENCODING 9281
SWIDTH 854 0
DWIDTH 16 0
BBX 16 18 0 -2
BITMAP
0000
0000
01FC
0104
0104
7D04
0104
01FC
0154
7C50
0050
0090
0090
0110
0111
0211
040E
0000
ENDCHAR

STARTCHAR cns3_2442
ENCODING 9282
SWIDTH 854 0
DWIDTH 16 0
BBX 16 18 0 -2
BITMAP
0000
0000
7FFF
0220
0220
0220
3FFE
2222
2222
2222
2222
3FFE
2222
0220
0220
7FFF
0000
0000
ENDCHAR

STARTCHAR cns3_2443
ENCODING 9283
SWIDTH 854 0
DWIDTH 16 0
BBX 16 18 0 -2
BITMAP
0000
0420
0420
0820
0BFE
1020
1020
2020
37FF
5020
5070
10A8
10A8
1124
1222
1421
1020
0000
ENDCHAR

STARTCHAR cns3_2444
ENCODING 9284
SWIDTH 854 0
DWIDTH 16 0
BBX 16 18 0 -2
BITMAP
0000
0410
0410
0810
09FF
1111
1112
2110
31FE
5102
1142
1144
1228
1210
1428
1444
1983
0000
ENDCHAR

STARTCHAR cns3_2445
ENCODING 9285
SWIDTH 854 0
DWIDTH 16 0
BBX 16 18 0 -2
BITMAP
0000
05FC
0504
0904
0904
11FC
1104
2104
3104
5104
11FC
1104
1104
1104
1104
17FF
1000
0000
ENDCHAR

STARTCHAR cns3_2446
ENCODING 9286
SWIDTH 854 0
DWIDTH 16 0
BBX 16 18 0 -2
BITMAP
0000
0420
0420
0820
0820
13FE
1222
3222
3222
5222
13FE
1222
1222
1222
13FE
1202
0000
0000
ENDCHAR

STARTCHAR cns3_2447
ENCODING 9287
SWIDTH 854 0
DWIDTH 16 0
BBX 16 18 0 -2
BITMAP
0000
0488
0488
0488
0908
0908
125F
1689
3289
3109
5109
1289
1251
15D1
1E61
1021
104E
0000
ENDCHAR

STARTCHAR cns3_2448
ENCODING 9288
SWIDTH 854 0
DWIDTH 16 0
BBX 16 18 0 -2
BITMAP
0000
0400
07FE
0A02
0A02
1202
13FE
2240
3240
5240
1244
127E
1240
1441
1441
1841
103E
0000
ENDCHAR

STARTCHAR cns3_2449
ENCODING 9289
SWIDTH 854 0
DWIDTH 16 0
BBX 16 18 0 -2
BITMAP
0000
0400
07FF
0810
0810
1110
1110
2110
311F
5110
5110
1110
1110
1110
1110
17FF
1000
0000
ENDCHAR

STARTCHAR cns3_244A
ENCODING 9290
SWIDTH 854 0
DWIDTH 16 0
BBX 16 18 0 -2
BITMAP
0000
0400
07FF
0820
0820
13FE
1222
2272
3252
528A
1306
1202
1202
1202
1202
1202
120C
0000
ENDCHAR

STARTCHAR cns3_244B
ENCODING 9291
SWIDTH 854 0
DWIDTH 16 0
BBX 16 18 0 -2
BITMAP
0000
0484
0484
0884
0884
13FF
1084
3084
5084
1084
10FC
1084
1084
1084
1084
10FC
1084
0000
ENDCHAR

STARTCHAR cns3_244C
ENCODING 9292
SWIDTH 854 0
DWIDTH 16 0
BBX 16 18 0 -2
BITMAP
0000
0000
05FF
0421
0821
0841
1041
1881
290E
2800
49FF
0901
0901
0901
0901
09FF
0901
0000
ENDCHAR

STARTCHAR cns3_244D
ENCODING 9293
SWIDTH 854 0
DWIDTH 16 0
BBX 16 18 0 -2
BITMAP
0000
0400
05FE
0922
0912
1112
190A
2FFF
2942
4A22
0A12
0A0A
0BFF
0A02
0A02
0802
081C
0000
ENDCHAR

STARTCHAR cns3_244E
ENCODING 9294
SWIDTH 854 0
DWIDTH 16 0
BBX 16 18 0 -2
BITMAP
0000
0200
03FE
0502
0502
0902
1902
29FE
4900
0900
09FF
0901
0901
0901
0901
09FF
0901
0000
ENDCHAR

STARTCHAR cns3_244F
ENCODING 9295
SWIDTH 854 0
DWIDTH 16 0
BBX 16 18 0 -2
BITMAP
0000
0000
0BFF
0A49
1249
1249
2249
3249
5249
1289
1287
1301
1201
1201
1201
13FF
1201
0000
ENDCHAR

STARTCHAR cns3_2450
ENCODING 9296
SWIDTH 854 0
DWIDTH 16 0
BBX 16 18 0 -2
BITMAP
0000
0000
0420
0420
0850
0888
1104
1A22
2C21
2920
4928
0A24
0A22
0821
0820
0820
09C0
0000
ENDCHAR

STARTCHAR cns3_2451
ENCODING 9297
SWIDTH 854 0
DWIDTH 16 0
BBX 16 18 0 -2
BITMAP
0000
0808
0410
0420
0240
0FF8
0808
0808
0808
0808
0FF8
0A48
0240
0441
0441
0841
103E
0000
ENDCHAR

STARTCHAR cns3_2452
ENCODING 9298
SWIDTH 854 0
DWIDTH 16 0
BBX 16 18 0 -2
BITMAP
0000
0000
1FFC
0104
0204
0404
0838
3FFE
2082
2082
2082
3FFE
0180
0181
0281
0C41
303E
0000
ENDCHAR

STARTCHAR cns3_2453
ENCODING 9299
SWIDTH 854 0
DWIDTH 16 0
BBX 16 18 0 -2
BITMAP
0000
0000
13FC
1204
1204
13FC
1204
1204
13FC
0000
0410
0410
0410
0411
0811
1011
600E
0000
ENDCHAR

STARTCHAR cns3_2454
ENCODING 9300
SWIDTH 854 0
DWIDTH 16 0
BBX 16 18 0 -2
BITMAP
0000
001E
07E0
7880
0080
3FFE
2082
2082
2082
3FFE
0080
0180
01B0
028D
0281
0481
387E
0000
ENDCHAR

STARTCHAR cns3_2455
ENCODING 9301
SWIDTH 854 0
DWIDTH 16 0
BBX 16 18 0 -2
BITMAP
0000
0000
7FFF
4081
4081
5CB9
4489
4489
4489
4A95
52A5
51A3
60C1
4081
4081
4081
4086
0000
ENDCHAR

STARTCHAR cns3_2456
ENCODING 9302
SWIDTH 854 0
DWIDTH 16 0
BBX 16 18 0 -2
BITMAP
0000
0000
3FFE
2082
2082
2082
2142
2222
2412
280A
7FFF
0220
0220
0410
0808
1004
2002
0000
ENDCHAR

STARTCHAR cns3_2457
ENCODING 9303
SWIDTH 854 0
DWIDTH 16 0
BBX 16 18 0 -2
BITMAP
0000
0000
3FFF
2001
47FA
0408
0408
0408
07F8
0408
0408
0408
07F8
0408
0408
7FFF
0000
0000
ENDCHAR

STARTCHAR cns3_2458
ENCODING 9304
SWIDTH 854 0
DWIDTH 16 0
BBX 16 18 0 -2
BITMAP
0000
0000
03FF
4040
3040
0840
0080
0080
09FE
0982
1282
1282
2482
2082
4082
00FE
0082
0000
ENDCHAR

STARTCHAR cns3_2459
ENCODING 9305
SWIDTH 854 0
DWIDTH 16 0
BBX 16 18 0 -2
BITMAP
0000
0000
43FE
3202
0A02
0202
0202
0202
0BFE
1292
1090
2090
2110
4111
0211
0211
040E
0000
ENDCHAR

STARTCHAR cns3_245A
ENCODING 9306
SWIDTH 854 0
DWIDTH 16 0
BBX 16 18 0 -2
BITMAP
0000
0020
0222
4124
30A8
0820
0020
07FF
0020
0820
0820
17FF
1020
2020
4020
0020
0020
0000
ENDCHAR

STARTCHAR cns3_245B
ENCODING 9307
SWIDTH 854 0
DWIDTH 16 0
BBX 16 18 0 -2
BITMAP
0000
0000
1FFC
1004
17F4
1004
17F4
1414
1414
17F4
1414
1414
17F4
1415
2005
2005
4003
0000
ENDCHAR

STARTCHAR cns3_245C
ENCODING 9308
SWIDTH 854 0
DWIDTH 16 0
BBX 16 18 0 -2
BITMAP
0000
0801
0809
0809
1009
1109
2089
27C9
7829
0009
3FC9
2049
2049
2041
2041
3FC1
2046
0000
ENDCHAR

STARTCHAR cns3_245D
ENCODING 9309
SWIDTH 854 0
DWIDTH 16 0
BBX 16 18 0 -2
BITMAP
0000
0400
04FF
0411
0411
3F91
0411
0411
0411
7FD1
0811
0811
1211
1121
20A1
7F41
408E
0000
ENDCHAR

STARTCHAR cns3_245E
ENCODING 9310
SWIDTH 854 0
DWIDTH 16 0
BBX 16 18 0 -2
BITMAP
0000
0201
0201
0209
0209
3FE9
0209
0209
0209
7FF9
0409
0409
0909
0881
1041
27E1
7826
0000
ENDCHAR

STARTCHAR cns3_245F
ENCODING 9311
SWIDTH 854 0
DWIDTH 16 0
BBX 16 18 0 -2
BITMAP
0000
0001
7FC1
0449
0449
0849
0849
1049
2389
0009
7FC9
4049
4049
4041
4041
7FC1
4046
0000
ENDCHAR

STARTCHAR cns3_2460
ENCODING 9312
SWIDTH 854 0
DWIDTH 16 0
BBX 16 18 0 -2
BITMAP
0000
0002
3F82
2092
2092
2092
2092
3F92
0812
0812
3F92
0892
0892
1092
1082
2082
470C
0000
ENDCHAR

STARTCHAR cns3_2461
ENCODING 9313
SWIDTH 854 0
DWIDTH 16 0
BBX 16 18 0 -2
BITMAP
0000
0001
3CF1
2495
2495
2495
2495
2495
2495
7FFD
2495
2495
2495
2495
2491
2491
24B6
0000
ENDCHAR

STARTCHAR cns3_2462
ENCODING 9314
SWIDTH 854 0
DWIDTH 16 0
BBX 16 18 0 -2
BITMAP
0000
2100
1082
1084
0848
7FFF
4001
4081
4081
0080
1FFC
0084
0084
0104
0104
0204
0478
0000
ENDCHAR

STARTCHAR cns3_2463
ENCODING 9315
SWIDTH 854 0
DWIDTH 16 0
BBX 16 18 0 -2
BITMAP
0000
0410
0410
7FFF
0410
0000
7FFF
4001
4081
4081
1FF8
0108
0108
0208
0208
0408
0870
0000
ENDCHAR

STARTCHAR cns3_2464
ENCODING 9316
SWIDTH 854 0
DWIDTH 16 0
BBX 16 18 0 -2
BITMAP
0000
0808
0808
4908
4908
497F
4909
4909
7F09
0809
4909
4909
4911
4911
4921
7F21
414E
0000
ENDCHAR

STARTCHAR cns3_2465
ENCODING 9317
SWIDTH 854 0
DWIDTH 16 0
BBX 16 18 0 -2
BITMAP
0000
0000
7FFF
4100
4100
4208
44FC
4F12
4210
4210
5FFE
4210
4210
4410
5810
7FFF
4000
0000
ENDCHAR

STARTCHAR cns3_2466
ENCODING 9318
SWIDTH 854 0
DWIDTH 16 0
BBX 16 18 0 -2
BITMAP
0000
0000
7FFF
4200
4200
47F8
4840
5040
4040
4040
7FFE
40A0
4110
4208
4C06
7FFF
4000
0000
ENDCHAR

STARTCHAR cns3_2467
ENCODING 9319
SWIDTH 854 0
DWIDTH 16 0
BBX 16 18 0 -2
BITMAP
0000
0400
041F
0411
0411
3FD1
0411
0411
0411
7FF1
0411
0811
0811
1117
1090
27D0
7850
0000
ENDCHAR

STARTCHAR cns3_2468
ENCODING 9320
SWIDTH 854 0
DWIDTH 16 0
BBX 16 18 0 -2
BITMAP
0000
0000
1FFF
1100
1080
1040
1FFF
1204
1204
1204
1108
1108
1108
2090
2090
3FFF
4000
0000
ENDCHAR

STARTCHAR cns3_2469
ENCODING 9321
SWIDTH 854 0
DWIDTH 16 0
BBX 16 18 0 -2
BITMAP
0000
0000
1FFF
1040
1040
1040
1FFE
1040
1040
1040
17FC
1404
1404
2404
2404
27FC
4404
0000
ENDCHAR

STARTCHAR cns3_246A
ENCODING 9322
SWIDTH 854 0
DWIDTH 16 0
BBX 16 18 0 -2
BITMAP
0000
0000
1FFE
1000
1000
17FC
1444
1444
17FC
1444
1444
17FC
1040
2040
2040
2040
4040
0000
ENDCHAR

STARTCHAR cns3_246B
ENCODING 9323
SWIDTH 854 0
DWIDTH 16 0
BBX 16 18 0 -2
BITMAP
0000
0020
0020
7C20
47FF
4420
4420
4420
443E
4422
4422
4442
7C42
4482
4082
0102
063C
0000
ENDCHAR

STARTCHAR cns3_246C
ENCODING 9324
SWIDTH 854 0
DWIDTH 16 0
BBX 16 18 0 -2
BITMAP
0000
0010
0010
7C10
4416
45F8
4410
4410
45FF
4410
4410
47FF
4410
7C10
4410
0010
0010
0000
ENDCHAR

STARTCHAR cns3_246D
ENCODING 9325
SWIDTH 854 0
DWIDTH 16 0
BBX 16 18 0 -2
BITMAP
0000
0000
01FE
7C00
4400
4400
4400
47FF
4420
4420
4424
4444
7C42
4482
40BF
03C1
0001
0000
ENDCHAR

STARTCHAR cns3_246E
ENCODING 9326
SWIDTH 854 0
DWIDTH 16 0
BBX 16 18 0 -2
BITMAP
0000
0020
0020
7C20
4420
4420
47FF
4430
4468
4468
44A4
44A4
7D22
4621
4020
0020
0020
0000
ENDCHAR

STARTCHAR cns3_246F
ENCODING 9327
SWIDTH 854 0
DWIDTH 16 0
BBX 16 18 0 -2
BITMAP
0000
0040
0048
7C44
4442
47FF
4440
4440
4440
4440
4440
4460
7CA0
44A0
4121
0121
021E
0000
ENDCHAR

STARTCHAR cns3_2470
ENCODING 9328
SWIDTH 854 0
DWIDTH 16 0
BBX 16 18 0 -2
BITMAP
0000
0000
00F8
7C88
4488
4489
4509
460E
4400
47FE
4484
7C84
4448
4430
0050
018C
0603
0000
ENDCHAR

STARTCHAR cns3_2471
ENCODING 9329
SWIDTH 854 0
DWIDTH 16 0
BBX 16 18 0 -2
BITMAP
0000
0000
0058
7C48
4448
4444
4484
4482
4502
4621
4420
4440
7C40
4484
408E
01F2
0301
0000
ENDCHAR

STARTCHAR cns3_2472
ENCODING 9330
SWIDTH 854 0
DWIDTH 16 0
BBX 16 18 0 -2
BITMAP
0000
0200
0200
0100
7FFE
4102
4182
4242
4422
581A
4FF2
4812
4812
4FF2
4812
4002
401C
0000
ENDCHAR

STARTCHAR cns3_2473
ENCODING 9331
SWIDTH 854 0
DWIDTH 16 0
BBX 16 18 0 -2
BITMAP
0000
0000
3FF8
0208
0210
041F
0412
0882
309C
7FFF
0080
0080
0FFC
0804
0804
0FFC
0804
0000
ENDCHAR

STARTCHAR cns3_2474
ENCODING 9332
SWIDTH 854 0
DWIDTH 16 0
BBX 16 18 0 -2
BITMAP
0000
0004
0004
7C84
4444
4424
4414
4504
4484
4444
4427
447C
7C04
4404
4004
0004
0004
0000
ENDCHAR

STARTCHAR cns3_2475
ENCODING 9333
SWIDTH 854 0
DWIDTH 16 0
BBX 16 18 0 -2
BITMAP
0000
0000
0080
7840
4820
4850
4840
4940
4944
4A44
4A42
4C42
7C41
4841
0042
0042
007C
0000
ENDCHAR

STARTCHAR cns3_2476
ENCODING 9334
SWIDTH 854 0
DWIDTH 16 0
BBX 16 18 0 -2
BITMAP
0000
01FE
0022
7C22
4422
45FF
4422
4422
4422
45FE
4422
7C20
4420
4020
0040
0040
0080
0000
ENDCHAR

STARTCHAR cns3_2477
ENCODING 9335
SWIDTH 854 0
DWIDTH 16 0
BBX 16 18 0 -2
BITMAP
0000
0002
03F2
7812
4812
4812
49F2
4912
4902
4A02
4BF2
4A12
7812
4812
0012
0012
00E2
0000
ENDCHAR

STARTCHAR cns3_2478
ENCODING 9336
SWIDTH 854 0
DWIDTH 16 0
BBX 16 18 0 -2
BITMAP
0000
0020
0020
7820
4BFE
4820
4820
4820
4820
4FFF
4820
4820
7850
4850
4088
0104
0603
0000
ENDCHAR

STARTCHAR cns3_2479
ENCODING 9337
SWIDTH 854 0
DWIDTH 16 0
BBX 16 18 0 -2
BITMAP
0000
0110
0110
7D10
4510
4510
4514
45FE
4510
4510
4510
4510
7D10
4511
4171
0191
061E
0000
ENDCHAR

STARTCHAR cns3_247A
ENCODING 9338
SWIDTH 854 0
DWIDTH 16 0
BBX 16 18 0 -2
BITMAP
0000
0000
0000
7902
4884
4A85
4A49
4A49
4A31
4A11
4A29
4A45
7A83
4A01
4201
03FF
0201
0000
ENDCHAR

STARTCHAR cns3_247B
ENCODING 9339
SWIDTH 854 0
DWIDTH 16 0
BBX 16 18 0 -2
BITMAP
0000
1FF8
1008
1008
1008
1FF8
1008
0000
1FF8
0080
0080
7FFE
0080
0140
0220
0C18
3006
0000
ENDCHAR

STARTCHAR cns3_247C
ENCODING 9340
SWIDTH 854 0
DWIDTH 16 0
BBX 16 18 0 -2
BITMAP
0000
0000
0FF8
0808
0808
0808
0FF8
0200
0400
07F8
0010
0020
7FFF
0000
0230
0C0C
3002
0000
ENDCHAR

STARTCHAR cns3_247D
ENCODING 9341
SWIDTH 854 0
DWIDTH 16 0
BBX 16 18 0 -2
BITMAP
0000
0010
0010
7810
4810
49FF
4911
4911
4911
4929
4945
4945
7983
4901
4101
0101
010E
0000
ENDCHAR

STARTCHAR cns3_247E
ENCODING 9342
SWIDTH 854 0
DWIDTH 16 0
BBX 16 18 0 -2
BITMAP
0000
0000
0100
0480
1444
2402
2402
4409
4408
07F0
0000
1FFC
1004
1004
1004
1FFC
1004
0000
ENDCHAR

STARTCHAR cns3_2521
ENCODING 9505
SWIDTH 854 0
DWIDTH 16 0
BBX 16 18 0 -2
BITMAP
0000
0080
0480
0880
1FFE
2080
0080
0080
7FFF
0080
0080
0FFC
0804
0804
0804
0804
0FFC
0000
ENDCHAR

STARTCHAR cns3_2522
ENCODING 9506
SWIDTH 854 0
DWIDTH 16 0
BBX 16 18 0 -2
BITMAP
0000
0000
00FC
3F80
0080
0080
7FFF
0120
0210
0408
0FFC
780B
0808
0808
0808
0808
0FF8
0000
ENDCHAR

STARTCHAR cns3_2523
ENCODING 9507
SWIDTH 854 0
DWIDTH 16 0
BBX 16 18 0 -2
BITMAP
0000
0000
0020
7C20
4440
4440
447F
4484
4484
4504
4448
4428
7C10
4410
4028
00C4
0303
0000
ENDCHAR

STARTCHAR cns3_2524
ENCODING 9508
SWIDTH 854 0
DWIDTH 16 0
BBX 16 18 0 -2
BITMAP
0000
0000
000F
0FF0
0800
0FFE
0802
0802
0FFE
0800
0800
0FFE
1402
1402
1402
2402
27FE
0000
ENDCHAR

STARTCHAR cns3_2525
ENCODING 9509
SWIDTH 854 0
DWIDTH 16 0
BBX 16 18 0 -2
BITMAP
0000
0000
0000
7FFF
4420
4420
4420
4440
47FC
4444
4444
4444
7C84
4484
4084
0FFF
0000
0000
ENDCHAR

STARTCHAR cns3_2526
ENCODING 9510
SWIDTH 854 0
DWIDTH 16 0
BBX 16 18 0 -2
BITMAP
0000
0000
7FFF
4001
4FF9
4001
4001
5FFD
4101
4101
4201
4221
4411
5FF9
4005
7FFF
4001
0000
ENDCHAR

STARTCHAR cns3_2527
ENCODING 9511
SWIDTH 854 0
DWIDTH 16 0
BBX 16 18 0 -2
BITMAP
0000
0000
7FFF
4221
4221
4FF9
4221
4221
4221
5FFD
4221
4221
4421
4421
4821
7FFF
4001
0000
ENDCHAR

STARTCHAR cns3_2528
ENCODING 9512
SWIDTH 854 0
DWIDTH 16 0
BBX 16 18 0 -2
BITMAP
0000
0000
7FFF
4111
5491
4A51
4521
4221
4141
4081
40C1
4121
4211
4409
5801
7FFF
4001
0000
ENDCHAR

STARTCHAR cns3_2529
ENCODING 9513
SWIDTH 854 0
DWIDTH 16 0
BBX 16 18 0 -2
BITMAP
0000
0000
7FFF
4001
5FFD
4081
4081
4081
4081
4FF9
4081
4081
4081
7FFF
4001
7FFF
4001
0000
ENDCHAR

STARTCHAR cns3_252A
ENCODING 9514
SWIDTH 854 0
DWIDTH 16 0
BBX 16 18 0 -2
BITMAP
0000
0000
7FFF
4001
4FF9
4001
4001
5FFF
4221
4221
4221
4423
4423
481D
4001
7FFF
4001
0000
ENDCHAR

STARTCHAR cns3_252B
ENCODING 9515
SWIDTH 854 0
DWIDTH 16 0
BBX 16 18 0 -2
BITMAP
0000
0000
0000
3FFE
2222
2222
2222
23E2
2222
2222
2222
23E2
2222
2222
2222
3FFE
2002
0000
ENDCHAR

STARTCHAR cns3_252C
ENCODING 9516
SWIDTH 854 0
DWIDTH 16 0
BBX 16 18 0 -2
BITMAP
0000
0000
7FFF
4081
4081
4081
4085
5F99
41A1
42C1
42A1
4491
4889
7087
4301
7FFF
4001
0000
ENDCHAR

STARTCHAR cns3_252D
ENCODING 9517
SWIDTH 854 0
DWIDTH 16 0
BBX 16 18 0 -2
BITMAP
0000
0000
1000
11FE
1102
1102
7D4A
1048
1048
1048
1048
1088
1E88
7109
0109
0209
040E
0000
ENDCHAR

STARTCHAR cns3_252E
ENCODING 9518
SWIDTH 854 0
DWIDTH 16 0
BBX 16 18 0 -2
BITMAP
0000
0000
1000
13FE
1044
1028
7C10
13FF
1022
1022
1024
1020
1E20
7020
0020
0020
01C0
0000
ENDCHAR

STARTCHAR cns3_252F
ENCODING 9519
SWIDTH 854 0
DWIDTH 16 0
BBX 16 18 0 -2
BITMAP
0000
0000
1000
10F8
1088
1089
7D09
1106
1200
13FE
1082
1082
1E44
7028
0018
0064
0383
0000
ENDCHAR

STARTCHAR cns3_2530
ENCODING 9520
SWIDTH 854 0
DWIDTH 16 0
BBX 16 18 0 -2
BITMAP
0000
0000
0020
1020
1020
1050
1088
7904
120B
1088
1088
1088
1488
1888
3108
4108
0208
0000
ENDCHAR

STARTCHAR cns3_2531
ENCODING 9521
SWIDTH 854 0
DWIDTH 16 0
BBX 16 18 0 -2
BITMAP
0000
0000
0FF8
0808
0808
0FF8
0808
0808
0FF8
0808
0080
0080
0080
1FFC
0080
0080
7FFF
0000
ENDCHAR

STARTCHAR cns3_2532
ENCODING 9522
SWIDTH 854 0
DWIDTH 16 0
BBX 16 18 0 -2
BITMAP
0000
0000
0410
0410
3FFE
0410
0410
7FFF
0410
0410
0890
0890
0080
1FFC
0080
0080
7FFF
0000
ENDCHAR

STARTCHAR cns3_2533
ENCODING 9523
SWIDTH 854 0
DWIDTH 16 0
BBX 16 18 0 -2
BITMAP
0000
0000
0000
0FF8
0000
3FFE
0220
0220
0220
0422
0422
08BC
1080
1FFC
0080
0080
7FFF
0000
ENDCHAR

STARTCHAR cns3_2534
ENCODING 9524
SWIDTH 854 0
DWIDTH 16 0
BBX 16 18 0 -2
BITMAP
0000
0000
1004
1084
1044
1024
7E14
1084
1044
1024
1007
103C
1DC4
7004
0004
0004
0004
0000
ENDCHAR

STARTCHAR cns3_2535
ENCODING 9525
SWIDTH 854 0
DWIDTH 16 0
BBX 16 18 0 -2
BITMAP
0000
0000
1020
1020
1020
17FF
7E84
1084
1084
1048
1048
1048
1E30
7030
0048
0184
0E03
0000
ENDCHAR

STARTCHAR cns3_2536
ENCODING 9526
SWIDTH 854 0
DWIDTH 16 0
BBX 16 18 0 -2
BITMAP
0000
0000
1000
13FE
1000
1000
7E00
13FF
1048
1048
1048
1048
1E88
7088
0109
0109
060E
0000
ENDCHAR

STARTCHAR cns3_2537
ENCODING 9527
SWIDTH 854 0
DWIDTH 16 0
BBX 16 18 0 -2
BITMAP
0000
0000
1000
17FF
1040
1040
10FC
7C84
1084
1084
1108
1108
17F8
1A08
6010
0010
07FF
0000
ENDCHAR

STARTCHAR cns3_2538
ENCODING 9528
SWIDTH 854 0
DWIDTH 16 0
BBX 16 18 0 -2
BITMAP
0000
0000
1020
1020
1020
13FC
1024
7E24
1024
13FF
1020
1020
1650
1888
6104
0202
0C01
0000
ENDCHAR

STARTCHAR cns3_2539
ENCODING 9529
SWIDTH 854 0
DWIDTH 16 0
BBX 16 18 0 -2
BITMAP
0000
0000
1110
1110
1110
1110
1110
7DDC
1110
1110
1110
1110
1510
1910
6151
0191
020E
0000
ENDCHAR

STARTCHAR cns3_253A
ENCODING 9530
SWIDTH 854 0
DWIDTH 16 0
BBX 16 18 0 -2
BITMAP
0000
0000
1018
11E0
1020
1020
103E
7DE0
1020
1020
103F
13E0
1420
1820
6021
0021
001E
0000
ENDCHAR

STARTCHAR cns3_253B
ENCODING 9531
SWIDTH 854 0
DWIDTH 16 0
BBX 16 18 0 -2
BITMAP
0000
0000
1040
1040
10FF
1080
1310
7C10
1010
11FF
1011
1011
1621
1821
6041
0041
018E
0000
ENDCHAR

STARTCHAR cns3_253C
ENCODING 9532
SWIDTH 854 0
DWIDTH 16 0
BBX 16 18 0 -2
BITMAP
0000
0000
1020
1020
1040
1040
10FF
7E84
1144
1044
1028
1028
1610
1830
6048
0084
0303
0000
ENDCHAR

STARTCHAR cns3_253D
ENCODING 9533
SWIDTH 854 0
DWIDTH 16 0
BBX 16 18 0 -2
BITMAP
0000
0000
1040
1040
107F
1081
7E81
1121
1221
1041
1049
1085
1EBD
71C3
0001
0001
001E
0000
ENDCHAR

STARTCHAR cns3_253E
ENCODING 9534
SWIDTH 854 0
DWIDTH 16 0
BBX 16 18 0 -2
BITMAP
0000
0000
1040
1040
10FF
1095
7D15
1125
1225
1049
1089
1111
1411
1821
6041
0081
031E
0000
ENDCHAR

STARTCHAR cns3_253F
ENCODING 9535
SWIDTH 854 0
DWIDTH 16 0
BBX 16 18 0 -2
BITMAP
0000
0000
1080
10BF
1101
1101
7E01
1241
1741
1081
1081
1D41
3121
43E1
0C11
0001
000E
0000
ENDCHAR

STARTCHAR cns3_2540
ENCODING 9536
SWIDTH 854 0
DWIDTH 16 0
BBX 16 18 0 -2
BITMAP
0000
0000
11FE
1100
1100
1100
7DFE
1142
1142
1142
1124
1124
1D28
7110
0228
0244
0483
0000
ENDCHAR

STARTCHAR cns3_2541
ENCODING 9537
SWIDTH 854 0
DWIDTH 16 0
BBX 16 18 0 -2
BITMAP
0000
0000
0080
0084
7E98
01E0
02A0
0490
1888
6086
0300
0080
0080
1FFE
0080
0080
7FFF
0000
ENDCHAR

STARTCHAR cns3_2542
ENCODING 9538
SWIDTH 854 0
DWIDTH 16 0
BBX 16 18 0 -2
BITMAP
0000
0000
001E
1FE0
1088
1088
1088
1084
2084
2082
4001
0080
0080
3FFE
0080
0080
7FFF
0000
ENDCHAR

STARTCHAR cns3_2543
ENCODING 9539
SWIDTH 854 0
DWIDTH 16 0
BBX 16 18 0 -2
BITMAP
0000
0000
0080
0080
7FFF
0080
1FFE
0000
7FFF
4001
4801
0860
0980
0E02
0802
0802
07FC
0000
ENDCHAR

STARTCHAR cns3_2544
ENCODING 9540
SWIDTH 854 0
DWIDTH 16 0
BBX 16 18 0 -2
BITMAP
0000
0000
0080
0080
7FFF
0080
3FFE
0000
7FFF
4001
4421
0420
0420
0421
0821
0821
301E
0000
ENDCHAR

STARTCHAR cns3_2545
ENCODING 9541
SWIDTH 854 0
DWIDTH 16 0
BBX 16 18 0 -2
BITMAP
0000
0000
0080
0080
7FFF
0080
3FFE
0000
3FFE
2082
2082
3FFE
2000
2000
2000
2000
4000
0000
ENDCHAR

STARTCHAR cns3_2546
ENCODING 9542
SWIDTH 854 0
DWIDTH 16 0
BBX 16 18 0 -2
BITMAP
0000
0000
0200
0408
0804
3FFE
0421
0422
181E
6200
17F8
0C10
0A20
3140
0080
0360
1C1E
0000
ENDCHAR

STARTCHAR cns3_2547
ENCODING 9543
SWIDTH 854 0
DWIDTH 16 0
BBX 16 18 0 -2
BITMAP
0000
0080
3FFC
0080
0080
3FFC
0080
0080
7FFE
0200
07F8
0808
1210
6120
00C0
0330
3C0E
0000
ENDCHAR

STARTCHAR cns3_2548
ENCODING 9544
SWIDTH 854 0
DWIDTH 16 0
BBX 16 18 0 -2
BITMAP
0000
0000
0100
0200
7FFF
4101
43FD
4405
4805
5C09
4309
40D1
4021
4041
4081
7FFF
4001
0000
ENDCHAR

STARTCHAR cns3_2549
ENCODING 9545
SWIDTH 854 0
DWIDTH 16 0
BBX 16 18 0 -2
BITMAP
0000
0000
0080
0100
7FFF
0220
0410
0808
13E6
6000
0000
1FF8
0200
0420
0410
09F8
3E04
0000
ENDCHAR

STARTCHAR cns3_254A
ENCODING 9546
SWIDTH 854 0
DWIDTH 16 0
BBX 16 18 0 -2
BITMAP
0000
0000
0080
0100
7FFF
0220
0410
0808
1084
6083
3FFE
01A0
0290
0C8C
3083
0080
0080
0000
ENDCHAR

STARTCHAR cns3_254B
ENCODING 9547
SWIDTH 854 0
DWIDTH 16 0
BBX 16 18 0 -2
BITMAP
0000
0000
0810
0810
08FE
7F00
1200
127C
1244
2444
2444
1444
0844
0C44
1285
2085
4106
0000
ENDCHAR

STARTCHAR cns3_254C
ENCODING 9548
SWIDTH 854 0
DWIDTH 16 0
BBX 16 18 0 -2
BITMAP
0000
0000
0824
0824
0824
7EFF
1224
1224
1224
2224
24FF
1424
0824
0C24
1244
2044
4084
0000
ENDCHAR

STARTCHAR cns3_254D
ENCODING 9549
SWIDTH 854 0
DWIDTH 16 0
BBX 16 18 0 -2
BITMAP
0000
0000
0820
0828
0824
7F22
13FF
1220
2220
2430
1430
1450
0850
0C91
1291
2111
420E
0000
ENDCHAR

STARTCHAR cns3_254E
ENCODING 9550
SWIDTH 854 0
DWIDTH 16 0
BBX 16 18 0 -2
BITMAP
0000
0000
0820
0820
0820
7EFC
1224
1224
2224
25FF
1420
1420
0850
1448
2284
4102
0601
0000
ENDCHAR

STARTCHAR cns3_254F
ENCODING 9551
SWIDTH 854 0
DWIDTH 16 0
BBX 16 18 0 -2
BITMAP
0000
0000
0820
0820
087F
7E41
1281
1301
227D
2401
1401
1405
0819
0CE1
1201
2101
401E
0000
ENDCHAR

STARTCHAR cns3_2550
ENCODING 9552
SWIDTH 854 0
DWIDTH 16 0
BBX 16 18 0 -2
BITMAP
0000
0000
0BFC
0884
0884
7E88
1288
12FE
22A2
24A2
14A2
1514
0914
0D08
1214
2222
44C1
0000
ENDCHAR

STARTCHAR cns3_2551
ENCODING 9553
SWIDTH 854 0
DWIDTH 16 0
BBX 16 18 0 -2
BITMAP
0000
0000
1FFE
1002
1002
1FFE
1002
1FFE
0080
0100
7FFF
0208
0610
01A0
0070
018C
1E03
0000
ENDCHAR

STARTCHAR cns3_2552
ENCODING 9554
SWIDTH 854 0
DWIDTH 16 0
BBX 16 18 0 -2
BITMAP
0000
0000
0800
08FE
0882
7E82
13FF
1282
2282
23FF
1482
1482
0882
0C82
1302
2102
420C
0000
ENDCHAR

STARTCHAR cns3_2553
ENCODING 9555
SWIDTH 854 0
DWIDTH 16 0
BBX 16 18 0 -2
BITMAP
0000
0000
0080
1082
1082
1FFE
0080
7FFF
0080
0100
7FFF
0208
0410
0F20
00E0
0318
3C06
0000
ENDCHAR

STARTCHAR cns3_2554
ENCODING 9556
SWIDTH 854 0
DWIDTH 16 0
BBX 16 18 0 -2
BITMAP
0000
0000
0800
09FE
0902
7F02
1302
1278
2248
2448
1448
1448
0848
1849
2489
4289
0106
0000
ENDCHAR

STARTCHAR cns3_2555
ENCODING 9557
SWIDTH 854 0
DWIDTH 16 0
BBX 16 18 0 -2
BITMAP
0000
0000
0810
0810
0810
7EFE
1292
1292
2292
2410
1438
1428
0828
0C49
1249
2089
410E
0000
ENDCHAR

STARTCHAR cns3_2556
ENCODING 9558
SWIDTH 854 0
DWIDTH 16 0
BBX 16 18 0 -2
BITMAP
0000
0000
0800
0BFF
0810
7E10
1230
1238
2254
2492
1511
1410
0810
0C10
1210
2010
4010
0000
ENDCHAR

STARTCHAR cns3_2557
ENCODING 9559
SWIDTH 854 0
DWIDTH 16 0
BBX 16 18 0 -2
BITMAP
0000
0000
083C
0BE0
0820
7E20
123E
13E0
2220
2420
543F
15E0
0820
0C20
1221
2121
401E
0000
ENDCHAR

STARTCHAR cns3_2558
ENCODING 9560
SWIDTH 854 0
DWIDTH 16 0
BBX 16 18 0 -2
BITMAP
0000
0000
0080
7FFF
0408
0210
0120
00C0
0330
0C0C
73E3
0040
0080
7FFF
0080
0080
0380
0000
ENDCHAR

STARTCHAR cns3_2559
ENCODING 9561
SWIDTH 854 0
DWIDTH 16 0
BBX 16 18 0 -2
BITMAP
0000
0000
0080
0080
7FFF
4001
4081
0080
1FFC
0008
0008
0010
1020
10C0
1300
2C00
43FF
0000
ENDCHAR

STARTCHAR cns3_255A
ENCODING 9562
SWIDTH 854 0
DWIDTH 16 0
BBX 16 18 0 -2
BITMAP
0000
0000
0080
0080
7FFF
4001
4081
0080
7FFF
0000
0410
0410
0410
0808
0808
1004
6003
0000
ENDCHAR

STARTCHAR cns3_255B
ENCODING 9563
SWIDTH 854 0
DWIDTH 16 0
BBX 16 18 0 -2
BITMAP
0000
0000
0080
0080
7FFF
4001
4221
0220
0410
0890
1108
6106
0210
0208
0438
07C4
1802
0000
ENDCHAR

STARTCHAR cns3_255C
ENCODING 9564
SWIDTH 854 0
DWIDTH 16 0
BBX 16 18 0 -2
BITMAP
0000
0000
0402
0402
0402
7FE2
109F
1082
1082
08A2
0912
0912
0502
0202
0602
0982
706C
0000
ENDCHAR

STARTCHAR cns3_255D
ENCODING 9565
SWIDTH 854 0
DWIDTH 16 0
BBX 16 18 0 -2
BITMAP
0000
0080
3FFE
0080
0080
3FFE
0100
0100
7FFF
0408
07FF
0808
1108
6088
0048
0008
00F0
0000
ENDCHAR

STARTCHAR cns3_255E
ENCODING 9566
SWIDTH 854 0
DWIDTH 16 0
BBX 16 18 0 -2
BITMAP
0000
0000
001C
01F2
1E06
218C
1088
1890
0410
7FFF
0010
0410
0210
0110
0010
0010
01E0
0000
ENDCHAR

STARTCHAR cns3_255F
ENCODING 9567
SWIDTH 854 0
DWIDTH 16 0
BBX 16 18 0 -2
BITMAP
0000
0000
00FE
7F10
0A10
0A10
0A10
0AFE
0A10
0A10
0A10
0A10
1210
12FE
2201
2201
43FE
0000
ENDCHAR

STARTCHAR cns3_2560
ENCODING 9568
SWIDTH 854 0
DWIDTH 16 0
BBX 16 18 0 -2
BITMAP
0000
0000
1010
1010
1010
55FF
5511
5511
5511
5511
5511
55FF
5511
5410
7C10
4410
0010
0000
ENDCHAR

STARTCHAR cns3_2561
ENCODING 9569
SWIDTH 854 0
DWIDTH 16 0
BBX 16 18 0 -2
BITMAP
0000
0000
107F
1041
5441
5441
547F
5441
5441
5441
547F
5441
5441
7C41
4481
4081
010E
0000
ENDCHAR

STARTCHAR cns3_2562
ENCODING 9570
SWIDTH 854 0
DWIDTH 16 0
BBX 16 18 0 -2
BITMAP
0000
0000
1000
1058
1448
5484
5484
5502
5601
55FC
5424
5424
5444
7C44
4484
4104
0238
0000
ENDCHAR

STARTCHAR cns3_2563
ENCODING 9571
SWIDTH 854 0
DWIDTH 16 0
BBX 16 18 0 -2
BITMAP
0000
0000
0100
4104
4104
7FFC
0000
7FFC
4104
4104
4104
7FFC
4004
4000
4001
4001
3FFE
0000
ENDCHAR

STARTCHAR cns3_2564
ENCODING 9572
SWIDTH 854 0
DWIDTH 16 0
BBX 16 18 0 -2
BITMAP
0000
0000
0080
2082
2082
3FFE
2102
0080
7FFF
0410
0410
0220
0140
0080
0360
0C18
7007
0000
ENDCHAR

STARTCHAR cns3_2565
ENCODING 9573
SWIDTH 854 0
DWIDTH 16 0
BBX 16 18 0 -2
BITMAP
0000
0000
1010
1010
1410
55FF
5484
5484
5484
5448
5448
5428
5410
7C30
4448
4084
0303
0000
ENDCHAR

STARTCHAR cns3_2566
ENCODING 9574
SWIDTH 854 0
DWIDTH 16 0
BBX 16 18 0 -2
BITMAP
0000
0000
1000
11FF
1500
5500
5500
55FE
5542
5522
5524
5514
5508
7D18
4624
4642
0481
0000
ENDCHAR

STARTCHAR cns3_2567
ENCODING 9575
SWIDTH 854 0
DWIDTH 16 0
BBX 16 18 0 -2
BITMAP
0000
0000
000C
1FF0
1000
1000
17FE
1000
17FC
1444
1444
1444
17FC
1404
2401
2401
43FE
0000
ENDCHAR

STARTCHAR cns3_2568
ENCODING 9576
SWIDTH 854 0
DWIDTH 16 0
BBX 16 18 0 -2
BITMAP
0000
0000
1000
1058
7C48
5484
5502
5601
55FC
5424
5424
5424
5424
5844
1044
1084
1138
0000
ENDCHAR

STARTCHAR cns3_2569
ENCODING 9577
SWIDTH 854 0
DWIDTH 16 0
BBX 16 18 0 -2
BITMAP
0000
0000
1020
1020
7C50
5488
5504
5603
5484
5484
5484
5484
5484
5C84
1104
1104
1204
0000
ENDCHAR

STARTCHAR cns3_256A
ENCODING 9578
SWIDTH 854 0
DWIDTH 16 0
BBX 16 18 0 -2
BITMAP
0000
0000
0080
0080
1FFA
0084
7FFF
0020
00C0
0340
1FFE
6442
0442
0442
0442
044C
0040
0000
ENDCHAR

STARTCHAR cns3_256B
ENCODING 9579
SWIDTH 854 0
DWIDTH 16 0
BBX 16 18 0 -2
BITMAP
0000
0000
001C
3FE0
2080
3FFF
2040
2041
2631
788E
0080
1FFE
1082
1082
109C
0080
0080
0000
ENDCHAR

STARTCHAR cns3_256C
ENCODING 9580
SWIDTH 854 0
DWIDTH 16 0
BBX 16 18 0 -2
BITMAP
0000
0000
0040
0040
1FFF
1090
1088
1084
1FFF
1080
1084
1048
2050
2030
40C9
4706
0000
0000
ENDCHAR

STARTCHAR cns3_256D
ENCODING 9581
SWIDTH 854 0
DWIDTH 16 0
BBX 16 18 0 -2
BITMAP
0000
0000
0040
0040
1FFF
1020
1020
1020
1020
13FE
1020
1020
1024
2022
2021
4FFF
0000
0000
ENDCHAR

STARTCHAR cns3_256E
ENCODING 9582
SWIDTH 854 0
DWIDTH 16 0
BBX 16 18 0 -2
BITMAP
0000
0040
0040
1FFF
1000
140E
17F0
1400
17FE
1402
1402
17FE
2402
2400
2800
4800
5000
0000
ENDCHAR

STARTCHAR cns3_256F
ENCODING 9583
SWIDTH 854 0
DWIDTH 16 0
BBX 16 18 0 -2
BITMAP
0000
0000
0100
0080
7FFF
0220
0410
09F8
3E04
0412
0410
7FFF
0410
0410
0810
0810
1010
0000
ENDCHAR

STARTCHAR cns3_2570
ENCODING 9584
SWIDTH 854 0
DWIDTH 16 0
BBX 16 18 0 -2
BITMAP
0000
0000
0040
7C40
0440
07FF
0440
3C40
2048
4088
7C90
4490
04A4
0522
0547
06F9
7800
0000
ENDCHAR

STARTCHAR cns3_2571
ENCODING 9585
SWIDTH 854 0
DWIDTH 16 0
BBX 16 18 0 -2
BITMAP
0000
0000
0040
7C40
04FF
0501
0622
3C22
2024
4020
7C20
4450
0450
0488
0488
0504
3A03
0000
ENDCHAR

STARTCHAR cns3_2572
ENCODING 9586
SWIDTH 854 0
DWIDTH 16 0
BBX 16 18 0 -2
BITMAP
0000
0000
0200
0202
0204
7FE8
10B0
1082
1084
0909
0932
0904
0608
0630
0900
10C0
603F
0000
ENDCHAR

STARTCHAR cns3_2573
ENCODING 9587
SWIDTH 854 0
DWIDTH 16 0
BBX 16 18 0 -2
BITMAP
0000
0000
0800
0840
0820
0C10
2C48
2A40
2A44
4844
4942
0942
0941
0A41
0A42
0842
083C
0000
ENDCHAR

STARTCHAR cns3_2574
ENCODING 9588
SWIDTH 854 0
DWIDTH 16 0
BBX 16 18 0 -2
BITMAP
0000
0000
0820
0828
0824
0C20
2AFF
2A20
4820
4830
0830
0850
0850
0850
0891
0891
090E
0000
ENDCHAR

STARTCHAR cns3_2575
ENCODING 9589
SWIDTH 854 0
DWIDTH 16 0
BBX 16 18 0 -2
BITMAP
0000
0000
0840
0840
08FF
0D00
2A00
2AFE
4800
49FE
0804
0808
0810
0821
0841
0881
087E
0000
ENDCHAR

STARTCHAR cns3_2576
ENCODING 9590
SWIDTH 854 0
DWIDTH 16 0
BBX 16 18 0 -2
BITMAP
0000
0000
0810
0810
0C28
0A44
2A82
2905
4A44
4844
0844
0844
0844
0844
0884
0884
0904
0000
ENDCHAR

STARTCHAR cns3_2577
ENCODING 9591
SWIDTH 854 0
DWIDTH 16 0
BBX 16 18 0 -2
BITMAP
0000
0000
0040
0040
1FFF
1100
1080
1040
1100
1108
1504
1503
2900
2900
2908
4108
40F8
0000
ENDCHAR

STARTCHAR cns3_2578
ENCODING 9592
SWIDTH 854 0
DWIDTH 16 0
BBX 16 18 0 -2
BITMAP
0000
0000
001C
1FE0
0080
0080
7FFF
0080
0080
0080
0080
0500
0484
1442
2409
4408
03F0
0000
ENDCHAR

STARTCHAR cns3_2579
ENCODING 9593
SWIDTH 854 0
DWIDTH 16 0
BBX 16 18 0 -2
BITMAP
0000
0000
0810
0810
0810
0DFF
2C20
2A20
4A3E
4822
0822
0842
0842
0882
0882
0902
0A3C
0000
ENDCHAR

STARTCHAR cns3_257A
ENCODING 9594
SWIDTH 854 0
DWIDTH 16 0
BBX 16 18 0 -2
BITMAP
0000
0000
0820
0820
0820
0BFE
2C00
2A00
4AF8
4888
0888
0888
0888
0889
0909
0909
0A06
0000
ENDCHAR

STARTCHAR cns3_257B
ENCODING 9595
SWIDTH 854 0
DWIDTH 16 0
BBX 16 18 0 -2
BITMAP
0000
0000
0810
0810
0810
0BFF
2C84
2A84
6884
4844
0848
0848
0828
0810
0828
0844
0983
0000
ENDCHAR

STARTCHAR cns3_257C
ENCODING 9596
SWIDTH 854 0
DWIDTH 16 0
BBX 16 18 0 -2
BITMAP
0000
0000
0800
09FF
0802
0804
2C28
2A10
4BFF
4812
0812
0810
0810
0810
0810
0810
08E0
0000
ENDCHAR

STARTCHAR cns3_257D
ENCODING 9597
SWIDTH 854 0
DWIDTH 16 0
BBX 16 18 0 -2
BITMAP
0000
0000
0800
08FC
0800
2C00
2A00
2AFE
4820
4820
4820
0844
0844
0882
088E
09F1
0B01
0000
ENDCHAR

STARTCHAR cns3_257E
ENCODING 9598
SWIDTH 854 0
DWIDTH 16 0
BBX 16 18 0 -2
BITMAP
0000
0000
0820
0828
0824
0C22
2A20
2BFF
2820
4820
4820
0850
0850
0888
0904
0A02
0C01
0000
ENDCHAR

STARTCHAR cns3_2621
ENCODING 9761
SWIDTH 854 0
DWIDTH 16 0
BBX 16 18 0 -2
BITMAP
0000
0000
0820
0820
0820
0C20
2BFF
2A20
2820
4820
4870
0850
0888
0888
0904
0A82
0C41
0000
ENDCHAR

STARTCHAR cns3_2622
ENCODING 9762
SWIDTH 854 0
DWIDTH 16 0
BBX 16 18 0 -2
BITMAP
0000
0000
0840
0840
0BFC
0C44
2C44
2A44
2A89
48A9
4926
0820
0BFE
0820
0820
0820
0820
0000
ENDCHAR

STARTCHAR cns3_2623
ENCODING 9763
SWIDTH 854 0
DWIDTH 16 0
BBX 16 18 0 -2
BITMAP
0000
0000
0800
080E
0BF0
0820
2C20
2A20
4A20
4820
0BFE
0820
0820
0820
0820
09FC
0800
0000
ENDCHAR

STARTCHAR cns3_2624
ENCODING 9764
SWIDTH 854 0
DWIDTH 16 0
BBX 16 18 0 -2
BITMAP
0000
0000
0800
0818
0848
0884
2D04
2A02
4A01
49FC
0824
0824
0844
0844
0884
0904
0A38
0000
ENDCHAR

STARTCHAR cns3_2625
ENCODING 9765
SWIDTH 854 0
DWIDTH 16 0
BBX 16 18 0 -2
BITMAP
0000
0000
0048
0044
7FFF
0040
0040
1E40
1244
1244
1228
1228
1E10
0030
00C9
0305
1C03
0000
ENDCHAR

STARTCHAR cns3_2626
ENCODING 9766
SWIDTH 854 0
DWIDTH 16 0
BBX 16 18 0 -2
BITMAP
0000
0000
0048
0044
0040
7FFF
0844
0844
1044
1248
2148
2F28
7090
07B0
7849
0085
0302
0000
ENDCHAR

STARTCHAR cns3_2627
ENCODING 9767
SWIDTH 854 0
DWIDTH 16 0
BBX 16 18 0 -2
BITMAP
0000
0000
0028
0024
0020
1FFF
1020
1020
1FA2
1222
1224
1228
2210
2230
2C49
4085
4102
0000
ENDCHAR

STARTCHAR cns3_2628
ENCODING 9768
SWIDTH 854 0
DWIDTH 16 0
BBX 16 18 0 -2
BITMAP
0000
0000
000E
1FF0
1000
1FFE
1002
1002
1FFE
1040
1040
1FFF
1050
1090
2088
2104
4603
0000
ENDCHAR

STARTCHAR cns3_2629
ENCODING 9769
SWIDTH 854 0
DWIDTH 16 0
BBX 16 18 0 -2
BITMAP
0000
0000
7F7F
0140
0140
0140
7F7F
4141
4141
4141
7F7F
0140
0140
0240
0240
0440
0840
0000
ENDCHAR

STARTCHAR cns3_262A
ENCODING 9770
SWIDTH 854 0
DWIDTH 16 0
BBX 16 18 0 -2
BITMAP
0000
0000
0800
0BFF
0810
7E10
0810
0810
0A10
0CFE
1810
6810
0810
0810
0810
0810
73FF
0000
ENDCHAR

STARTCHAR cns3_262B
ENCODING 9771
SWIDTH 854 0
DWIDTH 16 0
BBX 16 18 0 -2
BITMAP
0000
0000
1000
13FF
1088
7E88
1088
1088
11FF
1618
1828
7028
1048
1088
1308
1008
6070
0000
ENDCHAR

STARTCHAR cns3_262C
ENCODING 9772
SWIDTH 854 0
DWIDTH 16 0
BBX 16 18 0 -2
BITMAP
0000
0000
0820
0828
0824
7E22
09FF
0820
0820
0E20
1870
6850
0888
0888
0904
0A02
7401
0000
ENDCHAR

STARTCHAR cns3_262D
ENCODING 9773
SWIDTH 854 0
DWIDTH 16 0
BBX 16 18 0 -2
BITMAP
0000
0000
081C
0BE0
0820
7E20
083E
09E0
0820
0E20
183F
6BE0
0820
0820
0821
0821
701E
0000
ENDCHAR

STARTCHAR cns3_262E
ENCODING 9774
SWIDTH 854 0
DWIDTH 16 0
BBX 16 18 0 -2
BITMAP
0000
0000
0808
0888
0888
7E88
08FE
0880
0880
0E80
18FC
6884
0884
0884
0904
0904
7204
0000
ENDCHAR

STARTCHAR cns3_262F
ENCODING 9775
SWIDTH 854 0
DWIDTH 16 0
BBX 16 18 0 -2
BITMAP
0000
0000
0800
08C0
0830
7E08
0840
0840
0944
0F44
1942
6A42
0A41
0A41
0C42
0842
703C
0000
ENDCHAR

STARTCHAR cns3_2630
ENCODING 9776
SWIDTH 854 0
DWIDTH 16 0
BBX 16 18 0 -2
BITMAP
0000
0000
0810
0810
0810
7EFF
0820
0820
083E
0E22
1822
6822
0842
0842
0882
0882
713C
0000
ENDCHAR

STARTCHAR cns3_2631
ENCODING 9777
SWIDTH 854 0
DWIDTH 16 0
BBX 16 18 0 -2
BITMAP
0000
0000
0800
08FE
0882
7E82
0882
0882
08FE
0E90
1890
6888
0888
0884
0904
0902
7201
0000
ENDCHAR

STARTCHAR cns3_2632
ENCODING 9778
SWIDTH 854 0
DWIDTH 16 0
BBX 16 18 0 -2
BITMAP
0000
0000
09FE
0902
0902
7F02
093C
0900
09FE
0F22
1922
6914
0914
0908
0914
0922
7141
0000
ENDCHAR

STARTCHAR cns3_2633
ENCODING 9779
SWIDTH 854 0
DWIDTH 16 0
BBX 16 18 0 -2
BITMAP
0000
0000
1108
1108
1108
13DF
7D49
1149
1149
1549
1949
3149
5249
1256
1451
1441
683E
0000
ENDCHAR

STARTCHAR cns3_2634
ENCODING 9780
SWIDTH 854 0
DWIDTH 16 0
BBX 16 18 0 -2
BITMAP
0000
0000
1080
1080
17FF
1080
7E80
10FC
1084
1084
1D48
3128
5110
1228
1244
1482
7301
0000
ENDCHAR

STARTCHAR cns3_2635
ENCODING 9781
SWIDTH 854 0
DWIDTH 16 0
BBX 16 18 0 -2
BITMAP
0000
0000
100E
11F0
1010
1010
7C10
11FE
1010
1410
1810
33FF
5010
1010
1010
1010
71E0
0000
ENDCHAR

STARTCHAR cns3_2636
ENCODING 9782
SWIDTH 854 0
DWIDTH 16 0
BBX 16 18 0 -2
BITMAP
0000
0000
1004
1034
13C4
1084
7C84
1084
17FF
1084
1C84
3084
5084
1084
1104
1104
6204
0000
ENDCHAR

STARTCHAR cns3_2637
ENCODING 9783
SWIDTH 854 0
DWIDTH 16 0
BBX 16 18 0 -2
BITMAP
0000
0000
1040
1040
107F
1041
7C81
10A1
1121
1241
1C49
3085
50BD
11C3
1001
1001
701E
0000
ENDCHAR

STARTCHAR cns3_2638
ENCODING 9784
SWIDTH 854 0
DWIDTH 16 0
BBX 16 18 0 -2
BITMAP
0000
0000
1040
10BF
1081
1101
7D21
1241
1641
1181
1881
3141
5121
12E1
1711
1001
701E
0000
ENDCHAR

STARTCHAR cns3_2639
ENCODING 9785
SWIDTH 854 0
DWIDTH 16 0
BBX 16 18 0 -2
BITMAP
0000
0000
1010
1010
1028
1044
7C82
1101
1040
1430
1808
3004
5000
10C0
1030
1008
7004
0000
ENDCHAR

STARTCHAR cns3_263A
ENCODING 9786
SWIDTH 854 0
DWIDTH 16 0
BBX 16 18 0 -2
BITMAP
0000
0000
7F10
0810
0820
087F
0842
0882
7E82
0822
0822
0814
0814
0808
0818
0824
38C3
0000
ENDCHAR

STARTCHAR cns3_263B
ENCODING 9787
SWIDTH 854 0
DWIDTH 16 0
BBX 16 18 0 -2
BITMAP
0000
0000
0080
0080
7FFF
0208
0110
00A0
0358
7C47
0040
07FC
0040
0FFE
0040
0040
0040
0000
ENDCHAR

STARTCHAR cns3_263C
ENCODING 9788
SWIDTH 854 0
DWIDTH 16 0
BBX 16 18 0 -2
BITMAP
0000
0000
0040
7C40
4480
45FF
4500
4600
7CFC
4408
4410
4420
4440
7C81
4501
0101
00FE
0000
ENDCHAR

STARTCHAR cns3_263D
ENCODING 9789
SWIDTH 854 0
DWIDTH 16 0
BBX 16 18 0 -2
BITMAP
0000
0000
0004
7C04
4404
4404
45FF
4404
7C04
4484
4444
4444
4404
7C04
4404
0004
0038
0000
ENDCHAR

STARTCHAR cns3_263E
ENCODING 9790
SWIDTH 854 0
DWIDTH 16 0
BBX 16 18 0 -2
BITMAP
0000
0000
1FFC
1004
1FFC
1004
1FFC
0000
0000
7FFF
0220
0220
0220
0420
0420
0820
301F
0000
ENDCHAR

STARTCHAR cns3_263F
ENCODING 9791
SWIDTH 854 0
DWIDTH 16 0
BBX 16 18 0 -2
BITMAP
0000
0000
1FFC
1004
1004
1FFC
1004
1004
1FFC
0100
0100
01F8
0100
0100
0100
7FFF
0000
0000
ENDCHAR

STARTCHAR cns3_2640
ENCODING 9792
SWIDTH 854 0
DWIDTH 16 0
BBX 16 18 0 -2
BITMAP
0000
0000
1FFC
1004
1FFC
1004
1004
1FFC
0000
1FF8
0020
0040
7FFF
0080
0080
0080
0380
0000
ENDCHAR

STARTCHAR cns3_2641
ENCODING 9793
SWIDTH 854 0
DWIDTH 16 0
BBX 16 18 0 -2
BITMAP
0000
0000
0130
010C
3FFC
2104
2104
3FFC
2104
2104
3FFC
0088
0090
0060
01A1
0619
7807
0000
ENDCHAR

STARTCHAR cns3_2642
ENCODING 9794
SWIDTH 854 0
DWIDTH 16 0
BBX 16 18 0 -2
BITMAP
0000
0000
0800
09FE
0802
7F02
08FE
0882
0C80
1B00
29FF
2901
4801
0801
0801
0801
080E
0000
ENDCHAR

STARTCHAR cns3_2643
ENCODING 9795
SWIDTH 854 0
DWIDTH 16 0
BBX 16 18 0 -2
BITMAP
0000
0000
0810
0810
0810
7F10
0858
1858
1C54
2A94
2894
4912
4912
0A11
0810
0810
08E0
0000
ENDCHAR

STARTCHAR cns3_2644
ENCODING 9796
SWIDTH 854 0
DWIDTH 16 0
BBX 16 18 0 -2
BITMAP
0000
0000
0800
081E
09E0
7F20
0820
1C20
1A3F
1BE0
2820
2820
4820
0821
0821
0821
081E
0000
ENDCHAR

STARTCHAR cns3_2645
ENCODING 9797
SWIDTH 854 0
DWIDTH 16 0
BBX 16 18 0 -2
BITMAP
0000
0000
0800
0BFE
0822
7E22
09A2
1C62
1A22
2A22
2822
4842
4842
0842
0882
0882
091C
0000
ENDCHAR

STARTCHAR cns3_2646
ENCODING 9798
SWIDTH 854 0
DWIDTH 16 0
BBX 16 18 0 -2
BITMAP
0000
0000
0800
09FC
0824
7F24
0824
1C24
1A3C
2AE4
2A24
4824
4844
0844
0885
0885
0906
0000
ENDCHAR

STARTCHAR cns3_2647
ENCODING 9799
SWIDTH 854 0
DWIDTH 16 0
BBX 16 18 0 -2
BITMAP
0000
0000
1FFE
1002
1002
1FFE
1040
1040
1FFF
1060
10D0
1148
2244
2442
2841
5040
4040
0000
ENDCHAR

STARTCHAR cns3_2648
ENCODING 9800
SWIDTH 854 0
DWIDTH 16 0
BBX 16 18 0 -2
BITMAP
0000
0000
0803
081C
0870
7E10
0810
1C10
1BFF
2A10
2810
4810
4810
0810
0810
0810
0810
0000
ENDCHAR

STARTCHAR cns3_2649
ENCODING 9801
SWIDTH 854 0
DWIDTH 16 0
BBX 16 18 0 -2
BITMAP
0000
0000
0841
0849
0849
7F49
0849
0C49
1A49
1949
2849
2849
4849
0849
0881
0881
0901
0000
ENDCHAR

STARTCHAR cns3_264A
ENCODING 9802
SWIDTH 854 0
DWIDTH 16 0
BBX 16 18 0 -2
BITMAP
0000
0000
0200
07F8
0C10
1220
6140
00C0
0F38
7087
0080
7FFF
01A0
0690
188C
6083
0080
0000
ENDCHAR

STARTCHAR cns3_264B
ENCODING 9803
SWIDTH 854 0
DWIDTH 16 0
BBX 16 18 0 -2
BITMAP
0000
0000
0008
2108
1888
0048
0028
4208
3108
0088
004F
00F8
0708
1008
1008
2008
4008
0000
ENDCHAR

STARTCHAR cns3_264C
ENCODING 9804
SWIDTH 854 0
DWIDTH 16 0
BBX 16 18 0 -2
BITMAP
0000
0000
23FE
1004
0848
0030
4010
2008
17FF
0012
0812
1014
1010
2010
2010
4010
00E0
0000
ENDCHAR

STARTCHAR cns3_264D
ENCODING 9805
SWIDTH 854 0
DWIDTH 16 0
BBX 16 18 0 -2
BITMAP
0000
0000
2000
13FC
0844
0044
4044
2044
1044
0BFF
0044
1084
1084
2084
2104
4104
0FFF
0000
ENDCHAR

STARTCHAR cns3_264E
ENCODING 9806
SWIDTH 854 0
DWIDTH 16 0
BBX 16 18 0 -2
BITMAP
0000
0000
4000
27FF
1020
0020
43FE
2222
1222
0222
0222
0A22
1222
122C
2020
2020
4020
0000
ENDCHAR

STARTCHAR cns3_264F
ENCODING 9807
SWIDTH 854 0
DWIDTH 16 0
BBX 16 18 0 -2
BITMAP
0000
0000
0040
2050
184C
0042
07FF
4040
3040
0042
0844
1028
1030
2050
2089
4105
0602
0000
ENDCHAR

STARTCHAR cns3_2650
ENCODING 9808
SWIDTH 854 0
DWIDTH 16 0
BBX 16 18 0 -2
BITMAP
0000
0000
2040
1040
08FF
0081
0101
4201
34FD
0001
0801
100D
1071
2381
2001
4001
001E
0000
ENDCHAR

STARTCHAR cns3_2651
ENCODING 9809
SWIDTH 854 0
DWIDTH 16 0
BBX 16 18 0 -2
BITMAP
0000
0000
0010
2090
1890
0110
01FE
4210
3410
0010
07FF
1010
1010
2010
2010
4010
0010
0000
ENDCHAR

STARTCHAR cns3_2652
ENCODING 9810
SWIDTH 854 0
DWIDTH 16 0
BBX 16 18 0 -2
BITMAP
0000
0000
0040
2040
18FF
0081
0101
4141
3241
0041
0491
0889
1105
13FD
2003
4001
001E
0000
ENDCHAR

STARTCHAR cns3_2653
ENCODING 9811
SWIDTH 854 0
DWIDTH 16 0
BBX 16 18 0 -2
BITMAP
0000
0000
0020
2020
1850
0088
0104
4603
31FC
0000
0000
0BFE
1004
1008
2008
2010
4020
0000
ENDCHAR

STARTCHAR cns3_2654
ENCODING 9812
SWIDTH 854 0
DWIDTH 16 0
BBX 16 18 0 -2
BITMAP
0000
0000
0080
0080
7FFF
4081
4081
0082
7ECC
02D0
04A0
04A0
0890
1088
2086
4081
0300
0000
ENDCHAR

STARTCHAR cns3_2655
ENCODING 9813
SWIDTH 854 0
DWIDTH 16 0
BBX 16 18 0 -2
BITMAP
0000
0000
2082
2082
3FFE
2082
0000
0082
7E8C
0290
04E0
04A0
0890
1088
2084
4083
0300
0000
ENDCHAR

STARTCHAR cns3_2656
ENCODING 9814
SWIDTH 854 0
DWIDTH 16 0
BBX 16 18 0 -2
BITMAP
0000
0000
21FE
1102
0902
0102
4102
21FE
1122
0120
0120
0910
1210
1208
2408
4404
0803
0000
ENDCHAR

STARTCHAR cns3_2657
ENCODING 9815
SWIDTH 854 0
DWIDTH 16 0
BBX 16 18 0 -2
BITMAP
0000
0000
2000
1088
0C89
0451
4451
2421
1421
0451
0451
0C89
1505
1401
2401
47FF
0401
0000
ENDCHAR

STARTCHAR cns3_2658
ENCODING 9816
SWIDTH 854 0
DWIDTH 16 0
BBX 16 18 0 -2
BITMAP
0000
0000
0040
2040
1880
0080
41FF
2304
1504
0088
0088
0850
1020
1030
2048
4186
0601
0000
ENDCHAR

STARTCHAR cns3_2659
ENCODING 9817
SWIDTH 854 0
DWIDTH 16 0
BBX 16 18 0 -2
BITMAP
0000
0000
20F8
3088
1888
0089
4089
2707
1000
07FC
0084
0884
1048
2050
2030
40C8
0707
0000
ENDCHAR

STARTCHAR cns3_265A
ENCODING 9818
SWIDTH 854 0
DWIDTH 16 0
BBX 16 18 0 -2
BITMAP
0000
0000
0080
2080
1880
01FE
4122
2224
1228
0420
0020
0050
0850
1088
2104
4202
0C01
0000
ENDCHAR

STARTCHAR cns3_265B
ENCODING 9819
SWIDTH 854 0
DWIDTH 16 0
BBX 16 18 0 -2
BITMAP
0000
0000
2007
10FC
0884
0080
40FF
2081
1081
0081
00FF
0881
1080
1100
2100
4200
0400
0000
ENDCHAR

STARTCHAR cns3_265C
ENCODING 9820
SWIDTH 854 0
DWIDTH 16 0
BBX 16 18 0 -2
BITMAP
0000
0000
200E
13F8
0A48
0248
4248
2248
1248
0248
0248
0A44
1244
2444
4442
0842
0841
0000
ENDCHAR

STARTCHAR cns3_265D
ENCODING 9821
SWIDTH 854 0
DWIDTH 16 0
BBX 16 18 0 -2
BITMAP
0000
0000
2000
10B8
0888
0084
4084
2104
1122
0222
0041
0840
1088
2084
211E
41E2
0601
0000
ENDCHAR

STARTCHAR cns3_265E
ENCODING 9822
SWIDTH 854 0
DWIDTH 16 0
BBX 16 18 0 -2
BITMAP
0000
0000
0803
081C
09E0
2820
2920
2E20
483F
4BE0
0820
0820
0C20
0A21
1121
2021
401E
0000
ENDCHAR

STARTCHAR cns3_265F
ENCODING 9823
SWIDTH 854 0
DWIDTH 16 0
BBX 16 18 0 -2
BITMAP
0000
0000
0080
0482
0884
1088
2140
0230
0C1C
7413
0410
7FFF
0410
0410
0810
0810
1010
0000
ENDCHAR

STARTCHAR cns3_2660
ENCODING 9824
SWIDTH 854 0
DWIDTH 16 0
BBX 16 18 0 -2
BITMAP
0000
0000
0080
0080
7FFF
4001
4001
0080
0882
088C
1090
2140
0140
0220
0410
0808
7007
0000
ENDCHAR

STARTCHAR cns3_2661
ENCODING 9825
SWIDTH 854 0
DWIDTH 16 0
BBX 16 18 0 -2
BITMAP
0000
0000
0810
0810
0820
297F
2A41
2C81
4942
4832
080C
0804
1408
1210
2120
20C0
4300
0000
ENDCHAR

STARTCHAR cns3_2662
ENCODING 9826
SWIDTH 854 0
DWIDTH 16 0
BBX 16 18 0 -2
BITMAP
0000
0000
1FFC
0004
7FFF
0004
1FFC
0000
0080
0882
0884
1098
1140
0140
0220
0410
180E
0000
ENDCHAR

STARTCHAR cns3_2663
ENCODING 9827
SWIDTH 854 0
DWIDTH 16 0
BBX 16 18 0 -2
BITMAP
0000
0000
0080
0080
1FFC
0080
0080
7FFF
0080
0880
0882
1084
1148
0120
0210
0408
3807
0000
ENDCHAR

STARTCHAR cns3_2664
ENCODING 9828
SWIDTH 854 0
DWIDTH 16 0
BBX 16 18 0 -2
BITMAP
0000
0000
0820
2810
2808
48FF
7F80
4880
0880
0B80
1C80
6880
0880
0880
0880
0880
087F
0000
ENDCHAR

STARTCHAR cns3_2665
ENCODING 9829
SWIDTH 854 0
DWIDTH 16 0
BBX 16 18 0 -2
BITMAP
0000
0000
0800
28FE
2810
4810
7E10
4810
09FF
0A10
1C10
6810
0810
0810
0810
0810
0810
0000
ENDCHAR

STARTCHAR cns3_2666
ENCODING 9830
SWIDTH 854 0
DWIDTH 16 0
BBX 16 18 0 -2
BITMAP
0000
0000
2010
2210
15FF
1810
6810
04FE
0492
0C92
1492
2492
4492
0492
0496
0810
3010
0000
ENDCHAR

STARTCHAR cns3_2667
ENCODING 9831
SWIDTH 854 0
DWIDTH 16 0
BBX 16 18 0 -2
BITMAP
0000
0000
2208
15E8
0828
1848
2888
4858
0C68
08C8
1948
2848
4848
0849
0849
0849
3B8E
0000
ENDCHAR

STARTCHAR cns3_2668
ENCODING 9832
SWIDTH 854 0
DWIDTH 16 0
BBX 16 18 0 -2
BITMAP
0000
0000
2020
1420
0820
1020
2BFF
4830
0868
0CA8
18A4
2924
4922
0A22
0821
0820
3820
0000
ENDCHAR

STARTCHAR cns3_2669
ENCODING 9833
SWIDTH 854 0
DWIDTH 16 0
BBX 16 18 0 -2
BITMAP
0000
0000
2220
1428
0824
1020
6BFF
0820
0620
0C20
1420
2450
4450
0451
0491
0491
390E
0000
ENDCHAR

STARTCHAR cns3_266A
ENCODING 9834
SWIDTH 854 0
DWIDTH 16 0
BBX 16 18 0 -2
BITMAP
0000
0000
2220
1428
0824
1822
2820
4BFF
0420
0C20
1450
2450
4488
0488
0504
0504
3A03
0000
ENDCHAR

STARTCHAR cns3_266B
ENCODING 9835
SWIDTH 854 0
DWIDTH 16 0
BBX 16 18 0 -2
BITMAP
0000
0000
0420
0428
0424
6422
1420
0DFE
0420
0420
0C50
3450
4488
0488
0504
0504
0603
0000
ENDCHAR

STARTCHAR cns3_266C
ENCODING 9836
SWIDTH 854 0
DWIDTH 16 0
BBX 16 18 0 -2
BITMAP
0000
0000
2010
1413
181C
31F0
4810
0892
0C92
0892
1492
24FE
6492
0410
0411
0411
380E
0000
ENDCHAR

STARTCHAR cns3_266D
ENCODING 9837
SWIDTH 854 0
DWIDTH 16 0
BBX 16 18 0 -2
BITMAP
0000
0000
2006
14F8
1880
2880
4880
04FF
0488
0C88
1488
2488
4488
0488
0508
0508
3A08
0000
ENDCHAR

STARTCHAR cns3_266E
ENCODING 9838
SWIDTH 854 0
DWIDTH 16 0
BBX 16 18 0 -2
BITMAP
0000
0000
007E
3E02
0802
0802
0802
0802
3E7E
0840
0840
0840
0B40
1C41
6041
0041
003E
0000
ENDCHAR

STARTCHAR cns3_266F
ENCODING 9839
SWIDTH 854 0
DWIDTH 16 0
BBX 16 18 0 -2
BITMAP
0000
0000
0000
3EFF
0802
0804
0828
3E10
09FF
0810
0810
0B10
1C10
6010
0010
0010
00E0
0000
ENDCHAR

STARTCHAR cns3_2670
ENCODING 9840
SWIDTH 854 0
DWIDTH 16 0
BBX 16 18 0 -2
BITMAP
0000
0000
007E
7F00
0800
0800
09FF
0810
7F20
083E
0842
0802
0802
0B02
1C02
6002
001C
0000
ENDCHAR

STARTCHAR cns3_2671
ENCODING 9841
SWIDTH 854 0
DWIDTH 16 0
BBX 16 18 0 -2
BITMAP
0000
0000
01FC
7E24
0824
0924
08A4
0864
3E34
082C
0824
0844
0B44
1C45
6085
0083
0100
0000
ENDCHAR

STARTCHAR cns3_2672
ENCODING 9842
SWIDTH 854 0
DWIDTH 16 0
BBX 16 18 0 -2
BITMAP
0000
0000
0010
7F10
4910
4910
4910
4910
7F10
4938
4928
4928
4944
7F44
0082
0082
0301
0000
ENDCHAR

STARTCHAR cns3_2673
ENCODING 9843
SWIDTH 854 0
DWIDTH 16 0
BBX 16 18 0 -2
BITMAP
0000
0000
0020
0020
0FFF
4800
2BF8
2888
1888
0890
189F
2891
4901
0901
1201
1401
201E
0000
ENDCHAR

STARTCHAR cns3_2674
ENCODING 9844
SWIDTH 854 0
DWIDTH 16 0
BBX 16 18 0 -2
BITMAP
0000
0000
0100
0200
7FFC
4004
7FFC
4004
4004
7FFC
5004
1000
10E0
1300
1C01
1001
1FFE
0000
ENDCHAR

STARTCHAR cns3_2675
ENCODING 9845
SWIDTH 854 0
DWIDTH 16 0
BBX 16 18 0 -2
BITMAP
0000
0000
0080
3FFC
2004
2004
3FFC
2004
2004
3FFC
0200
0200
0400
0408
0804
09FE
7E02
0000
ENDCHAR

STARTCHAR cns3_2676
ENCODING 9846
SWIDTH 854 0
DWIDTH 16 0
BBX 16 18 0 -2
BITMAP
0000
0000
0080
3FFC
2004
2004
3FFC
2004
2004
3FFC
2224
0220
0220
0421
0421
0821
301E
0000
ENDCHAR

STARTCHAR cns3_2677
ENCODING 9847
SWIDTH 854 0
DWIDTH 16 0
BBX 16 18 0 -2
BITMAP
0000
0000
0080
0080
0080
00C0
00B0
0088
0080
0080
0000
1FFE
1122
1122
1122
7FFF
0000
0000
ENDCHAR

STARTCHAR cns3_2678
ENCODING 9848
SWIDTH 854 0
DWIDTH 16 0
BBX 16 18 0 -2
BITMAP
0000
0000
0000
3FF0
0210
023E
0422
0402
0802
101C
2000
1FFC
1124
1124
1124
7FFF
0000
0000
ENDCHAR

STARTCHAR cns3_2679
ENCODING 9849
SWIDTH 854 0
DWIDTH 16 0
BBX 16 18 0 -2
BITMAP
0000
0000
03FF
7C40
4440
4480
7C80
44FE
4502
4502
7C02
4402
4402
7C02
4402
4402
003C
0000
ENDCHAR

STARTCHAR cns3_267A
ENCODING 9850
SWIDTH 854 0
DWIDTH 16 0
BBX 16 18 0 -2
BITMAP
0000
0000
0040
7F40
0840
1042
104C
2070
3F40
5140
1140
1140
1140
1F41
1141
1141
103E
0000
ENDCHAR

STARTCHAR cns3_267B
ENCODING 9851
SWIDTH 854 0
DWIDTH 16 0
BBX 16 18 0 -2
BITMAP
0000
0000
00FF
7F08
0808
1008
1008
3F08
3108
5108
5108
1108
1108
1F08
1108
1008
1070
0000
ENDCHAR

STARTCHAR cns3_267C
ENCODING 9852
SWIDTH 854 0
DWIDTH 16 0
BBX 16 18 0 -2
BITMAP
0000
0000
0001
3FC1
0809
0809
1009
1F89
3089
3089
5089
1089
1089
1F89
1081
1001
000E
0000
ENDCHAR

STARTCHAR cns3_267D
ENCODING 9853
SWIDTH 854 0
DWIDTH 16 0
BBX 16 18 0 -2
BITMAP
0000
0000
0300
7CFE
0842
0844
7F48
085F
1C51
1A41
2941
2841
4881
0881
0901
0901
0A1E
0000
ENDCHAR

STARTCHAR cns3_267E
ENCODING 9854
SWIDTH 854 0
DWIDTH 16 0
BBX 16 18 0 -2
BITMAP
0000
0000
0800
047C
0244
7FC4
0044
0244
2244
2244
2244
1244
1284
1484
1705
1D05
6206
0000
ENDCHAR

STARTCHAR cns3_2721
ENCODING 10017
SWIDTH 854 0
DWIDTH 16 0
BBX 16 18 0 -2
BITMAP
0000
0000
0810
0810
0810
7F90
0010
02FE
2210
2210
2210
2210
1410
1410
1710
1810
6010
0000
ENDCHAR

STARTCHAR cns3_2722
ENCODING 10018
SWIDTH 854 0
DWIDTH 16 0
BBX 16 18 0 -2
BITMAP
0000
0000
0840
1040
1040
2240
6440
1840
0A40
1E40
6140
0040
1440
2A41
2A41
2841
003E
0000
ENDCHAR

STARTCHAR cns3_2723
ENCODING 10019
SWIDTH 854 0
DWIDTH 16 0
BBX 16 18 0 -2
BITMAP
0000
0000
3E00
22FE
2200
3200
2BFF
2620
2220
2240
26FE
3A82
2202
2202
2202
4202
4E1C
0000
ENDCHAR

STARTCHAR cns3_2724
ENCODING 10020
SWIDTH 854 0
DWIDTH 16 0
BBX 16 18 0 -2
BITMAP
0000
0000
3E40
2240
2280
32FF
2A81
2701
2341
2241
2621
3A11
2201
2201
2201
6201
5E1E
0000
ENDCHAR

STARTCHAR cns3_2725
ENCODING 10021
SWIDTH 854 0
DWIDTH 16 0
BBX 16 18 0 -2
BITMAP
0000
0000
3E20
2220
2220
33FF
2A44
2644
2244
2284
2E88
3248
2230
2218
2224
4242
4D81
0000
ENDCHAR

STARTCHAR cns3_2726
ENCODING 10022
SWIDTH 854 0
DWIDTH 16 0
BBX 16 18 0 -2
BITMAP
0000
0000
3E10
2290
2290
3290
2A9E
26F2
2394
2294
2E90
3290
2291
2291
2281
4281
5C7E
0000
ENDCHAR

STARTCHAR cns3_2727
ENCODING 10023
SWIDTH 854 0
DWIDTH 16 0
BBX 16 18 0 -2
BITMAP
0000
0000
0810
7F7F
0810
0810
0080
0080
0080
0888
0888
1084
2082
4081
0080
0080
0700
0000
ENDCHAR

STARTCHAR cns3_2728
ENCODING 10024
SWIDTH 854 0
DWIDTH 16 0
BBX 16 18 0 -2
BITMAP
0000
0000
0810
7F7F
0810
0810
0808
0508
0488
0450
0210
0120
00C0
00C0
0330
1C0C
6003
0000
ENDCHAR

STARTCHAR cns3_2729
ENCODING 10025
SWIDTH 854 0
DWIDTH 16 0
BBX 16 18 0 -2
BITMAP
0000
0000
0810
7F7E
0810
0000
0FFC
0000
0000
7FFF
0800
0FFC
1004
1004
0004
0004
0038
0000
ENDCHAR

STARTCHAR cns3_272A
ENCODING 10026
SWIDTH 854 0
DWIDTH 16 0
BBX 16 18 0 -2
BITMAP
0000
0000
0808
7F7F
0808
0000
7FFC
0004
2004
2004
3FFC
2004
2000
2002
2002
2002
1FFC
0000
ENDCHAR

STARTCHAR cns3_272B
ENCODING 10027
SWIDTH 854 0
DWIDTH 16 0
BBX 16 18 0 -2
BITMAP
0000
0000
0808
7F7F
0808
0888
0080
01FE
0204
0404
0B08
30C8
0010
0020
00C0
0300
3C00
0000
ENDCHAR

STARTCHAR cns3_272C
ENCODING 10028
SWIDTH 854 0
DWIDTH 16 0
BBX 16 18 0 -2
BITMAP
0000
0000
0808
0808
7F7F
0808
0100
0200
07F8
0810
1210
6120
00C0
0180
0660
1818
6007
0000
ENDCHAR

STARTCHAR cns3_272D
ENCODING 10029
SWIDTH 854 0
DWIDTH 16 0
BBX 16 18 0 -2
BITMAP
0000
0000
0840
0840
0840
0840
7F40
4940
4940
4940
4940
7F40
4840
0A41
0B41
1D41
603E
0000
ENDCHAR

STARTCHAR cns3_272E
ENCODING 10030
SWIDTH 854 0
DWIDTH 16 0
BBX 16 18 0 -2
BITMAP
0000
0000
0006
00F8
7F80
0080
3FFC
2084
2084
2084
3FFC
2084
0088
0084
00BE
0FC2
7001
0000
ENDCHAR

STARTCHAR cns3_272F
ENCODING 10031
SWIDTH 854 0
DWIDTH 16 0
BBX 16 18 0 -2
BITMAP
0000
0000
0040
0090
0320
1CC4
0308
1C30
01C0
1E80
0080
0480
04FC
0880
0C80
1283
61FC
0000
ENDCHAR

STARTCHAR cns3_2730
ENCODING 10032
SWIDTH 854 0
DWIDTH 16 0
BBX 16 18 0 -2
BITMAP
0000
0000
2020
1020
1020
07FF
0020
7820
0850
1050
2088
1888
0904
1104
1202
2801
47FE
0000
ENDCHAR

STARTCHAR cns3_2731
ENCODING 10033
SWIDTH 854 0
DWIDTH 16 0
BBX 16 18 0 -2
BITMAP
0000
0000
2004
1004
1004
01FF
0004
7804
0904
0884
1044
2044
2004
1004
1038
2E01
41FE
0000
ENDCHAR

STARTCHAR cns3_2732
ENCODING 10034
SWIDTH 854 0
DWIDTH 16 0
BBX 16 18 0 -2
BITMAP
0000
0000
2000
11FE
1004
0008
0010
7810
11FF
2010
4010
3810
1010
2010
40E0
3800
47FF
8000
ENDCHAR

STARTCHAR cns3_2733
ENCODING 10035
SWIDTH 854 0
DWIDTH 16 0
BBX 16 18 0 -2
BITMAP
0000
0000
2000
100E
11F0
0010
0010
7810
0BFF
0810
1010
2010
3810
0810
1010
2C01
43FE
0000
ENDCHAR

STARTCHAR cns3_2734
ENCODING 10036
SWIDTH 854 0
DWIDTH 16 0
BBX 16 18 0 -2
BITMAP
0000
0000
041F
0411
0411
2452
2452
2494
4514
4412
4412
0E11
0A11
1116
1110
2090
4070
0000
ENDCHAR

STARTCHAR cns3_2735
ENCODING 10037
SWIDTH 854 0
DWIDTH 16 0
BBX 16 18 0 -2
BITMAP
0000
0000
00C0
3F1F
2011
2011
2012
3FD4
2214
2212
2211
2211
2211
2216
2210
4210
4210
0000
ENDCHAR

STARTCHAR cns3_2736
ENCODING 10038
SWIDTH 854 0
DWIDTH 16 0
BBX 16 18 0 -2
BITMAP
0000
0000
001E
3FD2
0012
0012
0012
7FF4
0414
0412
0912
0891
0891
1056
17D0
7830
0030
0000
ENDCHAR

STARTCHAR cns3_2737
ENCODING 10039
SWIDTH 854 0
DWIDTH 16 0
BBX 16 18 0 -2
BITMAP
0000
0000
0200
021F
0211
3FD1
0212
0614
0614
0B12
1292
2291
4251
0236
0210
0210
0210
0000
ENDCHAR

STARTCHAR cns3_2738
ENCODING 10040
SWIDTH 854 0
DWIDTH 16 0
BBX 16 18 0 -2
BITMAP
0000
0000
3F9F
2091
2891
2492
2292
2094
23D4
7C92
2092
2091
2091
2096
2090
2090
4310
0000
ENDCHAR

STARTCHAR cns3_2739
ENCODING 10041
SWIDTH 854 0
DWIDTH 16 0
BBX 16 18 0 -2
BITMAP
0000
0000
041F
04D1
0F11
7412
2492
2494
2494
2492
2492
2491
3F91
2496
0450
0450
0390
0000
ENDCHAR

STARTCHAR cns3_273A
ENCODING 10042
SWIDTH 854 0
DWIDTH 16 0
BBX 16 18 0 -2
BITMAP
0000
0000
0008
7C88
4448
4448
4828
4908
5088
4848
480F
4478
4788
4408
5808
4008
4008
0000
ENDCHAR

STARTCHAR cns3_273B
ENCODING 10043
SWIDTH 854 0
DWIDTH 16 0
BBX 16 18 0 -2
BITMAP
0000
0000
7C20
4420
4422
4822
48A2
50A4
50A8
4920
4920
4420
4450
4488
7904
4202
4401
0000
ENDCHAR

STARTCHAR cns3_273C
ENCODING 10044
SWIDTH 854 0
DWIDTH 16 0
BBX 16 18 0 -2
BITMAP
0000
0000
7C00
47FF
4410
4830
4850
5058
5094
4892
4911
4410
4410
4410
7810
4010
4010
0000
ENDCHAR

STARTCHAR cns3_273D
ENCODING 10045
SWIDTH 854 0
DWIDTH 16 0
BBX 16 18 0 -2
BITMAP
0000
0000
7E00
42FE
4282
4482
4482
4882
48FE
4482
4482
4282
4282
4282
5CFE
4082
4082
0000
ENDCHAR

STARTCHAR cns3_273E
ENCODING 10046
SWIDTH 854 0
DWIDTH 16 0
BBX 16 18 0 -2
BITMAP
0000
0000
7EFF
4281
4281
4481
44FF
4881
4881
4481
44FF
4281
4281
4281
5D01
4101
420E
0000
ENDCHAR

STARTCHAR cns3_273F
ENCODING 10047
SWIDTH 854 0
DWIDTH 16 0
BBX 16 18 0 -2
BITMAP
0000
0000
7C04
4434
45C4
4844
4844
5044
51FF
4844
4844
4444
4484
4484
7904
4104
4204
0000
ENDCHAR

STARTCHAR cns3_2740
ENCODING 10048
SWIDTH 854 0
DWIDTH 16 0
BBX 16 18 0 -2
BITMAP
0000
0000
7F7F
0000
0000
3E3E
2222
2222
323A
2A26
2622
2222
2222
2222
2222
2222
2E2E
0000
ENDCHAR

STARTCHAR cns3_2741
ENCODING 10049
SWIDTH 854 0
DWIDTH 16 0
BBX 16 18 0 -2
BITMAP
0000
0000
7F7F
0101
2222
1414
0C08
0404
7F7F
0909
0A0A
0808
0808
0808
0808
0808
3838
0000
ENDCHAR

STARTCHAR cns3_2742
ENCODING 10050
SWIDTH 854 0
DWIDTH 16 0
BBX 16 18 0 -2
BITMAP
0000
0000
0100
0200
0200
0430
1FC8
0810
1010
1222
2F7F
7101
0000
3FFE
0000
0000
7FFF
0000
ENDCHAR

STARTCHAR cns3_2743
ENCODING 10051
SWIDTH 854 0
DWIDTH 16 0
BBX 16 18 0 -2
BITMAP
0000
0000
0420
0420
09FE
0822
1022
1BFF
2822
29FE
4820
09FE
0820
0BFF
0820
0820
0820
0000
ENDCHAR

STARTCHAR cns3_2744
ENCODING 10052
SWIDTH 854 0
DWIDTH 16 0
BBX 16 18 0 -2
BITMAP
0000
0000
0420
0422
0522
0924
08A4
1020
1BFF
2850
4850
0850
0850
0850
0891
0891
0B0F
0000
ENDCHAR

STARTCHAR cns3_2745
ENCODING 10053
SWIDTH 854 0
DWIDTH 16 0
BBX 16 18 0 -2
BITMAP
0000
0000
0420
042E
09F0
0820
1020
1BFE
2820
2820
4FFF
0870
08A8
08A4
0922
0E21
0820
0000
ENDCHAR

STARTCHAR cns3_2746
ENCODING 10054
SWIDTH 854 0
DWIDTH 16 0
BBX 16 18 0 -2
BITMAP
0000
0000
0400
07FC
0A04
0BFC
1224
1244
22F4
3314
5294
1254
1224
1225
1445
1447
1880
0000
ENDCHAR

STARTCHAR cns3_2747
ENCODING 10055
SWIDTH 854 0
DWIDTH 16 0
BBX 16 18 0 -2
BITMAP
0000
0000
0440
047E
0484
0944
0E28
1850
198C
2E03
48FE
0890
0890
0BFF
0810
0810
0810
0000
ENDCHAR

STARTCHAR cns3_2748
ENCODING 10056
SWIDTH 854 0
DWIDTH 16 0
BBX 16 18 0 -2
BITMAP
0000
0000
0420
0622
0522
08A4
08A4
1BFF
1830
2828
4868
08A4
0924
0A22
0821
0820
0820
0000
ENDCHAR

STARTCHAR cns3_2749
ENCODING 10057
SWIDTH 854 0
DWIDTH 16 0
BBX 16 18 0 -2
BITMAP
0000
0000
0420
0420
0420
0BFF
0922
1124
10A4
30A8
57FF
1020
1050
1088
1104
1202
1401
0000
ENDCHAR

STARTCHAR cns3_274A
ENCODING 10058
SWIDTH 854 0
DWIDTH 16 0
BBX 16 18 0 -2
BITMAP
0000
0000
0800
0BFE
1020
11FE
2122
2122
51FE
5122
1122
17FF
1102
1102
1102
1102
110C
0000
ENDCHAR

STARTCHAR cns3_274B
ENCODING 10059
SWIDTH 854 0
DWIDTH 16 0
BBX 16 18 0 -2
BITMAP
0000
0000
0400
07FF
0448
0848
0BFF
1249
1A49
2A49
4A49
0A49
0A49
0A49
0A49
0BFF
0A01
0000
ENDCHAR

STARTCHAR cns3_274C
ENCODING 10060
SWIDTH 854 0
DWIDTH 16 0
BBX 16 18 0 -2
BITMAP
0000
0000
0420
0420
07FF
0820
0840
107E
1882
2914
4A88
0CFF
0888
0888
0888
0888
08B0
0000
ENDCHAR

STARTCHAR cns3_274D
ENCODING 10061
SWIDTH 854 0
DWIDTH 16 0
BBX 16 18 0 -2
BITMAP
0000
0000
0400
04FE
0882
0882
1082
18FE
2800
2800
4800
09FF
0901
0901
0901
09FF
0901
0000
ENDCHAR

STARTCHAR cns3_274E
ENCODING 10062
SWIDTH 854 0
DWIDTH 16 0
BBX 16 18 0 -2
BITMAP
0000
0000
0400
05FE
0902
0902
1102
1902
29FE
4881
0911
0922
0A44
0C88
0A44
0922
0899
0000
ENDCHAR

STARTCHAR cns3_274F
ENCODING 10063
SWIDTH 854 0
DWIDTH 16 0
BBX 16 18 0 -2
BITMAP
0000
0000
0210
0210
043F
0442
0882
13C4
1838
2830
48C0
09FF
0A81
0881
0881
08FF
0881
0000
ENDCHAR

STARTCHAR cns3_2750
ENCODING 10064
SWIDTH 854 0
DWIDTH 16 0
BBX 16 18 0 -2
BITMAP
0000
0000
0410
0420
09FF
0901
1101
1901
29FF
2901
4901
09FF
0901
0901
0901
09FF
0901
0000
ENDCHAR

STARTCHAR cns3_2751
ENCODING 10065
SWIDTH 854 0
DWIDTH 16 0
BBX 16 18 0 -2
BITMAP
0000
0080
0080
0360
0C18
33E6
0000
07F8
0010
0020
1FFE
0000
7FFF
0110
0208
04F8
1F04
0000
ENDCHAR

STARTCHAR cns3_2752
ENCODING 10066
SWIDTH 854 0
DWIDTH 16 0
BBX 16 18 0 -2
BITMAP
0000
0100
0180
0080
7FFF
0408
0904
1212
6409
09FC
3E22
0220
0220
0221
0421
0421
381E
0000
ENDCHAR

STARTCHAR cns3_2753
ENCODING 10067
SWIDTH 854 0
DWIDTH 16 0
BBX 16 18 0 -2
BITMAP
0000
0000
1FFC
0104
0104
0204
0C38
0000
3FFE
2082
2082
3FFE
0190
0289
0485
1881
607E
0000
ENDCHAR

STARTCHAR cns3_2754
ENCODING 10068
SWIDTH 854 0
DWIDTH 16 0
BBX 16 18 0 -2
BITMAP
0000
0000
0FFC
0804
0FFC
0804
0FFC
0804
0804
0FFC
0804
0000
7FFF
0220
0410
080C
3003
0000
ENDCHAR

STARTCHAR cns3_2755
ENCODING 10069
SWIDTH 854 0
DWIDTH 16 0
BBX 16 18 0 -2
BITMAP
0000
0000
3FFE
2002
3FFE
2002
2002
3FFE
0000
1FFC
1004
1FFC
1004
1FFC
1004
1004
101C
0000
ENDCHAR

STARTCHAR cns3_2756
ENCODING 10070
SWIDTH 854 0
DWIDTH 16 0
BBX 16 18 0 -2
BITMAP
0000
0000
0088
4088
2088
1088
17FF
0088
0088
0888
0FFF
1000
1088
2088
2104
4202
0C01
0000
ENDCHAR

STARTCHAR cns3_2757
ENCODING 10071
SWIDTH 854 0
DWIDTH 16 0
BBX 16 18 0 -2
BITMAP
0000
0000
03FF
2201
1201
0AFD
0201
0201
02FD
0A85
0A85
1285
12FD
2281
4201
0201
020E
0000
ENDCHAR

STARTCHAR cns3_2758
ENCODING 10072
SWIDTH 854 0
DWIDTH 16 0
BBX 16 18 0 -2
BITMAP
0000
0000
0000
43E0
2090
1108
0204
0403
09FC
0020
1020
1020
21FC
2020
4020
0020
03FE
0000
ENDCHAR

STARTCHAR cns3_2759
ENCODING 10073
SWIDTH 854 0
DWIDTH 16 0
BBX 16 18 0 -2
BITMAP
0000
0000
0400
040E
09F0
1020
33FE
5020
1020
17FF
0000
07F0
0410
0411
0811
0811
300E
0000
ENDCHAR

STARTCHAR cns3_275A
ENCODING 10074
SWIDTH 854 0
DWIDTH 16 0
BBX 16 18 0 -2
BITMAP
0000
0000
07F0
0020
0040
4081
5CBD
54A5
54A5
5495
5499
5C89
4095
43A3
4001
7FFF
4001
0000
ENDCHAR

STARTCHAR cns3_275B
ENCODING 10075
SWIDTH 854 0
DWIDTH 16 0
BBX 16 18 0 -2
BITMAP
0000
0000
0001
3FE9
0009
0009
1FC9
1049
1049
1FC9
1049
1049
1FC9
1041
0001
03E1
7C0E
0000
ENDCHAR

STARTCHAR cns3_275C
ENCODING 10076
SWIDTH 854 0
DWIDTH 16 0
BBX 16 18 0 -2
BITMAP
0000
0000
0001
7BE9
1089
1089
1089
1089
7BE9
1089
1089
1089
1089
2081
2081
2081
408E
0000
ENDCHAR

STARTCHAR cns3_275D
ENCODING 10077
SWIDTH 854 0
DWIDTH 16 0
BBX 16 18 0 -2
BITMAP
0000
0000
0400
05FE
0412
3F92
0412
0452
0432
7F92
082A
0826
1222
1143
2142
2F82
711C
0000
ENDCHAR

STARTCHAR cns3_275E
ENCODING 10078
SWIDTH 854 0
DWIDTH 16 0
BBX 16 18 0 -2
BITMAP
0000
0000
0001
3F81
0489
09E9
0929
1029
25C9
0409
7FE9
0609
0D09
1509
2481
4441
040E
0000
ENDCHAR

STARTCHAR cns3_275F
ENCODING 10079
SWIDTH 854 0
DWIDTH 16 0
BBX 16 18 0 -2
BITMAP
0000
0000
1041
0889
0509
0709
0A89
1249
0229
7FE9
0609
0B09
1289
2241
4221
0201
020E
0000
ENDCHAR

STARTCHAR cns3_2760
ENCODING 10080
SWIDTH 854 0
DWIDTH 16 0
BBX 16 18 0 -2
BITMAP
0000
0000
0408
0408
0408
7FC8
0A7F
1109
2089
4149
1109
0A09
0611
0511
08A1
30A1
404E
0000
ENDCHAR

STARTCHAR cns3_2761
ENCODING 10081
SWIDTH 854 0
DWIDTH 16 0
BBX 16 18 0 -2
BITMAP
0000
0000
0890
04A0
0080
0FF8
0100
7FFF
0220
0498
0886
13F9
6084
0104
0104
0204
0C78
0000
ENDCHAR

STARTCHAR cns3_2762
ENCODING 10082
SWIDTH 854 0
DWIDTH 16 0
BBX 16 18 0 -2
BITMAP
0000
0000
0810
0810
7EFC
0814
0E74
3814
482C
0845
1883
0080
3FFC
0104
0204
0404
3838
0000
ENDCHAR

STARTCHAR cns3_2763
ENCODING 10083
SWIDTH 854 0
DWIDTH 16 0
BBX 16 18 0 -2
BITMAP
0000
0000
0408
0410
0210
0220
1FFC
1084
1FFC
1084
1084
1FFC
0080
7FFF
0080
0080
0080
0000
ENDCHAR

STARTCHAR cns3_2764
ENCODING 10084
SWIDTH 854 0
DWIDTH 16 0
BBX 16 18 0 -2
BITMAP
0000
0000
0100
0100
01FF
0100
0100
3FFE
2002
27F2
2412
2412
2412
27F2
2002
3FFE
2002
0000
ENDCHAR

STARTCHAR cns3_2765
ENCODING 10085
SWIDTH 854 0
DWIDTH 16 0
BBX 16 18 0 -2
BITMAP
0000
0000
0400
0FFF
1061
28A1
44A1
0521
0621
3A21
07E1
0861
18A1
24A7
0320
0420
7820
0000
ENDCHAR

STARTCHAR cns3_2766
ENCODING 10086
SWIDTH 854 0
DWIDTH 16 0
BBX 16 18 0 -2
BITMAP
0000
0000
1FF8
0010
0120
7EC6
04B8
0890
338E
0000
7FFF
0000
0FF0
0810
08F2
0802
07FC
0000
ENDCHAR

STARTCHAR cns3_2767
ENCODING 10087
SWIDTH 854 0
DWIDTH 16 0
BBX 16 18 0 -2
BITMAP
0000
0000
1FFF
1040
1040
1040
17FC
1040
1040
1FFF
1040
1040
17FE
2040
2040
4040
4FFF
0000
ENDCHAR

STARTCHAR cns3_2768
ENCODING 10088
SWIDTH 854 0
DWIDTH 16 0
BBX 16 18 0 -2
BITMAP
0000
0000
1FFF
1100
1080
1040
1FFF
1040
10A1
1126
1318
1510
1908
210C
2132
41C1
4600
0000
ENDCHAR

STARTCHAR cns3_2769
ENCODING 10089
SWIDTH 854 0
DWIDTH 16 0
BBX 16 18 0 -2
BITMAP
0000
0000
0100
0100
0220
0470
1E98
0108
7FFF
0410
0808
17F4
6003
03E0
0000
1FFC
0000
0000
ENDCHAR

STARTCHAR cns3_276A
ENCODING 10090
SWIDTH 854 0
DWIDTH 16 0
BBX 16 18 0 -2
BITMAP
0000
0000
0100
0200
0420
09F0
1E90
0088
7FFF
0238
0CC4
7113
0664
0198
0E60
0180
1E00
0000
ENDCHAR

STARTCHAR cns3_276B
ENCODING 10091
SWIDTH 854 0
DWIDTH 16 0
BBX 16 18 0 -2
BITMAP
0000
0000
3FFE
1122
1222
0A14
0408
0A1C
1167
7FFE
1122
1124
0A28
0A10
0418
1B24
60C3
0000
ENDCHAR

STARTCHAR cns3_276C
ENCODING 10092
SWIDTH 854 0
DWIDTH 16 0
BBX 16 18 0 -2
BITMAP
0000
0000
0080
0080
7FFF
0410
0220
0220
7FFF
0000
0FF8
0808
0808
0808
0808
0FF8
0808
0000
ENDCHAR

STARTCHAR cns3_276D
ENCODING 10093
SWIDTH 854 0
DWIDTH 16 0
BBX 16 18 0 -2
BITMAP
0000
0000
0020
7C20
4420
47FF
4404
4504
4504
4484
4484
4488
7C48
4448
4050
0010
07FF
0000
ENDCHAR

STARTCHAR cns3_276E
ENCODING 10094
SWIDTH 854 0
DWIDTH 16 0
BBX 16 18 0 -2
BITMAP
0000
0000
0020
0020
7C20
47FF
4440
4440
4584
4488
4448
4450
7C30
4424
4042
007E
0381
0000
ENDCHAR

STARTCHAR cns3_276F
ENCODING 10095
SWIDTH 854 0
DWIDTH 16 0
BBX 16 18 0 -2
BITMAP
0000
0000
07FF
7080
5080
5080
50FC
5084
5084
50C4
5124
5114
7104
5104
010D
01E5
0206
0000
ENDCHAR

STARTCHAR cns3_2770
ENCODING 10096
SWIDTH 854 0
DWIDTH 16 0
BBX 16 18 0 -2
BITMAP
0000
0000
0020
7C20
4420
45FE
4522
4522
4522
4522
47FF
4450
7C50
4488
0104
0202
0C01
0000
ENDCHAR

STARTCHAR cns3_2771
ENCODING 10097
SWIDTH 854 0
DWIDTH 16 0
BBX 16 18 0 -2
BITMAP
0000
0000
0050
7C50
4490
44FE
4510
4510
4610
4410
47FF
4410
7C28
4448
0084
0102
0601
0000
ENDCHAR

STARTCHAR cns3_2772
ENCODING 10098
SWIDTH 854 0
DWIDTH 16 0
BBX 16 18 0 -2
BITMAP
0000
0000
1FF0
1010
1010
1FF0
0100
7FFC
4104
4104
7FFC
4104
4104
7FFC
4105
0101
00FE
0000
ENDCHAR

STARTCHAR cns3_2773
ENCODING 10099
SWIDTH 854 0
DWIDTH 16 0
BBX 16 18 0 -2
BITMAP
0000
0000
0040
7820
4810
4800
49F0
4811
4BD2
485C
4858
4894
7894
4912
0111
0210
00E0
0000
ENDCHAR

STARTCHAR cns3_2774
ENCODING 10100
SWIDTH 854 0
DWIDTH 16 0
BBX 16 18 0 -2
BITMAP
0000
0000
01FC
7C00
4400
4400
47FF
4410
4410
4494
4494
7D12
4512
4211
0011
0010
00E0
0000
ENDCHAR

STARTCHAR cns3_2775
ENCODING 10101
SWIDTH 854 0
DWIDTH 16 0
BBX 16 18 0 -2
BITMAP
0000
0000
0124
7D24
4524
4524
47FF
4524
4524
4524
4524
7D24
453C
4124
0100
01FF
0100
0000
ENDCHAR

STARTCHAR cns3_2776
ENCODING 10102
SWIDTH 854 0
DWIDTH 16 0
BBX 16 18 0 -2
BITMAP
0000
0000
3F7E
2142
2142
2142
3F7E
0000
7FFF
0200
0400
07FC
0404
0004
0004
0004
0078
0000
ENDCHAR

STARTCHAR cns3_2777
ENCODING 10103
SWIDTH 854 0
DWIDTH 16 0
BBX 16 18 0 -2
BITMAP
0000
0000
0020
7C20
4420
443C
4420
4420
47FF
4420
4430
7C28
4424
4020
0020
0020
0020
0000
ENDCHAR

STARTCHAR cns3_2778
ENCODING 10104
SWIDTH 854 0
DWIDTH 16 0
BBX 16 18 0 -2
BITMAP
0000
0000
01FE
0102
7D02
4502
4502
4502
45FE
454A
4448
4448
7C48
4449
4089
0089
030E
0000
ENDCHAR

STARTCHAR cns3_2779
ENCODING 10105
SWIDTH 854 0
DWIDTH 16 0
BBX 16 18 0 -2
BITMAP
0000
0000
0006
01F8
7C10
4410
4410
4410
47FF
4430
4458
4494
4512
7E11
4410
4010
0010
0000
ENDCHAR

STARTCHAR cns3_277A
ENCODING 10106
SWIDTH 854 0
DWIDTH 16 0
BBX 16 18 0 -2
BITMAP
0000
0000
0020
0040
7C80
45FF
4501
4501
4501
4501
45FF
4501
4501
7D01
4501
01FF
0101
0000
ENDCHAR

STARTCHAR cns3_277B
ENCODING 10107
SWIDTH 854 0
DWIDTH 16 0
BBX 16 18 0 -2
BITMAP
0000
0000
7FFF
4001
5FFD
4081
4081
4081
4081
4FFD
4091
4089
4089
5FFD
4001
7FFF
4001
0000
ENDCHAR

STARTCHAR cns3_277C
ENCODING 10108
SWIDTH 854 0
DWIDTH 16 0
BBX 16 18 0 -2
BITMAP
0000
0000
7FFF
4001
4FF9
4809
4809
4FF9
4881
4FFD
4841
4843
4933
4E0D
7001
7FFF
4001
0000
ENDCHAR

STARTCHAR cns3_277D
ENCODING 10109
SWIDTH 854 0
DWIDTH 16 0
BBX 16 18 0 -2
BITMAP
0000
0000
7FFF
4001
4FF9
4081
4081
4081
44F9
4481
4481
4481
4481
5FFD
4001
7FFF
4001
0000
ENDCHAR

STARTCHAR cns3_277E
ENCODING 10110
SWIDTH 854 0
DWIDTH 16 0
BBX 16 18 0 -2
BITMAP
0000
0000
7FFF
4001
4FF9
4889
4889
4FF9
4889
4889
4FF9
4081
4081
4081
4001
7FFF
4001
0000
ENDCHAR

STARTCHAR cns3_2821
ENCODING 10273
SWIDTH 854 0
DWIDTH 16 0
BBX 16 18 0 -2
BITMAP
0000
0000
7FFF
4101
4101
4211
4209
44FD
5F03
4001
4FF9
4809
4809
4FF9
4001
7FFF
4001
0000
ENDCHAR

STARTCHAR cns3_2822
ENCODING 10274
SWIDTH 854 0
DWIDTH 16 0
BBX 16 18 0 -2
BITMAP
0000
0000
7FFF
4221
4221
44A5
449D
5881
4081
4FFD
4081
4081
4081
7FFF
4001
7FFF
4001
0000
ENDCHAR

STARTCHAR cns3_2823
ENCODING 10275
SWIDTH 854 0
DWIDTH 16 0
BBX 16 18 0 -2
BITMAP
0000
0000
1000
10FC
1084
1084
1084
7CFC
1084
1084
1084
10FC
1684
1884
6084
0084
07FF
0000
ENDCHAR

STARTCHAR cns3_2824
ENCODING 10276
SWIDTH 854 0
DWIDTH 16 0
BBX 16 18 0 -2
BITMAP
0000
0000
1040
1080
10FE
1110
1110
7E10
1010
13FF
1010
1028
1628
1844
6082
0301
0000
0000
ENDCHAR

STARTCHAR cns3_2825
ENCODING 10277
SWIDTH 854 0
DWIDTH 16 0
BBX 16 18 0 -2
BITMAP
0000
0000
0080
0884
0888
0490
3FFF
2001
2001
2081
0080
0080
1FFE
0080
0080
0080
7FFF
0000
ENDCHAR

STARTCHAR cns3_2826
ENCODING 10278
SWIDTH 854 0
DWIDTH 16 0
BBX 16 18 0 -2
BITMAP
0000
0000
0800
09FF
0820
0820
0840
7E40
08C0
08FE
0942
0942
0942
0E42
7042
007E
0042
0000
ENDCHAR

STARTCHAR cns3_2827
ENCODING 10279
SWIDTH 854 0
DWIDTH 16 0
BBX 16 18 0 -2
BITMAP
0000
0000
0010
1010
10FE
1092
1092
7C92
13FF
1092
1092
1092
13FF
1882
6082
0082
008C
0000
ENDCHAR

STARTCHAR cns3_2828
ENCODING 10280
SWIDTH 854 0
DWIDTH 16 0
BBX 16 18 0 -2
BITMAP
0000
0000
1020
1020
1020
1044
1042
7EBE
13C1
1000
10FE
1082
1682
1882
6082
00FE
0082
0000
ENDCHAR

STARTCHAR cns3_2829
ENCODING 10281
SWIDTH 854 0
DWIDTH 16 0
BBX 16 18 0 -2
BITMAP
0000
0000
0040
1040
107F
1081
1081
7D01
1179
1249
1049
1049
1279
1C49
7001
0001
000E
0000
ENDCHAR

STARTCHAR cns3_282A
ENCODING 10282
SWIDTH 854 0
DWIDTH 16 0
BBX 16 18 0 -2
BITMAP
0000
0000
0042
1042
1082
1082
117F
7D02
1302
1522
1122
1112
1112
1D02
7102
0102
011C
0000
ENDCHAR

STARTCHAR cns3_282B
ENCODING 10283
SWIDTH 854 0
DWIDTH 16 0
BBX 16 18 0 -2
BITMAP
0000
0000
0220
0220
0222
7E3F
0220
0220
0621
1A21
623E
0280
0080
1FFC
0080
0080
7FFF
0000
ENDCHAR

STARTCHAR cns3_282C
ENCODING 10284
SWIDTH 854 0
DWIDTH 16 0
BBX 16 18 0 -2
BITMAP
0000
0000
0080
0080
0084
3E84
2288
228C
2292
3E91
22A0
0080
3FFE
0080
0080
0080
7FFF
0000
ENDCHAR

STARTCHAR cns3_282D
ENCODING 10285
SWIDTH 854 0
DWIDTH 16 0
BBX 16 18 0 -2
BITMAP
0000
0080
0080
7FFF
0080
3FFE
0000
7FFF
4001
4FF1
0000
07E0
0420
0421
0821
0821
301E
0000
ENDCHAR

STARTCHAR cns3_282E
ENCODING 10286
SWIDTH 854 0
DWIDTH 16 0
BBX 16 18 0 -2
BITMAP
0000
0000
0080
0080
7FFF
0220
0410
180C
6003
3FFE
2082
2082
3FFE
2082
2082
3FFE
2002
0000
ENDCHAR

STARTCHAR cns3_282F
ENCODING 10287
SWIDTH 854 0
DWIDTH 16 0
BBX 16 18 0 -2
BITMAP
0000
0000
0100
0100
01FC
0100
0FF8
0808
0808
0808
0FF8
0080
7FFF
0120
0210
0C0C
7003
0000
ENDCHAR

STARTCHAR cns3_2830
ENCODING 10288
SWIDTH 854 0
DWIDTH 16 0
BBX 16 18 0 -2
BITMAP
0000
0000
0800
09FF
0810
7E92
1292
1254
2254
2210
25FF
2810
7810
0C10
1210
2110
4010
0000
ENDCHAR

STARTCHAR cns3_2831
ENCODING 10289
SWIDTH 854 0
DWIDTH 16 0
BBX 16 18 0 -2
BITMAP
0000
0000
0800
09FF
0808
7E10
1210
1238
1254
2452
2491
3510
5810
0C10
1210
21FF
4000
0000
ENDCHAR

STARTCHAR cns3_2832
ENCODING 10290
SWIDTH 854 0
DWIDTH 16 0
BBX 16 18 0 -2
BITMAP
0000
0000
0810
0820
09FF
7E30
1250
1290
13FE
2492
2492
3492
5892
0C92
1296
2110
4010
0000
ENDCHAR

STARTCHAR cns3_2833
ENCODING 10291
SWIDTH 854 0
DWIDTH 16 0
BBX 16 18 0 -2
BITMAP
0000
0000
0840
084C
0842
7E40
13FF
1240
2242
2242
5462
1454
0854
0C88
1298
2124
4243
0000
ENDCHAR

STARTCHAR cns3_2834
ENCODING 10292
SWIDTH 854 0
DWIDTH 16 0
BBX 16 18 0 -2
BITMAP
0000
0000
0800
08FF
0801
7EFD
1201
1201
22F9
2489
1489
1489
4889
0CF9
1201
2001
400E
0000
ENDCHAR

STARTCHAR cns3_2835
ENCODING 10293
SWIDTH 854 0
DWIDTH 16 0
BBX 16 18 0 -2
BITMAP
0000
0000
0800
08FE
0882
7E82
12FE
2290
2290
2490
14FF
1490
0890
0C88
12A9
20C5
4003
0000
ENDCHAR

STARTCHAR cns3_2836
ENCODING 10294
SWIDTH 854 0
DWIDTH 16 0
BBX 16 18 0 -2
BITMAP
0000
0000
0800
08FE
0892
7E92
1292
1292
2292
22FE
1492
1492
0892
0C92
12FE
2182
4082
0000
ENDCHAR

STARTCHAR cns3_2837
ENCODING 10295
SWIDTH 854 0
DWIDTH 16 0
BBX 16 18 0 -2
BITMAP
0000
0000
0800
0806
08F8
7E10
1210
12FF
2202
2202
1404
1404
0808
0C10
1220
20FF
4000
0000
ENDCHAR

STARTCHAR cns3_2838
ENCODING 10296
SWIDTH 854 0
DWIDTH 16 0
BBX 16 18 0 -2
BITMAP
0000
0000
0840
0880
08FF
7EA0
1320
1320
223F
2420
1420
1420
083F
0C20
1220
2020
4020
0000
ENDCHAR

STARTCHAR cns3_2839
ENCODING 10297
SWIDTH 854 0
DWIDTH 16 0
BBX 16 18 0 -2
BITMAP
0000
0000
0820
0820
087F
7E41
1281
1281
23F9
2249
2449
1479
1841
0C4E
1241
2041
407E
0000
ENDCHAR

STARTCHAR cns3_283A
ENCODING 10298
SWIDTH 854 0
DWIDTH 16 0
BBX 16 18 0 -2
BITMAP
0000
0000
0840
0840
08FE
7E82
1302
1324
2228
2410
346C
1583
0830
0C0C
1260
2018
4006
0000
ENDCHAR

STARTCHAR cns3_283B
ENCODING 10299
SWIDTH 854 0
DWIDTH 16 0
BBX 16 18 0 -2
BITMAP
0000
0000
0806
0838
08C0
7E80
1280
12FF
2284
2284
1484
1484
0884
0C84
1284
23FF
4000
0000
ENDCHAR

STARTCHAR cns3_283C
ENCODING 10300
SWIDTH 854 0
DWIDTH 16 0
BBX 16 18 0 -2
BITMAP
0000
0000
03FF
7E20
0840
08FE
0882
0F02
7802
009C
0100
7FFF
0210
0720
01C0
0330
1C0E
0000
ENDCHAR

STARTCHAR cns3_283D
ENCODING 10301
SWIDTH 854 0
DWIDTH 16 0
BBX 16 18 0 -2
BITMAP
0000
0000
0800
7FBE
08A2
08A2
10A2
10BE
2300
0080
0100
7FFF
0210
0610
0120
00C0
1F3E
0000
ENDCHAR

STARTCHAR cns3_283E
ENCODING 10302
SWIDTH 854 0
DWIDTH 16 0
BBX 16 18 0 -2
BITMAP
0000
0000
1FFC
1084
1084
1FFC
1084
1084
1FFC
0180
7FFF
0208
0710
0CA0
0070
038C
3C03
0000
ENDCHAR

STARTCHAR cns3_283F
ENCODING 10303
SWIDTH 854 0
DWIDTH 16 0
BBX 16 18 0 -2
BITMAP
0000
0000
0810
0810
09FF
7E10
1210
12FE
2292
2492
1492
1492
0892
1492
229C
4010
0010
0000
ENDCHAR

STARTCHAR cns3_2840
ENCODING 10304
SWIDTH 854 0
DWIDTH 16 0
BBX 16 18 0 -2
BITMAP
0000
0000
0800
0BFF
0802
7E02
12F2
1292
2292
2492
14F2
1492
0892
0C02
1202
2002
403C
0000
ENDCHAR

STARTCHAR cns3_2841
ENCODING 10305
SWIDTH 854 0
DWIDTH 16 0
BBX 16 18 0 -2
BITMAP
0000
0000
0800
09FF
0820
7E20
1240
1240
22FE
26C2
1542
1542
0842
0C42
1242
217E
4042
0000
ENDCHAR

STARTCHAR cns3_2842
ENCODING 10306
SWIDTH 854 0
DWIDTH 16 0
BBX 16 18 0 -2
BITMAP
0000
0000
0880
0880
0887
7FF5
1295
1295
2295
2495
1495
1515
0915
0D15
1217
2215
44E5
0000
ENDCHAR

STARTCHAR cns3_2843
ENCODING 10307
SWIDTH 854 0
DWIDTH 16 0
BBX 16 18 0 -2
BITMAP
0000
0000
08FF
0881
0881
7E81
1281
12FF
2280
2480
14FF
1481
0881
1481
2281
40FF
0081
0000
ENDCHAR

STARTCHAR cns3_2844
ENCODING 10308
SWIDTH 854 0
DWIDTH 16 0
BBX 16 18 0 -2
BITMAP
0000
0000
1000
13FC
1044
7E4F
1289
1301
22F7
2410
1460
1820
0BFE
1820
2420
4220
00E0
0000
ENDCHAR

STARTCHAR cns3_2845
ENCODING 10309
SWIDTH 854 0
DWIDTH 16 0
BBX 16 18 0 -2
BITMAP
0000
0000
0810
0850
0850
7EFE
1310
1210
2210
2410
25FF
1428
0828
0C44
1282
2101
4200
0000
ENDCHAR

STARTCHAR cns3_2846
ENCODING 10310
SWIDTH 854 0
DWIDTH 16 0
BBX 16 18 0 -2
BITMAP
0000
0000
0800
08EE
08AA
7FAA
12AA
12AA
13FF
24AA
24AA
54AA
08AA
14AA
24AA
412A
0066
0000
ENDCHAR

STARTCHAR cns3_2847
ENCODING 10311
SWIDTH 854 0
DWIDTH 16 0
BBX 16 18 0 -2
BITMAP
0000
0000
1010
1010
1028
7F28
1244
1296
2313
2410
2454
5452
4892
0891
1511
2210
40F0
0000
ENDCHAR

STARTCHAR cns3_2848
ENCODING 10312
SWIDTH 854 0
DWIDTH 16 0
BBX 16 18 0 -2
BITMAP
0000
0000
1FFC
0004
1FF4
0004
0FE4
0824
0FE4
0004
0FE4
0040
0080
7FFF
0080
0080
0300
0000
ENDCHAR

STARTCHAR cns3_2849
ENCODING 10313
SWIDTH 854 0
DWIDTH 16 0
BBX 16 18 0 -2
BITMAP
0000
0000
3E00
227E
3202
2A04
2218
7F88
2208
32FF
2A08
2608
4208
7F88
4208
0C08
0070
0000
ENDCHAR

STARTCHAR cns3_284A
ENCODING 10314
SWIDTH 854 0
DWIDTH 16 0
BBX 16 18 0 -2
BITMAP
0000
0080
0080
7FFF
4001
4001
1F10
0110
0110
1F20
1020
1020
1F24
0142
0142
015F
1EE1
0000
ENDCHAR

STARTCHAR cns3_284B
ENCODING 10315
SWIDTH 854 0
DWIDTH 16 0
BBX 16 18 0 -2
BITMAP
0000
0000
0080
0080
7FFF
4001
4481
0280
0880
0480
3FFE
0080
0140
0140
0220
0C18
3006
0000
ENDCHAR

STARTCHAR cns3_284C
ENCODING 10316
SWIDTH 854 0
DWIDTH 16 0
BBX 16 18 0 -2
BITMAP
0000
0000
0100
0080
7FFF
4101
4081
0040
7FFF
0080
0080
0080
1FFC
0080
0080
0080
7FFF
0000
ENDCHAR

STARTCHAR cns3_284D
ENCODING 10317
SWIDTH 854 0
DWIDTH 16 0
BBX 16 18 0 -2
BITMAP
0000
0000
0080
0080
7FFF
4081
4081
1FFC
0080
3FFE
0080
7FFF
0080
0140
0220
0C18
7007
0000
ENDCHAR

STARTCHAR cns3_284E
ENCODING 10318
SWIDTH 854 0
DWIDTH 16 0
BBX 16 18 0 -2
BITMAP
0000
0000
0080
0080
7FFF
4001
5FFD
0080
0080
0080
0080
0FF8
0080
0088
0084
0082
7FFF
0000
ENDCHAR

STARTCHAR cns3_284F
ENCODING 10319
SWIDTH 854 0
DWIDTH 16 0
BBX 16 18 0 -2
BITMAP
0000
0000
0080
0080
7FFF
4001
4081
0080
1FFC
0080
0080
0FF8
0808
0808
0808
0FF8
0808
0000
ENDCHAR

STARTCHAR cns3_2850
ENCODING 10320
SWIDTH 854 0
DWIDTH 16 0
BBX 16 18 0 -2
BITMAP
0000
0000
0004
7F84
4004
4004
5E7F
5204
5204
5224
5224
5214
5E14
5004
4004
7F84
4038
0000
ENDCHAR

STARTCHAR cns3_2851
ENCODING 10321
SWIDTH 854 0
DWIDTH 16 0
BBX 16 18 0 -2
BITMAP
0000
0000
0080
0490
0888
1084
6083
1FFC
1004
13E4
1224
1224
1224
13E4
1004
1004
101C
0000
ENDCHAR

STARTCHAR cns3_2852
ENCODING 10322
SWIDTH 854 0
DWIDTH 16 0
BBX 16 18 0 -2
BITMAP
0000
0000
1FFF
1001
1001
1FFF
1020
1020
1FFF
1000
1204
1204
1108
1108
2090
2090
5FFF
0000
ENDCHAR

STARTCHAR cns3_2853
ENCODING 10323
SWIDTH 854 0
DWIDTH 16 0
BBX 16 18 0 -2
BITMAP
0000
0000
1FFE
1002
1002
1FFE
1040
1040
1040
175C
1040
175C
2040
2041
2041
4041
403E
0000
ENDCHAR

STARTCHAR cns3_2854
ENCODING 10324
SWIDTH 854 0
DWIDTH 16 0
BBX 16 18 0 -2
BITMAP
0000
0000
1FFE
1002
1002
1FFE
1248
1248
1248
1FFE
1248
1248
1278
2248
2200
43FE
4200
0000
ENDCHAR

STARTCHAR cns3_2855
ENCODING 10325
SWIDTH 854 0
DWIDTH 16 0
BBX 16 18 0 -2
BITMAP
0000
0000
1FFE
1002
1002
1FFE
1000
1040
1040
17FC
1444
1444
17FC
2444
2444
47FC
4404
0000
ENDCHAR

STARTCHAR cns3_2856
ENCODING 10326
SWIDTH 854 0
DWIDTH 16 0
BBX 16 18 0 -2
BITMAP
0000
0000
1000
10FE
1082
5482
54FE
5480
54A0
54A0
54A0
54BE
54A0
54A1
7D21
4521
021E
0000
ENDCHAR

STARTCHAR cns3_2857
ENCODING 10327
SWIDTH 854 0
DWIDTH 16 0
BBX 16 18 0 -2
BITMAP
0000
0000
1006
10F8
1088
5488
5488
5488
54FF
5488
5488
5488
5488
5498
7CE9
4485
0073
0000
ENDCHAR

STARTCHAR cns3_2858
ENCODING 10328
SWIDTH 854 0
DWIDTH 16 0
BBX 16 18 0 -2
BITMAP
0000
0000
0080
1082
1082
1FFE
1202
043E
3E22
2222
2222
2622
3A22
6222
042E
0420
0820
0000
ENDCHAR

STARTCHAR cns3_2859
ENCODING 10329
SWIDTH 854 0
DWIDTH 16 0
BBX 16 18 0 -2
BITMAP
0000
0000
001C
1FE0
0080
7FFF
01C0
02A0
0C98
3086
4081
0000
0080
1084
1084
1FFC
1004
0000
ENDCHAR

STARTCHAR cns3_285A
ENCODING 10330
SWIDTH 854 0
DWIDTH 16 0
BBX 16 18 0 -2
BITMAP
0000
0000
1000
11FF
1100
5500
553E
5508
5508
5508
557F
5508
5508
7D08
4608
4208
0408
0000
ENDCHAR

STARTCHAR cns3_285B
ENCODING 10331
SWIDTH 854 0
DWIDTH 16 0
BBX 16 18 0 -2
BITMAP
0000
0000
1000
17FF
1402
5402
55F2
5512
5512
5512
55F2
5512
5502
7C02
4402
4002
001C
0000
ENDCHAR

STARTCHAR cns3_285C
ENCODING 10332
SWIDTH 854 0
DWIDTH 16 0
BBX 16 18 0 -2
BITMAP
0000
0000
1000
11FF
1021
5421
5421
5441
5441
548E
5400
54FF
5481
5481
7C81
44FF
0081
0000
ENDCHAR

STARTCHAR cns3_285D
ENCODING 10333
SWIDTH 854 0
DWIDTH 16 0
BBX 16 18 0 -2
BITMAP
0000
0000
1040
1040
10FF
54A0
5520
5520
543F
5420
5420
5420
543F
5420
7C20
4420
0020
0000
ENDCHAR

STARTCHAR cns3_285E
ENCODING 10334
SWIDTH 854 0
DWIDTH 16 0
BBX 16 18 0 -2
BITMAP
0000
0000
1000
100E
10F0
5480
5480
5480
54FF
5488
5488
5488
5488
5488
7C88
4488
03FF
0000
ENDCHAR

STARTCHAR cns3_285F
ENCODING 10335
SWIDTH 854 0
DWIDTH 16 0
BBX 16 18 0 -2
BITMAP
0000
0000
0080
1082
1082
1FFE
1082
0140
0630
0808
17F4
6003
1FFC
0004
0108
0090
0040
0020
ENDCHAR

STARTCHAR cns3_2860
ENCODING 10336
SWIDTH 854 0
DWIDTH 16 0
BBX 16 18 0 -2
BITMAP
0000
0000
007E
7F42
0942
0942
1142
1142
267E
0042
3F40
2140
2140
2141
2141
3F41
213E
0000
ENDCHAR

STARTCHAR cns3_2861
ENCODING 10337
SWIDTH 854 0
DWIDTH 16 0
BBX 16 18 0 -2
BITMAP
0000
0000
1010
1010
1010
7DFF
5410
5410
54FE
5430
5458
5454
5494
5C92
1111
1210
1010
0000
ENDCHAR

STARTCHAR cns3_2862
ENCODING 10338
SWIDTH 854 0
DWIDTH 16 0
BBX 16 18 0 -2
BITMAP
0000
0000
0250
044C
087F
1BC0
6820
0819
0887
0080
1FFC
1084
1084
1084
1098
0080
0080
0000
ENDCHAR

STARTCHAR cns3_2863
ENCODING 10339
SWIDTH 854 0
DWIDTH 16 0
BBX 16 18 0 -2
BITMAP
0000
0000
0808
0808
1010
7F7F
0808
0808
0808
0808
7F7F
0808
0808
0808
1008
1008
2008
0000
ENDCHAR

STARTCHAR cns3_2864
ENCODING 10340
SWIDTH 854 0
DWIDTH 16 0
BBX 16 18 0 -2
BITMAP
0000
0080
0040
3FFF
2000
27F8
2408
2408
27F8
2408
2408
2408
27F8
2408
4408
4408
5FFF
0000
ENDCHAR

STARTCHAR cns3_2865
ENCODING 10341
SWIDTH 854 0
DWIDTH 16 0
BBX 16 18 0 -2
BITMAP
0000
0100
0080
3FFF
2000
2FFE
2842
2842
2FFE
2842
2842
2FFE
2842
2040
2040
4040
4040
0000
ENDCHAR

STARTCHAR cns3_2866
ENCODING 10342
SWIDTH 854 0
DWIDTH 16 0
BBX 16 18 0 -2
BITMAP
0000
0100
0080
3FFF
2100
221E
2492
2492
2492
2492
2492
2592
2692
289E
2110
4110
4210
0000
ENDCHAR

STARTCHAR cns3_2867
ENCODING 10343
SWIDTH 854 0
DWIDTH 16 0
BBX 16 18 0 -2
BITMAP
0000
0080
0040
3FFF
2000
2040
2040
2FFE
2842
2842
2842
2FFE
2842
2842
2842
6FFE
4802
0000
ENDCHAR

STARTCHAR cns3_2868
ENCODING 10344
SWIDTH 854 0
DWIDTH 16 0
BBX 16 18 0 -2
BITMAP
0000
0080
0040
3FFF
2080
21FC
2208
2490
2860
2060
2190
220C
2C43
2020
2080
4040
4020
0000
ENDCHAR

STARTCHAR cns3_2869
ENCODING 10345
SWIDTH 854 0
DWIDTH 16 0
BBX 16 18 0 -2
BITMAP
0000
0000
0020
7C20
0420
0820
11FC
2124
7D24
0524
05FC
0924
4924
3124
19FC
1600
61FF
0000
ENDCHAR

STARTCHAR cns3_286A
ENCODING 10346
SWIDTH 854 0
DWIDTH 16 0
BBX 16 18 0 -2
BITMAP
0000
0000
01FE
7D02
0502
097A
114A
114A
3D4A
457A
054A
2502
1502
090E
0800
1E00
61FF
0000
ENDCHAR

STARTCHAR cns3_286B
ENCODING 10347
SWIDTH 854 0
DWIDTH 16 0
BBX 16 18 0 -2
BITMAP
0000
0000
0020
7C40
05FE
0902
1102
1102
3D02
05FE
2502
2502
1502
09FE
0800
1E00
61FF
0000
ENDCHAR

STARTCHAR cns3_286C
ENCODING 10348
SWIDTH 854 0
DWIDTH 16 0
BBX 16 18 0 -2
BITMAP
0000
0000
1424
1424
1424
7F7F
1424
1424
1424
1424
7F7F
1424
1424
1424
2444
2444
4484
0000
ENDCHAR

STARTCHAR cns3_286D
ENCODING 10349
SWIDTH 854 0
DWIDTH 16 0
BBX 16 18 0 -2
BITMAP
0000
0000
0080
3FFE
0080
0080
7FFF
0110
0608
0FFC
0412
0410
7FFF
0410
0410
0810
1010
0000
ENDCHAR

STARTCHAR cns3_286E
ENCODING 10350
SWIDTH 854 0
DWIDTH 16 0
BBX 16 18 0 -2
BITMAP
0000
0000
0000
7DFF
0480
0480
3C80
20FE
2082
4082
7C82
44FE
0482
0480
0480
05FF
7800
0000
ENDCHAR

STARTCHAR cns3_286F
ENCODING 10351
SWIDTH 854 0
DWIDTH 16 0
BBX 16 18 0 -2
BITMAP
0000
0000
0020
7C40
04FF
0510
3E10
2090
409E
40F2
7D92
0492
049C
0490
0491
0481
787E
0000
ENDCHAR

STARTCHAR cns3_2870
ENCODING 10352
SWIDTH 854 0
DWIDTH 16 0
BBX 16 18 0 -2
BITMAP
0000
0000
0040
7C40
04FF
0490
3D10
2110
2214
4054
7C52
4492
0492
0511
0511
0410
7860
0000
ENDCHAR

STARTCHAR cns3_2871
ENCODING 10353
SWIDTH 854 0
DWIDTH 16 0
BBX 16 18 0 -2
BITMAP
0000
0000
0FFC
0004
0FFC
0004
7FFF
0080
2086
1898
04A0
0080
04A0
0898
3084
0082
0300
0000
ENDCHAR

STARTCHAR cns3_2872
ENCODING 10354
SWIDTH 854 0
DWIDTH 16 0
BBX 16 18 0 -2
BITMAP
0000
0000
0802
0802
1004
1108
20B1
2781
7842
0004
3F88
20B1
2081
2082
2084
3F98
2080
0000
ENDCHAR

STARTCHAR cns3_2873
ENCODING 10355
SWIDTH 854 0
DWIDTH 16 0
BBX 16 18 0 -2
BITMAP
0000
0000
0902
0902
0904
7FE8
0911
0D01
0B02
0904
7FC8
0931
0901
0902
1104
1118
2160
0000
ENDCHAR

STARTCHAR cns3_2874
ENCODING 10356
SWIDTH 854 0
DWIDTH 16 0
BBX 16 18 0 -2
BITMAP
0000
0000
0410
0810
1010
6210
03FF
0511
0911
1911
29FF
4911
0911
0911
0911
09FF
0901
0000
ENDCHAR

STARTCHAR cns3_2875
ENCODING 10357
SWIDTH 854 0
DWIDTH 16 0
BBX 16 18 0 -2
BITMAP
0000
0000
0400
0BFC
1084
6484
0448
0830
1850
2888
4F27
0820
0BFE
0820
0820
0FFF
0800
0000
ENDCHAR

STARTCHAR cns3_2876
ENCODING 10358
SWIDTH 854 0
DWIDTH 16 0
BBX 16 18 0 -2
BITMAP
0000
0000
0410
0890
1090
6510
05FF
0910
0A10
1210
38FE
4810
0810
0810
0810
09FF
0800
0000
ENDCHAR

STARTCHAR cns3_2877
ENCODING 10359
SWIDTH 854 0
DWIDTH 16 0
BBX 16 18 0 -2
BITMAP
0000
0000
0810
0810
0810
2DFF
2C40
2A44
4B88
4888
4870
0810
0820
0824
0842
085E
09E1
0000
ENDCHAR

STARTCHAR cns3_2878
ENCODING 10360
SWIDTH 854 0
DWIDTH 16 0
BBX 16 18 0 -2
BITMAP
0000
0000
0800
0BFF
0880
2C80
2A80
2AFE
6A82
4882
4882
08FE
0882
0880
0880
0880
0BFF
0000
ENDCHAR

STARTCHAR cns3_2879
ENCODING 10361
SWIDTH 854 0
DWIDTH 16 0
BBX 16 18 0 -2
BITMAP
0000
0000
0882
0882
0882
2FFF
2C82
2A82
4A82
4882
48FE
0882
0882
0882
0882
08FE
0882
0000
ENDCHAR

STARTCHAR cns3_287A
ENCODING 10362
SWIDTH 854 0
DWIDTH 16 0
BBX 16 18 0 -2
BITMAP
0000
0000
0810
0810
0810
2DFF
2D11
2B12
4B10
49FE
4942
0924
0924
0918
0A28
0A44
0D83
0000
ENDCHAR

STARTCHAR cns3_287B
ENCODING 10363
SWIDTH 854 0
DWIDTH 16 0
BBX 16 18 0 -2
BITMAP
0000
0000
1FFC
0080
0080
7FFF
0140
0120
0618
0806
1481
6440
1462
1425
2405
2404
03F8
0000
ENDCHAR

STARTCHAR cns3_287C
ENCODING 10364
SWIDTH 854 0
DWIDTH 16 0
BBX 16 18 0 -2
BITMAP
0000
0000
1FFE
1080
1080
7FFF
0080
00C1
0141
0641
183E
6084
1442
1425
2405
4404
03F8
0000
ENDCHAR

STARTCHAR cns3_287D
ENCODING 10365
SWIDTH 854 0
DWIDTH 16 0
BBX 16 18 0 -2
BITMAP
0000
0000
7FF0
0220
0220
023E
0504
04C8
0830
10CC
6303
0400
1442
142A
2409
4408
07F0
0000
ENDCHAR

STARTCHAR cns3_287E
ENCODING 10366
SWIDTH 854 0
DWIDTH 16 0
BBX 16 18 0 -2
BITMAP
0000
0000
0210
0210
0488
0884
1102
6111
0208
04FC
1F02
0080
1442
242A
2409
4409
03F0
0000
ENDCHAR

STARTCHAR cns3_2921
ENCODING 10529
SWIDTH 854 0
DWIDTH 16 0
BBX 16 18 0 -2
BITMAP
0000
0000
0820
0820
0820
2DFE
2C20
2A20
4BFF
4820
4820
0870
08A8
0928
0A24
0C23
0820
0000
ENDCHAR

STARTCHAR cns3_2922
ENCODING 10530
SWIDTH 854 0
DWIDTH 16 0
BBX 16 18 0 -2
BITMAP
0000
0000
1124
1124
1124
1924
3BFF
3524
5524
5124
5124
1124
113C
1124
1100
11FF
1100
0000
ENDCHAR

STARTCHAR cns3_2923
ENCODING 10531
SWIDTH 854 0
DWIDTH 16 0
BBX 16 18 0 -2
BITMAP
0000
0000
1020
1020
1020
3420
37FF
3270
52A8
50A8
5124
1124
1222
14F9
1020
1020
1020
0000
ENDCHAR

STARTCHAR cns3_2924
ENCODING 10532
SWIDTH 854 0
DWIDTH 16 0
BBX 16 18 0 -2
BITMAP
0000
0000
1020
1020
1020
39FE
3420
3440
5040
5080
50FE
1182
1282
1482
1082
10FE
1082
0000
ENDCHAR

STARTCHAR cns3_2925
ENCODING 10533
SWIDTH 854 0
DWIDTH 16 0
BBX 16 18 0 -2
BITMAP
0000
0000
1020
1020
1020
7DFC
1020
1020
13FE
1430
1868
70A8
1124
1222
1421
1020
7020
0000
ENDCHAR

STARTCHAR cns3_2926
ENCODING 10534
SWIDTH 854 0
DWIDTH 16 0
BBX 16 18 0 -2
BITMAP
0000
0000
1000
13FF
1002
7C02
11F2
1112
1112
1712
19F2
7112
1002
1002
1002
1002
701C
0000
ENDCHAR

STARTCHAR cns3_2927
ENCODING 10535
SWIDTH 854 0
DWIDTH 16 0
BBX 16 18 0 -2
BITMAP
0000
0000
0820
0820
0BFF
7E40
0848
0884
093C
0FD2
1852
6850
0850
0851
0891
0891
790E
0000
ENDCHAR

STARTCHAR cns3_2928
ENCODING 10536
SWIDTH 854 0
DWIDTH 16 0
BBX 16 18 0 -2
BITMAP
0000
0000
1000
13FF
1008
7E10
1030
1030
1058
1654
1894
7092
1110
1010
1010
1010
73FF
0000
ENDCHAR

STARTCHAR cns3_2929
ENCODING 10537
SWIDTH 854 0
DWIDTH 16 0
BBX 16 18 0 -2
BITMAP
0000
0000
1020
1020
1020
7C3C
1020
1020
13FF
1420
1830
7028
1028
1024
1020
1020
7020
0000
ENDCHAR

STARTCHAR cns3_292A
ENCODING 10538
SWIDTH 854 0
DWIDTH 16 0
BBX 16 18 0 -2
BITMAP
0000
0000
1000
11FC
1104
7D04
1104
1104
1104
15FC
1904
7000
1050
1088
1088
1104
7603
0000
ENDCHAR

STARTCHAR cns3_292B
ENCODING 10539
SWIDTH 854 0
DWIDTH 16 0
BBX 16 18 0 -2
BITMAP
0000
0000
1000
17FF
1080
7E80
1080
10FC
1084
1744
1924
7124
1114
1104
111C
11E5
7307
0000
ENDCHAR

STARTCHAR cns3_292C
ENCODING 10540
SWIDTH 854 0
DWIDTH 16 0
BBX 16 18 0 -2
BITMAP
0000
0000
1030
11C0
110F
7F29
1129
1129
1129
1729
1929
7129
11E9
132F
1028
1048
7088
0000
ENDCHAR

STARTCHAR cns3_292D
ENCODING 10541
SWIDTH 854 0
DWIDTH 16 0
BBX 16 18 0 -2
BITMAP
0000
0000
100E
11F8
1148
7D48
1148
1148
1148
1548
1944
7144
1254
128A
149A
1565
7581
0000
ENDCHAR

STARTCHAR cns3_292E
ENCODING 10542
SWIDTH 854 0
DWIDTH 16 0
BBX 16 18 0 -2
BITMAP
0000
0000
1010
1010
13FF
7E01
1201
1281
1082
168C
18B0
70C0
1080
1081
1081
1081
707E
0000
ENDCHAR

STARTCHAR cns3_292F
ENCODING 10543
SWIDTH 854 0
DWIDTH 16 0
BBX 16 18 0 -2
BITMAP
0000
0000
1010
1010
11FF
7D00
1110
1110
1120
1520
1920
3142
5242
1281
13FF
1401
6400
0000
ENDCHAR

STARTCHAR cns3_2930
ENCODING 10544
SWIDTH 854 0
DWIDTH 16 0
BBX 16 18 0 -2
BITMAP
0000
0000
1000
11FF
1010
7E10
10FE
1010
1010
1CFE
3010
5010
11FF
1010
1010
1010
7010
0000
ENDCHAR

STARTCHAR cns3_2931
ENCODING 10545
SWIDTH 854 0
DWIDTH 16 0
BBX 16 18 0 -2
BITMAP
0000
0000
1000
13FF
1020
7E20
11FE
1122
1132
174A
1946
7182
1102
1102
1102
1102
710C
0000
ENDCHAR

STARTCHAR cns3_2932
ENCODING 10546
SWIDTH 854 0
DWIDTH 16 0
BBX 16 18 0 -2
BITMAP
0000
0000
1100
1100
110F
7FE9
1129
1129
1129
1529
1929
7129
1229
1229
122F
1429
64C9
0000
ENDCHAR

STARTCHAR cns3_2933
ENCODING 10547
SWIDTH 854 0
DWIDTH 16 0
BBX 16 18 0 -2
BITMAP
0000
0000
1000
11FE
1102
7D02
1102
1102
11FE
1502
1902
7102
11FE
1102
1000
1000
77FF
0000
ENDCHAR

STARTCHAR cns3_2934
ENCODING 10548
SWIDTH 854 0
DWIDTH 16 0
BBX 16 18 0 -2
BITMAP
0000
0000
1000
11FE
1102
7D02
1102
1102
11FE
1552
1850
7050
1050
1091
1091
1111
720E
0000
ENDCHAR

STARTCHAR cns3_2935
ENCODING 10549
SWIDTH 854 0
DWIDTH 16 0
BBX 16 18 0 -2
BITMAP
0000
0000
0800
0942
0942
7F22
0912
0902
0902
0F04
1904
6944
0988
0B08
0C14
0822
70C1
0000
ENDCHAR

STARTCHAR cns3_2936
ENCODING 10550
SWIDTH 854 0
DWIDTH 16 0
BBX 16 18 0 -2
BITMAP
0000
0000
1000
1100
1100
7FC0
125C
1554
1554
1954
3155
50A7
1180
1260
1C18
1007
7000
0000
ENDCHAR

STARTCHAR cns3_2937
ENCODING 10551
SWIDTH 854 0
DWIDTH 16 0
BBX 16 18 0 -2
BITMAP
0000
0000
100C
1030
11C0
7F00
1100
11FF
1104
1704
1904
7104
1104
1104
1104
17FF
7000
0000
ENDCHAR

STARTCHAR cns3_2938
ENCODING 10552
SWIDTH 854 0
DWIDTH 16 0
BBX 16 18 0 -2
BITMAP
0000
0803
08FC
0880
08FF
7E81
0881
08FF
0880
0EFE
1884
6888
0910
0921
0A41
0A41
743E
0000
ENDCHAR

STARTCHAR cns3_2939
ENCODING 10553
SWIDTH 854 0
DWIDTH 16 0
BBX 16 18 0 -2
BITMAP
0000
0000
0080
0080
7FFF
0410
0220
01C0
0630
780F
0410
07F0
0410
07F0
0410
0810
1010
0000
ENDCHAR

STARTCHAR cns3_293A
ENCODING 10554
SWIDTH 854 0
DWIDTH 16 0
BBX 16 18 0 -2
BITMAP
0000
0000
0002
3F92
000A
000A
0002
7FD2
120A
120A
1203
121E
1262
1202
22E2
2702
4002
0000
ENDCHAR

STARTCHAR cns3_293B
ENCODING 10555
SWIDTH 854 0
DWIDTH 16 0
BBX 16 18 0 -2
BITMAP
0000
0000
0306
3C78
2040
2040
2040
3F7F
2444
2444
2444
2444
2444
2444
2444
4484
4484
0000
ENDCHAR

STARTCHAR cns3_293C
ENCODING 10556
SWIDTH 854 0
DWIDTH 16 0
BBX 16 18 0 -2
BITMAP
0000
0000
1010
1010
1038
7E28
1044
10C6
1F45
1244
1244
1244
1244
1244
2244
2284
4D04
0000
ENDCHAR

STARTCHAR cns3_293D
ENCODING 10557
SWIDTH 854 0
DWIDTH 16 0
BBX 16 18 0 -2
BITMAP
0000
0000
0020
7C20
4420
45FE
4420
4420
7C20
47FF
4420
4420
4470
7C50
4488
0104
0603
0000
ENDCHAR

STARTCHAR cns3_293E
ENCODING 10558
SWIDTH 854 0
DWIDTH 16 0
BBX 16 18 0 -2
BITMAP
0000
0000
0040
7C40
44FF
4490
4510
4610
7C10
47FF
4410
4410
4410
7C10
4410
0010
0010
0000
ENDCHAR

STARTCHAR cns3_293F
ENCODING 10559
SWIDTH 854 0
DWIDTH 16 0
BBX 16 18 0 -2
BITMAP
0000
0000
7FFF
0040
00B0
0188
0684
1883
6080
0FFC
0804
0804
0FFC
0804
0804
0FFC
0804
0000
ENDCHAR

STARTCHAR cns3_2940
ENCODING 10560
SWIDTH 854 0
DWIDTH 16 0
BBX 16 18 0 -2
BITMAP
0000
0000
1FFE
1002
1FFE
1002
1FFE
0080
0080
7FFF
0000
0410
0410
0808
0808
1004
6003
0000
ENDCHAR

STARTCHAR cns3_2941
ENCODING 10561
SWIDTH 854 0
DWIDTH 16 0
BBX 16 18 0 -2
BITMAP
0000
0000
1FFE
1002
1FFE
1002
1FFE
0080
0080
7FFF
0100
01FC
0104
0204
0204
0404
1878
0000
ENDCHAR

STARTCHAR cns3_2942
ENCODING 10562
SWIDTH 854 0
DWIDTH 16 0
BBX 16 18 0 -2
BITMAP
0000
0000
0010
7C10
45FF
4410
4410
45FF
7D11
4511
4511
4511
4511
7D11
4516
0010
0010
0000
ENDCHAR

STARTCHAR cns3_2943
ENCODING 10563
SWIDTH 854 0
DWIDTH 16 0
BBX 16 18 0 -2
BITMAP
0000
0100
01FC
7F00
2104
2104
3FFC
2105
0101
00FE
0000
1FFC
1004
1FFC
1004
1FFC
1004
0000
ENDCHAR

STARTCHAR cns3_2944
ENCODING 10564
SWIDTH 854 0
DWIDTH 16 0
BBX 16 18 0 -2
BITMAP
0000
0000
0040
3E40
22FF
2290
3F10
2310
2210
23FF
3E10
2210
2210
2210
2210
4210
4C10
0000
ENDCHAR

STARTCHAR cns3_2945
ENCODING 10565
SWIDTH 854 0
DWIDTH 16 0
BBX 16 18 0 -2
BITMAP
0000
0000
005C
3C44
2484
2482
3D02
2501
26FF
2442
3C42
2442
2442
2442
2484
4484
4D18
0000
ENDCHAR

STARTCHAR cns3_2946
ENCODING 10566
SWIDTH 854 0
DWIDTH 16 0
BBX 16 18 0 -2
BITMAP
0000
0000
0820
0820
0820
7EFC
0824
1C24
1A24
2BFF
2820
4820
4870
0850
0888
0904
0A03
0000
ENDCHAR

STARTCHAR cns3_2947
ENCODING 10567
SWIDTH 854 0
DWIDTH 16 0
BBX 16 18 0 -2
BITMAP
0000
0000
0810
0810
0810
7F10
0810
0C9E
1A90
1A90
2890
2890
4890
0890
0890
0890
0BFF
0000
ENDCHAR

STARTCHAR cns3_2948
ENCODING 10568
SWIDTH 854 0
DWIDTH 16 0
BBX 16 18 0 -2
BITMAP
0000
0000
0800
080E
08F0
7F10
0810
0C10
1AFF
1A10
2A10
2810
4828
0828
0844
0882
0B01
0000
ENDCHAR

STARTCHAR cns3_2949
ENCODING 10569
SWIDTH 854 0
DWIDTH 16 0
BBX 16 18 0 -2
BITMAP
0000
0000
0800
087F
0841
7F41
087F
0C41
1A41
1941
287F
2841
4841
0841
0881
0881
090E
0000
ENDCHAR

STARTCHAR cns3_294A
ENCODING 10570
SWIDTH 854 0
DWIDTH 16 0
BBX 16 18 0 -2
BITMAP
0000
0000
0800
0830
08CF
7E89
0889
0C89
1A89
1A89
2A89
2889
48C9
098E
0808
0808
0808
0000
ENDCHAR

STARTCHAR cns3_294B
ENCODING 10571
SWIDTH 854 0
DWIDTH 16 0
BBX 16 18 0 -2
BITMAP
0000
0000
0820
0820
0840
7E44
089E
0DE1
1A50
1A50
2850
2850
4850
0850
0891
0891
090E
0000
ENDCHAR

STARTCHAR cns3_294C
ENCODING 10572
SWIDTH 854 0
DWIDTH 16 0
BBX 16 18 0 -2
BITMAP
0000
0000
0080
7FFF
0080
0FFC
0884
0884
08C4
03B0
0C8C
3103
0080
0660
0180
0060
0018
0000
ENDCHAR

STARTCHAR cns3_294D
ENCODING 10573
SWIDTH 854 0
DWIDTH 16 0
BBX 16 18 0 -2
BITMAP
0000
0000
0810
0810
0816
7E38
08D0
1C10
1AFE
2A10
2A10
29FF
4810
0810
0810
0810
0810
0000
ENDCHAR

STARTCHAR cns3_294E
ENCODING 10574
SWIDTH 854 0
DWIDTH 16 0
BBX 16 18 0 -2
BITMAP
0000
0000
0800
09FF
0902
7F42
0924
0924
1D18
1B08
2B08
2914
4924
4942
0982
09FF
0900
0000
ENDCHAR

STARTCHAR cns3_294F
ENCODING 10575
SWIDTH 854 0
DWIDTH 16 0
BBX 16 18 0 -2
BITMAP
0000
0000
087E
0842
0842
7F42
09FF
0C42
1A42
1BFF
2A42
2842
4842
0882
0882
0902
090C
0000
ENDCHAR

STARTCHAR cns3_2950
ENCODING 10576
SWIDTH 854 0
DWIDTH 16 0
BBX 16 18 0 -2
BITMAP
0000
0000
0808
0888
0888
7E88
08FF
1C80
1A80
2A80
28FE
4882
4882
0882
0902
0902
0A02
0000
ENDCHAR

STARTCHAR cns3_2951
ENCODING 10577
SWIDTH 854 0
DWIDTH 16 0
BBX 16 18 0 -2
BITMAP
0000
0000
0810
0810
0816
7EF8
0890
0890
1D10
1BFF
2911
2831
4831
4856
0890
0910
0A10
0000
ENDCHAR

STARTCHAR cns3_2952
ENCODING 10578
SWIDTH 854 0
DWIDTH 16 0
BBX 16 18 0 -2
BITMAP
0000
0000
0410
0490
0888
1104
6112
0208
047C
1F82
0080
7FFF
01A0
0690
188C
6083
0080
0000
ENDCHAR

STARTCHAR cns3_2953
ENCODING 10579
SWIDTH 854 0
DWIDTH 16 0
BBX 16 18 0 -2
BITMAP
0000
0000
0410
0410
0A20
113F
20A1
4049
3F8A
0008
0008
3F14
0114
0122
0222
0241
0481
0000
ENDCHAR

STARTCHAR cns3_2954
ENCODING 10580
SWIDTH 854 0
DWIDTH 16 0
BBX 16 18 0 -2
BITMAP
0000
0000
0010
7F90
6120
513F
5241
4A4A
448A
4408
4A08
4908
5114
5094
6022
7FC1
4081
0000
ENDCHAR

STARTCHAR cns3_2955
ENCODING 10581
SWIDTH 854 0
DWIDTH 16 0
BBX 16 18 0 -2
BITMAP
0000
0080
0080
0880
08FC
0880
0880
7FFF
0080
0080
0480
04FE
0880
0880
1480
1380
607F
0000
ENDCHAR

STARTCHAR cns3_2956
ENCODING 10582
SWIDTH 854 0
DWIDTH 16 0
BBX 16 18 0 -2
BITMAP
0000
0000
0080
0880
08FC
0880
0880
0880
7FFF
0490
0C88
108C
3312
0060
0180
0E00
7000
0000
ENDCHAR

STARTCHAR cns3_2957
ENCODING 10583
SWIDTH 854 0
DWIDTH 16 0
BBX 16 18 0 -2
BITMAP
0000
0000
7F7F
0841
0841
1041
1F7F
2141
2141
5241
4A7F
0441
0441
0841
0881
1081
210E
0000
ENDCHAR

STARTCHAR cns3_2958
ENCODING 10584
SWIDTH 854 0
DWIDTH 16 0
BBX 16 18 0 -2
BITMAP
0000
0000
0078
7F48
0848
1089
1F87
2100
2100
52FE
4E42
4444
0424
0818
0828
10C4
2303
0000
ENDCHAR

STARTCHAR cns3_2959
ENCODING 10585
SWIDTH 854 0
DWIDTH 16 0
BBX 16 18 0 -2
BITMAP
0000
0000
0078
7FC8
6148
5149
5287
4A80
4400
45FE
4A42
4A44
5128
5110
6028
7FC4
4003
0000
ENDCHAR

STARTCHAR cns3_295A
ENCODING 10586
SWIDTH 854 0
DWIDTH 16 0
BBX 16 18 0 -2
BITMAP
0000
0000
0010
1F50
1150
1956
155A
2572
21D2
7F52
2252
3252
2A52
4656
7F41
4241
1C3E
0000
ENDCHAR

STARTCHAR cns3_295B
ENCODING 10587
SWIDTH 854 0
DWIDTH 16 0
BBX 16 18 0 -2
BITMAP
0000
0000
0306
7C78
0810
0810
0810
7F7F
0810
0810
7F7F
0810
0810
0810
0891
0891
070E
0000
ENDCHAR

STARTCHAR cns3_295C
ENCODING 10588
SWIDTH 854 0
DWIDTH 16 0
BBX 16 18 0 -2
BITMAP
0000
0000
0800
1FFF
1000
2FFC
2000
5FFC
4104
0104
1FF4
1114
1114
1FF4
0105
0105
0106
0000
ENDCHAR

STARTCHAR cns3_295D
ENCODING 10589
SWIDTH 854 0
DWIDTH 16 0
BBX 16 18 0 -2
BITMAP
0000
0000
0800
1FFE
1000
2FFC
2000
5FFC
4004
1FF4
1014
1014
1FF4
1014
1015
1FF5
1016
0000
ENDCHAR

STARTCHAR cns3_295E
ENCODING 10590
SWIDTH 854 0
DWIDTH 16 0
BBX 16 18 0 -2
BITMAP
0000
0000
2020
1020
0BFF
0050
4050
2090
11FE
0292
0492
0092
1092
2092
209C
4010
0010
0000
ENDCHAR

STARTCHAR cns3_295F
ENCODING 10591
SWIDTH 854 0
DWIDTH 16 0
BBX 16 18 0 -2
BITMAP
0000
0000
23FE
1222
0A22
0222
43FE
2222
1222
0222
0222
13FE
2222
2020
4020
4020
0020
0000
ENDCHAR

STARTCHAR cns3_2960
ENCODING 10592
SWIDTH 854 0
DWIDTH 16 0
BBX 16 18 0 -2
BITMAP
0000
0000
0020
2020
1020
0BFE
0222
4222
2222
13FE
0020
0220
0140
10C0
20A0
2318
4C07
0000
ENDCHAR

STARTCHAR cns3_2961
ENCODING 10593
SWIDTH 854 0
DWIDTH 16 0
BBX 16 18 0 -2
BITMAP
0000
0000
000C
2070
1B80
0200
0200
43FF
3210
0210
0210
0A10
1210
1210
2210
2FFF
4000
0000
ENDCHAR

STARTCHAR cns3_2962
ENCODING 10594
SWIDTH 854 0
DWIDTH 16 0
BBX 16 18 0 -2
BITMAP
0000
0000
0040
2080
1884
0102
013E
67C9
1088
0088
07FF
0088
1088
1088
2108
2108
4208
0000
ENDCHAR

STARTCHAR cns3_2963
ENCODING 10595
SWIDTH 854 0
DWIDTH 16 0
BBX 16 18 0 -2
BITMAP
0000
0000
0038
03C0
1C80
0080
7FFF
0220
0490
188C
608B
1ED0
02B0
0488
0884
1083
6700
0000
ENDCHAR

STARTCHAR cns3_2964
ENCODING 10596
SWIDTH 854 0
DWIDTH 16 0
BBX 16 18 0 -2
BITMAP
0000
0000
0220
0220
1FFE
0220
7FFF
0220
04A2
08A2
3EC4
02A8
0490
0888
1084
6083
0700
0000
ENDCHAR

STARTCHAR cns3_2965
ENCODING 10597
SWIDTH 854 0
DWIDTH 16 0
BBX 16 18 0 -2
BITMAP
0000
0000
0000
23FF
1820
0020
0020
4120
313F
0120
0120
0920
1120
1120
2120
2120
4FFF
0000
ENDCHAR

STARTCHAR cns3_2966
ENCODING 10598
SWIDTH 854 0
DWIDTH 16 0
BBX 16 18 0 -2
BITMAP
0000
0000
0020
2020
17FE
0850
0048
4088
2124
1224
0442
0041
0080
1108
227C
2784
4002
0000
ENDCHAR

STARTCHAR cns3_2967
ENCODING 10599
SWIDTH 854 0
DWIDTH 16 0
BBX 16 18 0 -2
BITMAP
0000
0000
2000
11FF
0901
0101
0101
61FF
1101
0101
0901
09FF
1101
1101
2101
21FF
4101
0000
ENDCHAR

STARTCHAR cns3_2968
ENCODING 10600
SWIDTH 854 0
DWIDTH 16 0
BBX 16 18 0 -2
BITMAP
0000
0000
0000
4000
37FE
0492
0492
4492
3492
0492
0492
0492
1492
1492
2492
2FFF
4000
0000
ENDCHAR

STARTCHAR cns3_2969
ENCODING 10601
SWIDTH 854 0
DWIDTH 16 0
BBX 16 18 0 -2
BITMAP
0000
0000
0002
2242
1A22
0222
4212
2202
1202
0204
0A04
0A24
12C8
130C
2432
20C1
4301
0000
ENDCHAR

STARTCHAR cns3_296A
ENCODING 10602
SWIDTH 854 0
DWIDTH 16 0
BBX 16 18 0 -2
BITMAP
0000
0000
0006
23F8
1822
0222
0222
4124
3124
0020
07FF
0820
1020
1020
2020
2020
41C0
0000
ENDCHAR

STARTCHAR cns3_296B
ENCODING 10603
SWIDTH 854 0
DWIDTH 16 0
BBX 16 18 0 -2
BITMAP
0000
0000
0080
2080
1900
01FF
0200
4410
351E
01F2
0712
0112
1112
111C
2111
2101
40FE
0000
ENDCHAR

STARTCHAR cns3_296C
ENCODING 10604
SWIDTH 854 0
DWIDTH 16 0
BBX 16 18 0 -2
BITMAP
0000
0000
0100
2100
1A00
03FF
0440
4440
307E
0040
0040
087E
1040
1040
2040
2040
4040
0000
ENDCHAR

STARTCHAR cns3_296D
ENCODING 10605
SWIDTH 854 0
DWIDTH 16 0
BBX 16 18 0 -2
BITMAP
0000
0000
2040
1040
08FC
0084
0108
6148
1250
0020
00D8
0706
1030
200C
20C0
4030
400C
0000
ENDCHAR

STARTCHAR cns3_296E
ENCODING 10606
SWIDTH 854 0
DWIDTH 16 0
BBX 16 18 0 -2
BITMAP
0000
0000
09FE
0804
0A44
2C28
2810
49FF
4811
0811
0812
0C10
0A10
1210
1210
2010
40E0
0000
ENDCHAR

STARTCHAR cns3_296F
ENCODING 10607
SWIDTH 854 0
DWIDTH 16 0
BBX 16 18 0 -2
BITMAP
0000
0000
0800
0BFF
0810
2E20
2820
4868
48A4
08A4
0922
0A21
0820
1420
1220
2020
4020
0000
ENDCHAR

STARTCHAR cns3_2970
ENCODING 10608
SWIDTH 854 0
DWIDTH 16 0
BBX 16 18 0 -2
BITMAP
0000
0000
0878
0848
0848
2A49
2C89
288E
4900
4BFE
0882
0844
0C44
1228
1238
20CC
4303
0000
ENDCHAR

STARTCHAR cns3_2971
ENCODING 10609
SWIDTH 854 0
DWIDTH 16 0
BBX 16 18 0 -2
BITMAP
0000
0000
0810
0810
0812
2A1C
2DF0
2810
49FE
4810
0810
0BFF
0810
1410
1210
2110
4010
0000
ENDCHAR

STARTCHAR cns3_2972
ENCODING 10610
SWIDTH 854 0
DWIDTH 16 0
BBX 16 18 0 -2
BITMAP
0000
0000
0820
0820
0820
2EA2
28A2
2924
4924
4A20
0A20
0820
0C50
1450
1288
2108
4606
0000
ENDCHAR

STARTCHAR cns3_2973
ENCODING 10611
SWIDTH 854 0
DWIDTH 16 0
BBX 16 18 0 -2
BITMAP
0000
0000
7FFF
0040
00E0
0398
0C86
3081
0000
0080
0484
0888
1150
1140
0230
040C
7807
0000
ENDCHAR

STARTCHAR cns3_2974
ENCODING 10612
SWIDTH 854 0
DWIDTH 16 0
BBX 16 18 0 -2
BITMAP
0000
0000
0820
0820
0820
2C7F
2A42
2A82
4882
4944
0A44
0828
1428
1210
2228
20C4
4303
0000
ENDCHAR

STARTCHAR cns3_2975
ENCODING 10613
SWIDTH 854 0
DWIDTH 16 0
BBX 16 18 0 -2
BITMAP
0000
0000
0807
0878
0840
2E40
287F
2841
4841
4841
087F
0841
0840
1480
2280
2100
4200
0000
ENDCHAR

STARTCHAR cns3_2976
ENCODING 10614
SWIDTH 854 0
DWIDTH 16 0
BBX 16 18 0 -2
BITMAP
0000
0000
0800
0807
0AF8
2C80
2880
48FE
48C2
08C2
08A4
08A4
1494
1488
2318
2124
42C3
0000
ENDCHAR

STARTCHAR cns3_2977
ENCODING 10615
SWIDTH 854 0
DWIDTH 16 0
BBX 16 18 0 -2
BITMAP
0000
0000
1FFE
1080
1080
1080
7FFF
0080
0080
0141
0241
0C41
303E
0000
1222
2111
4111
0000
ENDCHAR

STARTCHAR cns3_2978
ENCODING 10616
SWIDTH 854 0
DWIDTH 16 0
BBX 16 18 0 -2
BITMAP
0000
0000
0000
7FFF
0080
0190
0288
0284
0482
0481
1080
0080
0000
1244
1222
2122
4111
0000
ENDCHAR

STARTCHAR cns3_2979
ENCODING 10617
SWIDTH 854 0
DWIDTH 16 0
BBX 16 18 0 -2
BITMAP
0000
0000
0810
0810
0828
2C28
2A44
4AC6
4945
0844
0844
0844
1444
1244
2284
2084
4104
0000
ENDCHAR

STARTCHAR cns3_297A
ENCODING 10618
SWIDTH 854 0
DWIDTH 16 0
BBX 16 18 0 -2
BITMAP
0000
0000
001E
3FE0
1082
0844
0844
0000
1FFE
1002
1002
1FFE
1002
1002
1002
1FFE
1002
0000
ENDCHAR

STARTCHAR cns3_297B
ENCODING 10619
SWIDTH 854 0
DWIDTH 16 0
BBX 16 18 0 -2
BITMAP
0000
0000
0202
2442
1824
0C18
1224
6144
0222
1212
1414
1414
0808
1414
1414
2322
40C1
0000
ENDCHAR

STARTCHAR cns3_297C
ENCODING 10620
SWIDTH 854 0
DWIDTH 16 0
BBX 16 18 0 -2
BITMAP
0000
0000
2420
2420
2420
27FF
3C20
0430
0468
04A8
7CA4
2524
2522
2621
2420
2420
4420
0000
ENDCHAR

STARTCHAR cns3_297D
ENCODING 10621
SWIDTH 854 0
DWIDTH 16 0
BBX 16 18 0 -2
BITMAP
0000
0000
2420
2420
2460
247F
3FD1
2092
2114
2010
3E10
2238
2228
2244
2284
2302
4201
0000
ENDCHAR

STARTCHAR cns3_297E
ENCODING 10622
SWIDTH 854 0
DWIDTH 16 0
BBX 16 18 0 -2
BITMAP
0000
0000
2424
2424
2424
2424
3F3F
2020
2020
2020
3E3E
2222
2222
2222
2222
2222
4242
0000
ENDCHAR

STARTCHAR cns3_2A21
ENCODING 10785
SWIDTH 854 0
DWIDTH 16 0
BBX 16 18 0 -2
BITMAP
0000
0000
0820
2820
2820
49FF
7E20
8820
083E
0B22
1C22
6842
0842
0842
0882
0882
091C
0000
ENDCHAR

STARTCHAR cns3_2A22
ENCODING 10786
SWIDTH 854 0
DWIDTH 16 0
BBX 16 18 0 -2
BITMAP
0000
0000
0818
2BE0
2820
4820
7E3E
49E0
0820
0B20
1C3F
6BE0
0820
0820
0821
0821
081E
0000
ENDCHAR

STARTCHAR cns3_2A23
ENCODING 10787
SWIDTH 854 0
DWIDTH 16 0
BBX 16 18 0 -2
BITMAP
0000
0000
0820
2820
2BFE
4800
7E00
48F8
0888
0B88
1C88
6888
0888
0888
0909
0909
0A06
0000
ENDCHAR

STARTCHAR cns3_2A24
ENCODING 10788
SWIDTH 854 0
DWIDTH 16 0
BBX 16 18 0 -2
BITMAP
0000
0000
0020
2210
1410
0DFF
3410
0410
0410
0410
1DFF
2410
4410
0410
0410
05FF
3800
0000
ENDCHAR

STARTCHAR cns3_2A25
ENCODING 10789
SWIDTH 854 0
DWIDTH 16 0
BBX 16 18 0 -2
BITMAP
0000
0000
22FF
1421
0821
1421
6441
0441
048E
0C00
14FF
2481
4481
0481
0481
04FF
3881
0000
ENDCHAR

STARTCHAR cns3_2A26
ENCODING 10790
SWIDTH 854 0
DWIDTH 16 0
BBX 16 18 0 -2
BITMAP
0000
0000
2140
1240
0CFF
0881
1501
25F9
0689
0489
0C89
34F9
4481
048E
0480
0481
387F
0000
ENDCHAR

STARTCHAR cns3_2A27
ENCODING 10791
SWIDTH 854 0
DWIDTH 16 0
BBX 16 18 0 -2
BITMAP
0000
0000
0110
2210
14FF
1891
2891
4492
0490
0CFE
14C2
24A2
44A4
0494
0508
0514
3A63
0000
ENDCHAR

STARTCHAR cns3_2A28
ENCODING 10792
SWIDTH 854 0
DWIDTH 16 0
BBX 16 18 0 -2
BITMAP
0000
0000
0110
2220
14FF
1881
2481
4481
0481
0C81
14FF
2481
4481
0481
0481
04FF
3881
0000
ENDCHAR

STARTCHAR cns3_2A29
ENCODING 10793
SWIDTH 854 0
DWIDTH 16 0
BBX 16 18 0 -2
BITMAP
0000
0000
2220
1420
0820
19FE
2420
4420
0420
07FF
0C20
1420
2440
0444
0482
049E
3BE1
0000
ENDCHAR

STARTCHAR cns3_2A2A
ENCODING 10794
SWIDTH 854 0
DWIDTH 16 0
BBX 16 18 0 -2
BITMAP
0000
0000
2280
1480
09FE
1900
2510
4690
049E
04F2
0F92
1492
249C
0490
0481
0481
387E
0000
ENDCHAR

STARTCHAR cns3_2A2B
ENCODING 10795
SWIDTH 854 0
DWIDTH 16 0
BBX 16 18 0 -2
BITMAP
0000
0000
0020
0020
7E44
1042
10BE
13C1
7E91
1090
1090
1090
1690
1890
6111
0111
020E
0000
ENDCHAR

STARTCHAR cns3_2A2C
ENCODING 10796
SWIDTH 854 0
DWIDTH 16 0
BBX 16 18 0 -2
BITMAP
0000
0000
0040
7E20
1020
17FF
1020
1030
7E28
1028
1024
1024
1622
1820
6020
0020
0020
0000
ENDCHAR

STARTCHAR cns3_2A2D
ENCODING 10797
SWIDTH 854 0
DWIDTH 16 0
BBX 16 18 0 -2
BITMAP
0000
0000
0010
7E10
0810
09FF
0810
0810
7E10
09FF
0810
0810
0E10
1828
6044
0082
0301
0000
ENDCHAR

STARTCHAR cns3_2A2E
ENCODING 10798
SWIDTH 854 0
DWIDTH 16 0
BBX 16 18 0 -2
BITMAP
0000
0000
0000
7EFF
0810
0810
08FE
0892
7E92
0892
0892
0892
0E92
189C
6010
0010
0010
0000
ENDCHAR

STARTCHAR cns3_2A2F
ENCODING 10799
SWIDTH 854 0
DWIDTH 16 0
BBX 16 18 0 -2
BITMAP
0000
0000
0000
7FFF
1010
1020
1060
7EA8
10A4
1124
1122
1622
1821
6020
0020
0020
01C0
0000
ENDCHAR

STARTCHAR cns3_2A30
ENCODING 10800
SWIDTH 854 0
DWIDTH 16 0
BBX 16 18 0 -2
BITMAP
0000
0000
0020
7E20
0820
083F
0820
7E20
09FE
0882
0844
0E44
1828
6010
0068
0186
0601
0000
ENDCHAR

STARTCHAR cns3_2A31
ENCODING 10801
SWIDTH 854 0
DWIDTH 16 0
BBX 16 18 0 -2
BITMAP
0000
0000
0040
0040
7E80
08FE
0922
0924
0A28
7E20
0820
0850
0850
0E88
1888
6104
0603
0000
ENDCHAR

STARTCHAR cns3_2A32
ENCODING 10802
SWIDTH 854 0
DWIDTH 16 0
BBX 16 18 0 -2
BITMAP
0000
0000
0020
0020
0050
7E88
0904
0A03
09F8
7E00
0800
0BFE
0802
0E04
1808
6010
0060
0000
ENDCHAR

STARTCHAR cns3_2A33
ENCODING 10803
SWIDTH 854 0
DWIDTH 16 0
BBX 16 18 0 -2
BITMAP
0000
0000
0000
0058
7E48
0848
0844
0884
0882
7E91
0920
0820
0844
0E42
708E
00F1
0101
0000
ENDCHAR

STARTCHAR cns3_2A34
ENCODING 10804
SWIDTH 854 0
DWIDTH 16 0
BBX 16 18 0 -2
BITMAP
0000
0000
1000
13FF
7C40
5440
5440
547C
5444
5444
5464
5454
544C
5C84
10FD
1385
1007
0000
ENDCHAR

STARTCHAR cns3_2A35
ENCODING 10805
SWIDTH 854 0
DWIDTH 16 0
BBX 16 18 0 -2
BITMAP
0000
0000
0020
7F20
4940
497E
4982
4982
7F04
4904
4908
4908
4918
7F24
0044
0082
0301
0000
ENDCHAR

STARTCHAR cns3_2A36
ENCODING 10806
SWIDTH 854 0
DWIDTH 16 0
BBX 16 18 0 -2
BITMAP
0000
0000
1102
1104
0884
0888
0000
3FFE
2082
2082
2082
3FFE
2082
2082
2082
3FFE
2002
0000
ENDCHAR

STARTCHAR cns3_2A37
ENCODING 10807
SWIDTH 854 0
DWIDTH 16 0
BBX 16 18 0 -2
BITMAP
0000
0000
3FFE
0000
4001
5FFD
5085
5085
5085
5FFD
5085
5085
5085
5FFD
4001
7FFF
4001
0000
ENDCHAR

STARTCHAR cns3_2A38
ENCODING 10808
SWIDTH 854 0
DWIDTH 16 0
BBX 16 18 0 -2
BITMAP
0000
0080
0080
1FFE
1082
1082
1FFE
1082
1082
1FFE
0000
7FFF
0410
0410
0810
0810
1010
0000
ENDCHAR

STARTCHAR cns3_2A39
ENCODING 10809
SWIDTH 854 0
DWIDTH 16 0
BBX 16 18 0 -2
BITMAP
0000
0000
3FFE
2082
2082
3FFE
2082
2082
3FFE
2412
0410
7FFF
0410
0410
0810
0810
1010
0000
ENDCHAR

STARTCHAR cns3_2A3A
ENCODING 10810
SWIDTH 854 0
DWIDTH 16 0
BBX 16 18 0 -2
BITMAP
0000
0100
0080
0040
0FFF
4804
2804
2804
1BFF
0804
1904
2884
4884
0844
1004
1004
2038
0000
ENDCHAR

STARTCHAR cns3_2A3B
ENCODING 10811
SWIDTH 854 0
DWIDTH 16 0
BBX 16 18 0 -2
BITMAP
0000
0100
0080
0040
0FFF
4800
2BFE
2800
1800
0FFF
0880
39FE
4902
0802
0802
1002
307C
0000
ENDCHAR

STARTCHAR cns3_2A3C
ENCODING 10812
SWIDTH 854 0
DWIDTH 16 0
BBX 16 18 0 -2
BITMAP
0000
0080
0040
0020
0FFF
4820
2820
2820
1820
09FE
1820
2820
4820
0820
1020
13FF
2000
0000
ENDCHAR

STARTCHAR cns3_2A3D
ENCODING 10813
SWIDTH 854 0
DWIDTH 16 0
BBX 16 18 0 -2
BITMAP
0000
0000
0300
7CFE
0804
0808
7F10
0810
1DFF
2A10
2910
4810
0810
0810
0810
0810
0860
0000
ENDCHAR

STARTCHAR cns3_2A3E
ENCODING 10814
SWIDTH 854 0
DWIDTH 16 0
BBX 16 18 0 -2
BITMAP
0000
0000
001C
3FE0
0080
7FFF
01C0
02A0
0490
188C
63E2
0221
0220
0422
0422
0822
301C
0000
ENDCHAR

STARTCHAR cns3_2A3F
ENCODING 10815
SWIDTH 854 0
DWIDTH 16 0
BBX 16 18 0 -2
BITMAP
0000
0000
0300
7CFE
0810
0810
7F10
0810
1DFF
1A10
2910
2810
4810
0810
0810
0810
0810
0000
ENDCHAR

STARTCHAR cns3_2A40
ENCODING 10816
SWIDTH 854 0
DWIDTH 16 0
BBX 16 18 0 -2
BITMAP
0000
0000
06FE
7802
0802
0802
7F02
08FE
1C82
1A80
2980
2880
4880
0881
0881
0881
087E
0000
ENDCHAR

STARTCHAR cns3_2A41
ENCODING 10817
SWIDTH 854 0
DWIDTH 16 0
BBX 16 18 0 -2
BITMAP
0000
0000
0610
7890
0890
0896
7FBA
0CD2
1A92
2B94
2894
4890
4890
0891
0881
0881
087E
0000
ENDCHAR

STARTCHAR cns3_2A42
ENCODING 10818
SWIDTH 854 0
DWIDTH 16 0
BBX 16 18 0 -2
BITMAP
0000
0000
0640
7840
0840
09F8
7E48
0848
1D48
2AC8
2A68
4858
4848
0889
0889
0909
0A06
0000
ENDCHAR

STARTCHAR cns3_2A43
ENCODING 10819
SWIDTH 854 0
DWIDTH 16 0
BBX 16 18 0 -2
BITMAP
0000
0000
0600
780E
09F0
0810
7E10
0810
1DFF
2A10
2A10
4810
4810
0810
0810
0810
0810
0000
ENDCHAR

STARTCHAR cns3_2A44
ENCODING 10820
SWIDTH 854 0
DWIDTH 16 0
BBX 16 18 0 -2
BITMAP
0000
0000
001C
1FE0
0080
7FFF
02B0
0C8C
1083
6000
0070
0F80
0080
7FFE
0080
0080
0080
0000
ENDCHAR

STARTCHAR cns3_2A45
ENCODING 10821
SWIDTH 854 0
DWIDTH 16 0
BBX 16 18 0 -2
BITMAP
0000
0000
0080
0080
3FFF
2221
2221
041E
1880
0080
7FFF
0080
0140
0140
0220
0C18
7006
0000
ENDCHAR

STARTCHAR cns3_2A46
ENCODING 10822
SWIDTH 854 0
DWIDTH 16 0
BBX 16 18 0 -2
BITMAP
0000
0000
0800
087E
0842
7F42
0042
0242
2242
227E
2242
1240
1440
1440
1741
1841
603E
0000
ENDCHAR

STARTCHAR cns3_2A47
ENCODING 10823
SWIDTH 854 0
DWIDTH 16 0
BBX 16 18 0 -2
BITMAP
0000
0000
0800
080E
08F0
7F10
0010
0210
23FF
2210
2210
1210
1410
1410
1710
1810
6010
0000
ENDCHAR

STARTCHAR cns3_2A48
ENCODING 10824
SWIDTH 854 0
DWIDTH 16 0
BBX 16 18 0 -2
BITMAP
0000
0000
0800
4978
4948
2A48
2A48
7F48
0848
0C48
1A48
2948
2888
4888
0909
0909
0A06
0000
ENDCHAR

STARTCHAR cns3_2A49
ENCODING 10825
SWIDTH 854 0
DWIDTH 16 0
BBX 16 18 0 -2
BITMAP
0000
0000
0080
01C0
0630
188C
6083
0888
0888
0490
7FFF
02A0
0490
088C
1083
6080
0080
0000
ENDCHAR

STARTCHAR cns3_2A4A
ENCODING 10826
SWIDTH 854 0
DWIDTH 16 0
BBX 16 18 0 -2
BITMAP
0000
0000
0400
08FF
1011
2211
4411
3811
1011
1211
2111
7F11
40A1
2A21
4941
4941
008E
0000
ENDCHAR

STARTCHAR cns3_2A4B
ENCODING 10827
SWIDTH 854 0
DWIDTH 16 0
BBX 16 18 0 -2
BITMAP
0000
0000
0410
0810
1010
22FF
4411
3811
1011
1211
2111
7F11
40A1
2A21
4941
4941
008E
0000
ENDCHAR

STARTCHAR cns3_2A4C
ENCODING 10828
SWIDTH 854 0
DWIDTH 16 0
BBX 16 18 0 -2
BITMAP
0000
0000
3FFE
2412
2412
2222
3FFE
2082
2882
2942
2A22
2C1A
2802
2FFA
2002
2002
201C
0000
ENDCHAR

STARTCHAR cns3_2A4D
ENCODING 10829
SWIDTH 854 0
DWIDTH 16 0
BBX 16 18 0 -2
BITMAP
0000
0000
3FFE
2222
2222
2222
3FFE
0000
3FFE
0080
0080
7FFF
0080
0080
0080
0080
0080
0000
ENDCHAR

STARTCHAR cns3_2A4E
ENCODING 10830
SWIDTH 854 0
DWIDTH 16 0
BBX 16 18 0 -2
BITMAP
0000
0000
3FFE
2422
2422
2822
0821
701F
0080
7FFF
01C0
02A0
02A0
0490
0888
1084
6083
0000
ENDCHAR

STARTCHAR cns3_2A4F
ENCODING 10831
SWIDTH 854 0
DWIDTH 16 0
BBX 16 18 0 -2
BITMAP
0000
0000
3C10
2410
2416
2438
35D0
2C10
25FE
2410
2C10
37FF
2410
2410
2410
4410
5810
0000
ENDCHAR

STARTCHAR cns3_2A50
ENCODING 10832
SWIDTH 854 0
DWIDTH 16 0
BBX 16 18 0 -2
BITMAP
0000
0000
3C00
24FE
2400
3400
2C00
25FF
2448
2448
2C48
3448
2448
2448
2489
4489
5906
0000
ENDCHAR

STARTCHAR cns3_2A51
ENCODING 10833
SWIDTH 854 0
DWIDTH 16 0
BBX 16 18 0 -2
BITMAP
0000
0000
3E20
2220
2220
33FC
2A24
2624
2224
23FF
2620
3A20
2250
2288
2284
4302
5C00
0000
ENDCHAR

STARTCHAR cns3_2A52
ENCODING 10834
SWIDTH 854 0
DWIDTH 16 0
BBX 16 18 0 -2
BITMAP
0000
0000
3E20
2228
2224
3222
2A20
27FF
2220
2220
2E20
3250
2250
2288
2284
4302
5C01
0000
ENDCHAR

STARTCHAR cns3_2A53
ENCODING 10835
SWIDTH 854 0
DWIDTH 16 0
BBX 16 18 0 -2
BITMAP
0000
0000
3DFC
2444
2444
3448
2C50
244E
2442
24A2
2CA4
3494
2514
2508
2514
4662
5A81
0000
ENDCHAR

STARTCHAR cns3_2A54
ENCODING 10836
SWIDTH 854 0
DWIDTH 16 0
BBX 16 18 0 -2
BITMAP
0000
0000
3C40
2440
24FF
3495
2D25
2525
2449
2449
2C91
3491
2521
2421
2441
4481
581E
0000
ENDCHAR

STARTCHAR cns3_2A55
ENCODING 10837
SWIDTH 854 0
DWIDTH 16 0
BBX 16 18 0 -2
BITMAP
0000
0000
3C88
2488
2488
3488
2CFF
2480
2480
2480
2CFE
3482
2482
2482
2482
4502
5902
0000
ENDCHAR

STARTCHAR cns3_2A56
ENCODING 10838
SWIDTH 854 0
DWIDTH 16 0
BBX 16 18 0 -2
BITMAP
0000
0000
3C10
2410
2410
34FE
2C10
2410
2410
2DFF
3410
2410
2410
2428
2444
4482
5B01
0000
ENDCHAR

STARTCHAR cns3_2A57
ENCODING 10839
SWIDTH 854 0
DWIDTH 16 0
BBX 16 18 0 -2
BITMAP
0000
0000
3C88
2488
2488
3488
2C88
2488
2488
24FE
2C88
3488
2488
2489
2489
44E9
5B07
0000
ENDCHAR

STARTCHAR cns3_2A58
ENCODING 10840
SWIDTH 854 0
DWIDTH 16 0
BBX 16 18 0 -2
BITMAP
0000
0000
3C00
25FF
2410
2420
3460
2C68
24A4
24A2
2D21
3520
2420
2420
2420
4420
5C20
0000
ENDCHAR

STARTCHAR cns3_2A59
ENCODING 10841
SWIDTH 854 0
DWIDTH 16 0
BBX 16 18 0 -2
BITMAP
0000
0000
3C20
2428
2424
2424
37FF
2C20
2420
2430
2C30
3450
2450
2490
2491
4511
5A0E
0000
ENDCHAR

STARTCHAR cns3_2A5A
ENCODING 10842
SWIDTH 854 0
DWIDTH 16 0
BBX 16 18 0 -2
BITMAP
0000
0000
3C20
2420
247F
2441
3481
2D01
2679
2401
2C01
3401
2479
2401
2401
4401
5C1E
0000
ENDCHAR

STARTCHAR cns3_2A5B
ENCODING 10843
SWIDTH 854 0
DWIDTH 16 0
BBX 16 18 0 -2
BITMAP
0000
0000
3E5C
2244
2244
3284
2A82
2702
2301
22FE
2E22
3222
2242
2242
2282
4282
5D3C
0000
ENDCHAR

STARTCHAR cns3_2A5C
ENCODING 10844
SWIDTH 854 0
DWIDTH 16 0
BBX 16 18 0 -2
BITMAP
0000
0000
7F90
4810
4810
4810
4810
7F10
4118
4114
7F12
4811
4810
4810
4810
7F90
4010
0000
ENDCHAR

STARTCHAR cns3_2A5D
ENCODING 10845
SWIDTH 854 0
DWIDTH 16 0
BBX 16 18 0 -2
BITMAP
0000
0000
0080
0180
0240
0420
0890
108C
67F3
0080
0080
3FFC
0000
0FF8
0808
0FF8
0808
0000
ENDCHAR

STARTCHAR cns3_2A5E
ENCODING 10846
SWIDTH 854 0
DWIDTH 16 0
BBX 16 18 0 -2
BITMAP
0000
0000
0808
7F7F
0808
0908
0080
0040
7FFF
00A0
0090
0088
0084
0082
0080
0080
0080
0000
ENDCHAR

STARTCHAR cns3_2A5F
ENCODING 10847
SWIDTH 854 0
DWIDTH 16 0
BBX 16 18 0 -2
BITMAP
0000
0000
0808
7F7F
0808
0808
0000
1FFC
0410
0410
0410
7FFF
0410
0410
0810
0810
1010
0000
ENDCHAR

STARTCHAR cns3_2A60
ENCODING 10848
SWIDTH 854 0
DWIDTH 16 0
BBX 16 18 0 -2
BITMAP
0000
0000
0808
7F7F
0808
0808
1FFE
0080
0080
7FFF
0080
00C0
0140
0142
0242
0442
183C
0000
ENDCHAR

STARTCHAR cns3_2A61
ENCODING 10849
SWIDTH 854 0
DWIDTH 16 0
BBX 16 18 0 -2
BITMAP
0000
0000
0808
7F7F
0808
0808
7FFF
0080
0080
1FFE
1082
1082
1082
1082
109C
1080
0080
0000
ENDCHAR

STARTCHAR cns3_2A62
ENCODING 10850
SWIDTH 854 0
DWIDTH 16 0
BBX 16 18 0 -2
BITMAP
0000
0000
0808
7F7F
0808
0808
07F0
0510
0490
0490
0410
7FFF
0410
0410
0810
0810
1060
0000
ENDCHAR

STARTCHAR cns3_2A63
ENCODING 10851
SWIDTH 854 0
DWIDTH 16 0
BBX 16 18 0 -2
BITMAP
0000
0000
0808
0808
7F7F
0808
0080
0080
048C
0882
1085
3088
0090
03A0
00C0
0700
7800
0000
ENDCHAR

STARTCHAR cns3_2A64
ENCODING 10852
SWIDTH 854 0
DWIDTH 16 0
BBX 16 18 0 -2
BITMAP
0000
0000
0808
0808
7F7F
0808
0480
0880
1FFE
1080
2080
7FFF
0080
0080
0080
0080
0080
0000
ENDCHAR

STARTCHAR cns3_2A65
ENCODING 10853
SWIDTH 854 0
DWIDTH 16 0
BBX 16 18 0 -2
BITMAP
0000
0808
0808
7F7F
0808
0808
033E
1C22
1022
1022
1022
1322
1C22
702E
0020
0020
0020
0000
ENDCHAR

STARTCHAR cns3_2A66
ENCODING 10854
SWIDTH 854 0
DWIDTH 16 0
BBX 16 18 0 -2
BITMAP
0000
0000
0808
0808
7F7F
0808
01F0
1E80
1080
1080
1FFE
1080
1080
1040
1322
1C12
300C
0000
ENDCHAR

STARTCHAR cns3_2A67
ENCODING 10855
SWIDTH 854 0
DWIDTH 16 0
BBX 16 18 0 -2
BITMAP
0000
0000
0808
0808
7F7F
0808
0200
04FE
0802
5082
2102
1A02
0502
0482
09C2
1E42
305C
0000
ENDCHAR

STARTCHAR cns3_2A68
ENCODING 10856
SWIDTH 854 0
DWIDTH 16 0
BBX 16 18 0 -2
BITMAP
0000
0000
0808
0808
7F7F
0808
0000
7FFF
1110
1110
1112
1212
1212
1C1C
1000
1000
1FFF
0000
ENDCHAR

STARTCHAR cns3_2A69
ENCODING 10857
SWIDTH 854 0
DWIDTH 16 0
BBX 16 18 0 -2
BITMAP
0000
0000
0808
0808
7F7F
0808
1FFC
1004
1004
7FFF
1004
1004
7FFF
1004
1004
1004
1038
0000
ENDCHAR

STARTCHAR cns3_2A6A
ENCODING 10858
SWIDTH 854 0
DWIDTH 16 0
BBX 16 18 0 -2
BITMAP
0000
0000
0808
0808
7F7F
0808
0C10
0320
00C0
0730
380E
0610
0120
00C0
0060
0398
3C07
0000
ENDCHAR

STARTCHAR cns3_2A6B
ENCODING 10859
SWIDTH 854 0
DWIDTH 16 0
BBX 16 18 0 -2
BITMAP
0000
0000
0808
0808
7F7F
0808
0006
0FF8
0800
0FFE
0802
0802
0FFE
0800
1000
1000
2000
0000
ENDCHAR

STARTCHAR cns3_2A6C
ENCODING 10860
SWIDTH 854 0
DWIDTH 16 0
BBX 16 18 0 -2
BITMAP
0000
0000
0808
0808
7F7F
0888
0180
0260
0418
1C06
6401
04E0
0700
0400
0402
0402
03FC
0000
ENDCHAR

STARTCHAR cns3_2A6D
ENCODING 10861
SWIDTH 854 0
DWIDTH 16 0
BBX 16 18 0 -2
BITMAP
0000
0080
0080
00FE
0080
1FFF
1081
17FD
1082
1082
12FE
1200
1238
13C2
2202
2202
41FC
0000
ENDCHAR

STARTCHAR cns3_2A6E
ENCODING 10862
SWIDTH 854 0
DWIDTH 16 0
BBX 16 18 0 -2
BITMAP
0000
0000
0080
0080
7FFF
068C
1850
69B0
0E0C
1883
0080
0080
7FFF
0080
0080
0080
0080
0000
ENDCHAR

STARTCHAR cns3_2A6F
ENCODING 10863
SWIDTH 854 0
DWIDTH 16 0
BBX 16 18 0 -2
BITMAP
0000
0000
2020
1020
13FF
0040
0040
787E
0842
0842
1042
1082
0882
0902
101C
2C03
43FC
0000
ENDCHAR

STARTCHAR cns3_2A70
ENCODING 10864
SWIDTH 854 0
DWIDTH 16 0
BBX 16 18 0 -2
BITMAP
0000
0000
2000
10FF
1081
0081
00FF
7881
0881
08FF
1081
1081
0901
0901
120E
2C01
43FE
0000
ENDCHAR

STARTCHAR cns3_2A71
ENCODING 10865
SWIDTH 854 0
DWIDTH 16 0
BBX 16 18 0 -2
BITMAP
0000
0000
2010
1010
13FF
0084
0084
7844
0848
0848
1028
1010
0828
08C6
1301
2C01
43FE
0000
ENDCHAR

STARTCHAR cns3_2A72
ENCODING 10866
SWIDTH 854 0
DWIDTH 16 0
BBX 16 18 0 -2
BITMAP
0000
0000
2000
13FF
1010
01FF
0111
7911
0911
0911
1111
111E
0810
0810
1010
2C03
43FC
0000
ENDCHAR

STARTCHAR cns3_2A73
ENCODING 10867
SWIDTH 854 0
DWIDTH 16 0
BBX 16 18 0 -2
BITMAP
0000
0000
2000
13FF
1010
0010
0020
7860
08A8
08A4
1122
1221
0820
0820
1020
2C03
43FC
0000
ENDCHAR

STARTCHAR cns3_2A74
ENCODING 10868
SWIDTH 854 0
DWIDTH 16 0
BBX 16 18 0 -2
BITMAP
0000
0000
2020
1020
1020
03FF
0030
7828
0848
0844
10A4
1092
0909
0A00
1000
2C03
43FC
0000
ENDCHAR

STARTCHAR cns3_2A75
ENCODING 10869
SWIDTH 854 0
DWIDTH 16 0
BBX 16 18 0 -2
BITMAP
0000
0000
7FDF
1011
1011
1012
1F12
1114
1114
2912
2512
2311
2111
2111
2F16
7130
00D0
0000
ENDCHAR

STARTCHAR cns3_2A76
ENCODING 10870
SWIDTH 854 0
DWIDTH 16 0
BBX 16 18 0 -2
BITMAP
0000
0000
1F9F
1091
1091
1092
1092
1F94
1094
1092
1092
1F91
1091
1091
1096
7FF0
0010
0000
ENDCHAR

STARTCHAR cns3_2A77
ENCODING 10871
SWIDTH 854 0
DWIDTH 16 0
BBX 16 18 0 -2
BITMAP
0000
0000
0800
081F
1011
1FD1
2052
2052
5E54
1254
1252
1252
1251
1E51
1056
0050
0790
0000
ENDCHAR

STARTCHAR cns3_2A78
ENCODING 10872
SWIDTH 854 0
DWIDTH 16 0
BBX 16 18 0 -2
BITMAP
0000
0000
083F
1021
3F21
2222
4222
0424
3FA4
00A2
00A2
7FA1
00A1
00A1
00A6
3FA0
0020
0000
ENDCHAR

STARTCHAR cns3_2A79
ENCODING 10873
SWIDTH 854 0
DWIDTH 16 0
BBX 16 18 0 -2
BITMAP
0000
0000
7C00
47FF
4410
4810
4890
5090
509E
4890
4890
4490
4490
4490
7890
47FF
4000
0000
ENDCHAR

STARTCHAR cns3_2A7A
ENCODING 10874
SWIDTH 854 0
DWIDTH 16 0
BBX 16 18 0 -2
BITMAP
0000
0000
7C00
45FF
4511
4911
4911
5111
5111
49FF
4911
4511
4511
4511
5911
41FF
4101
0000
ENDCHAR

STARTCHAR cns3_2A7B
ENCODING 10875
SWIDTH 854 0
DWIDTH 16 0
BBX 16 18 0 -2
BITMAP
0000
0000
7C40
4440
44FF
4880
4910
5290
509E
48F2
4B92
4492
4492
449C
7891
4081
407E
0000
ENDCHAR

STARTCHAR cns3_2A7C
ENCODING 10876
SWIDTH 854 0
DWIDTH 16 0
BBX 16 18 0 -2
BITMAP
0000
0000
7C10
4430
4448
4884
4942
5221
5010
4808
4BFE
4402
4804
7048
4020
4010
4008
0000
ENDCHAR

STARTCHAR cns3_2A7D
ENCODING 10877
SWIDTH 854 0
DWIDTH 16 0
BBX 16 18 0 -2
BITMAP
0000
0000
0080
1FF8
0088
0088
1FFE
0088
1FF8
0088
10C4
0CA8
0390
0C88
3086
0080
0700
0000
ENDCHAR

STARTCHAR cns3_2A7E
ENCODING 10878
SWIDTH 854 0
DWIDTH 16 0
BBX 16 18 0 -2
BITMAP
0000
0080
0080
3FFE
0080
1FFC
0080
7FFF
0000
1FFC
1084
1084
1FFC
1004
1004
1004
1038
0000
ENDCHAR

STARTCHAR cns3_2B21
ENCODING 11041
SWIDTH 854 0
DWIDTH 16 0
BBX 16 18 0 -2
BITMAP
0000
0000
7FFF
0080
0100
3FFE
2002
2002
27F2
2412
2412
2412
2412
27F2
2002
3FFE
2002
0000
ENDCHAR

STARTCHAR cns3_2B22
ENCODING 11042
SWIDTH 854 0
DWIDTH 16 0
BBX 16 18 0 -2
BITMAP
0000
0000
001C
3FE0
0080
3FFE
0488
0488
3FFE
0488
7FFF
01C0
02A0
0490
0888
1084
6083
0000
ENDCHAR

STARTCHAR cns3_2B23
ENCODING 11043
SWIDTH 854 0
DWIDTH 16 0
BBX 16 18 0 -2
BITMAP
0000
0800
0840
7F40
0840
7F40
4140
4140
7F40
4140
4140
7F40
0840
7F41
0841
0841
083E
0000
ENDCHAR

STARTCHAR cns3_2B24
ENCODING 11044
SWIDTH 854 0
DWIDTH 16 0
BBX 16 18 0 -2
BITMAP
0000
0000
0100
0080
1FFC
0410
0220
0220
3FFE
0080
7FFF
01C0
06B0
188C
6083
0080
0080
0000
ENDCHAR

STARTCHAR cns3_2B25
ENCODING 11045
SWIDTH 854 0
DWIDTH 16 0
BBX 16 18 0 -2
BITMAP
0000
0000
0100
0080
7FFF
0000
0FFC
0804
0FFC
0804
0FFC
0080
0490
0888
1084
2082
0300
0000
ENDCHAR

STARTCHAR cns3_2B26
ENCODING 11046
SWIDTH 854 0
DWIDTH 16 0
BBX 16 18 0 -2
BITMAP
0000
0100
0080
7FFF
0000
0FF8
0808
0808
0FF8
0000
1FFC
1004
1004
1FFC
1004
1004
1FFC
0000
ENDCHAR

STARTCHAR cns3_2B27
ENCODING 11047
SWIDTH 854 0
DWIDTH 16 0
BBX 16 18 0 -2
BITMAP
0000
0000
0100
0080
7FFF
0200
02FE
0482
0882
18FE
2882
4882
08FE
0882
0800
0800
0BFF
0000
ENDCHAR

STARTCHAR cns3_2B28
ENCODING 11048
SWIDTH 854 0
DWIDTH 16 0
BBX 16 18 0 -2
BITMAP
0000
0000
0420
0410
05FE
0902
0902
18F8
1800
2800
4BFF
0848
0848
0848
0889
0889
090E
0000
ENDCHAR

STARTCHAR cns3_2B29
ENCODING 11049
SWIDTH 854 0
DWIDTH 16 0
BBX 16 18 0 -2
BITMAP
0000
0000
0840
0820
0BFE
1202
1222
2020
37FF
5030
5068
10A8
1124
1222
1421
1020
1020
0000
ENDCHAR

STARTCHAR cns3_2B2A
ENCODING 11050
SWIDTH 854 0
DWIDTH 16 0
BBX 16 18 0 -2
BITMAP
0000
0000
05FE
0410
0810
09FE
1010
1010
2BFF
2888
4888
0FFF
0888
0888
0908
0908
0A08
0000
ENDCHAR

STARTCHAR cns3_2B2B
ENCODING 11051
SWIDTH 854 0
DWIDTH 16 0
BBX 16 18 0 -2
BITMAP
0000
0000
0820
0822
0BFC
1024
1028
2BFF
2820
487C
4988
0E10
0820
0BFE
0820
0820
08E0
0000
ENDCHAR

STARTCHAR cns3_2B2C
ENCODING 11052
SWIDTH 854 0
DWIDTH 16 0
BBX 16 18 0 -2
BITMAP
0000
0000
0400
07FF
0800
0800
11FE
1902
2902
2902
49FE
0800
0904
0884
0848
0848
0BFF
0000
ENDCHAR

STARTCHAR cns3_2B2D
ENCODING 11053
SWIDTH 854 0
DWIDTH 16 0
BBX 16 18 0 -2
BITMAP
0000
0000
0800
0BFE
0842
1042
17FF
2842
2BFE
4840
4880
08FE
0942
0A42
0C42
087E
0842
0000
ENDCHAR

STARTCHAR cns3_2B2E
ENCODING 11054
SWIDTH 854 0
DWIDTH 16 0
BBX 16 18 0 -2
BITMAP
0000
0000
0400
05FE
0502
0902
0902
11FE
1800
281C
48F0
0810
08FE
0810
0810
0BFF
0800
0000
ENDCHAR

STARTCHAR cns3_2B2F
ENCODING 11055
SWIDTH 854 0
DWIDTH 16 0
BBX 16 18 0 -2
BITMAP
0000
0000
0890
0890
09FE
1110
1210
2810
2BFF
4800
4800
09FE
0902
0902
0902
09FE
0902
0000
ENDCHAR

STARTCHAR cns3_2B30
ENCODING 11056
SWIDTH 854 0
DWIDTH 16 0
BBX 16 18 0 -2
BITMAP
0000
0000
0800
0FEF
0929
1129
17EA
292A
2929
4929
4FE9
0929
0929
0929
0A2E
0A28
0DC8
0000
ENDCHAR

STARTCHAR cns3_2B31
ENCODING 11057
SWIDTH 854 0
DWIDTH 16 0
BBX 16 18 0 -2
BITMAP
0000
0000
0410
0410
09FE
0902
11FE
1902
29FE
2902
493F
0BC6
081A
0862
0982
0E02
080E
0000
ENDCHAR

STARTCHAR cns3_2B32
ENCODING 11058
SWIDTH 854 0
DWIDTH 16 0
BBX 16 18 0 -2
BITMAP
0000
0000
0420
0420
0850
0888
1104
12FB
2420
3020
57FF
1028
1124
1224
1222
1421
10E0
0000
ENDCHAR

STARTCHAR cns3_2B33
ENCODING 11059
SWIDTH 854 0
DWIDTH 16 0
BBX 16 18 0 -2
BITMAP
0000
0000
0820
0824
0822
17FF
1020
23FE
3222
53FE
5222
1222
13FE
1222
1222
1222
1226
0000
ENDCHAR

STARTCHAR cns3_2B34
ENCODING 11060
SWIDTH 854 0
DWIDTH 16 0
BBX 16 18 0 -2
BITMAP
0000
0000
0820
0820
0FFF
1020
13FE
2222
33FE
5222
5222
13FE
1020
17FF
1020
1020
1020
0000
ENDCHAR

STARTCHAR cns3_2B35
ENCODING 11061
SWIDTH 854 0
DWIDTH 16 0
BBX 16 18 0 -2
BITMAP
0000
0000
0800
08FC
0884
1084
10FC
2800
29FE
4820
4820
0FFF
0820
0850
0888
0904
0E03
0000
ENDCHAR

STARTCHAR cns3_2B36
ENCODING 11062
SWIDTH 854 0
DWIDTH 16 0
BBX 16 18 0 -2
BITMAP
0000
0000
0F80
0140
0220
0410
1BEC
6003
1F12
0512
0912
0912
3FD2
0A12
1212
1202
7FCC
0000
ENDCHAR

STARTCHAR cns3_2B37
ENCODING 11063
SWIDTH 854 0
DWIDTH 16 0
BBX 16 18 0 -2
BITMAP
0000
0000
0F80
0140
0220
0410
1BEC
6003
1F12
1114
1F24
1128
1148
1F44
1124
1122
1712
0000
ENDCHAR

STARTCHAR cns3_2B38
ENCODING 11064
SWIDTH 854 0
DWIDTH 16 0
BBX 16 18 0 -2
BITMAP
0000
0000
0408
0210
0120
1FFC
00C0
0384
0C88
3050
0360
0C50
31C8
0644
1843
6040
0380
0000
ENDCHAR

STARTCHAR cns3_2B39
ENCODING 11065
SWIDTH 854 0
DWIDTH 16 0
BBX 16 18 0 -2
BITMAP
0000
0000
7FFF
4081
4101
5FFD
5005
1FFC
1004
1004
1FFC
1104
01FF
7F00
0101
0101
00FE
0000
ENDCHAR

STARTCHAR cns3_2B3A
ENCODING 11066
SWIDTH 854 0
DWIDTH 16 0
BBX 16 18 0 -2
BITMAP
0000
0000
7FFF
4001
4001
5F11
0010
00FF
7FA2
1222
1214
1208
1234
12C2
2201
2200
41FE
0000
ENDCHAR

STARTCHAR cns3_2B3B
ENCODING 11067
SWIDTH 854 0
DWIDTH 16 0
BBX 16 18 0 -2
BITMAP
0000
0000
0020
4020
27FF
2020
13FE
0222
0222
1222
13FE
1060
20B0
20A8
4124
4223
0C20
0000
ENDCHAR

STARTCHAR cns3_2B3C
ENCODING 11068
SWIDTH 854 0
DWIDTH 16 0
BBX 16 18 0 -2
BITMAP
0000
0000
07FF
4491
2491
2493
1513
050D
0601
14F9
1489
1489
2489
24F9
4401
4401
040E
0000
ENDCHAR

STARTCHAR cns3_2B3D
ENCODING 11069
SWIDTH 854 0
DWIDTH 16 0
BBX 16 18 0 -2
BITMAP
0000
0000
0080
4080
21F8
2210
1410
03FE
0222
0A22
13FE
1050
2050
2090
4111
4211
0C0E
0000
ENDCHAR

STARTCHAR cns3_2B3E
ENCODING 11070
SWIDTH 854 0
DWIDTH 16 0
BBX 16 18 0 -2
BITMAP
0000
0000
0020
4020
2050
2088
1104
02FB
0C20
0020
17FF
1120
1128
2224
2222
4421
01C0
0000
ENDCHAR

STARTCHAR cns3_2B3F
ENCODING 11071
SWIDTH 854 0
DWIDTH 16 0
BBX 16 18 0 -2
BITMAP
0000
0000
0001
3FE9
0009
0009
1FC9
1049
1049
1049
1FC9
0049
1089
0881
0901
7FF1
000E
0000
ENDCHAR

STARTCHAR cns3_2B40
ENCODING 11072
SWIDTH 854 0
DWIDTH 16 0
BBX 16 18 0 -2
BITMAP
0000
0000
3F81
2089
2089
3F89
0009
0009
7FC9
4049
5849
4749
4049
4341
4C41
5041
438E
0000
ENDCHAR

STARTCHAR cns3_2B41
ENCODING 11073
SWIDTH 854 0
DWIDTH 16 0
BBX 16 18 0 -2
BITMAP
0000
0000
0201
0209
0509
0889
1749
6039
1FC9
0089
0109
0209
1FC9
1041
1041
1FC1
104E
0000
ENDCHAR

STARTCHAR cns3_2B42
ENCODING 11074
SWIDTH 854 0
DWIDTH 16 0
BBX 16 18 0 -2
BITMAP
0000
0000
0801
1F09
1109
2209
7FC9
2249
2249
3FC9
2249
2249
3FC9
2041
2041
4041
4386
0000
ENDCHAR

STARTCHAR cns3_2B43
ENCODING 11075
SWIDTH 854 0
DWIDTH 16 0
BBX 16 18 0 -2
BITMAP
0000
0000
2200
12FE
1412
7F92
1212
1252
1252
7FB2
1212
122A
1226
1243
2242
2282
431C
0000
ENDCHAR

STARTCHAR cns3_2B44
ENCODING 11076
SWIDTH 854 0
DWIDTH 16 0
BBX 16 18 0 -2
BITMAP
0000
0000
0000
7FFE
1012
1412
2252
7F52
08B2
0812
7F2A
0826
0843
0842
0F82
7902
001C
0000
ENDCHAR

STARTCHAR cns3_2B45
ENCODING 11077
SWIDTH 854 0
DWIDTH 16 0
BBX 16 18 0 -2
BITMAP
0000
0000
0201
0209
7FE9
0209
1A69
1249
2AA9
4719
0209
0509
0509
0881
0881
1041
6037
0000
ENDCHAR

STARTCHAR cns3_2B46
ENCODING 11078
SWIDTH 854 0
DWIDTH 16 0
BBX 16 18 0 -2
BITMAP
0000
0000
0408
0408
7FC8
0408
3FBF
2489
2489
2489
3F89
0609
0D11
1491
1421
2421
444E
0000
ENDCHAR

STARTCHAR cns3_2B47
ENCODING 11079
SWIDTH 854 0
DWIDTH 16 0
BBX 16 18 0 -2
BITMAP
0000
0000
0400
0410
7F90
0410
047E
3F12
2112
2112
2122
3F22
1542
1442
149D
2401
43FE
0000
ENDCHAR

STARTCHAR cns3_2B48
ENCODING 11080
SWIDTH 854 0
DWIDTH 16 0
BBX 16 18 0 -2
BITMAP
0000
0000
0808
1008
3FC8
4008
7FFF
1089
1489
2289
7FC9
2911
2511
4311
7FE1
4121
064E
0000
ENDCHAR

STARTCHAR cns3_2B49
ENCODING 11081
SWIDTH 854 0
DWIDTH 16 0
BBX 16 18 0 -2
BITMAP
0000
0000
7FFF
4080
4080
7FFE
4488
4488
4C94
4AE2
5181
4080
4140
4630
580C
7FFF
4000
0000
ENDCHAR

STARTCHAR cns3_2B4A
ENCODING 11082
SWIDTH 854 0
DWIDTH 16 0
BBX 16 18 0 -2
BITMAP
0000
0000
1102
0884
0888
1FFC
1084
1084
1FFC
1084
1084
1FFC
0080
7FFF
0080
0080
0080
0000
ENDCHAR

STARTCHAR cns3_2B4B
ENCODING 11083
SWIDTH 854 0
DWIDTH 16 0
BBX 16 18 0 -2
BITMAP
0000
0000
0800
7FBF
40A1
40A1
7FA1
40A1
7FA1
0021
4321
4C21
7021
40AE
40A0
3F20
0020
0000
ENDCHAR

STARTCHAR cns3_2B4C
ENCODING 11084
SWIDTH 854 0
DWIDTH 16 0
BBX 16 18 0 -2
BITMAP
0000
0000
1FFF
1050
1048
1FFE
1040
17FE
1442
1442
17FE
1442
2442
27FE
2442
4442
444C
0000
ENDCHAR

STARTCHAR cns3_2B4D
ENCODING 11085
SWIDTH 854 0
DWIDTH 16 0
BBX 16 18 0 -2
BITMAP
0000
0000
047E
0442
0442
3F42
045C
0440
047E
7FE2
0862
0854
1254
1148
2F54
70E2
0041
0000
ENDCHAR

STARTCHAR cns3_2B4E
ENCODING 11086
SWIDTH 854 0
DWIDTH 16 0
BBX 16 18 0 -2
BITMAP
0000
0000
0080
0080
7FFF
4885
4889
1150
1220
0C18
7007
1FF8
0420
0240
0180
0660
181C
0000
ENDCHAR

STARTCHAR cns3_2B4F
ENCODING 11087
SWIDTH 854 0
DWIDTH 16 0
BBX 16 18 0 -2
BITMAP
0000
0000
007E
7F02
4102
4162
7F1E
4003
4000
7EFE
4042
4044
4028
7E10
4028
40C4
4303
0000
ENDCHAR

STARTCHAR cns3_2B50
ENCODING 11088
SWIDTH 854 0
DWIDTH 16 0
BBX 16 18 0 -2
BITMAP
0000
0000
0400
047E
0A02
1122
20E2
5F22
0422
0414
7F94
0508
1508
1494
2454
4422
18C1
0000
ENDCHAR

STARTCHAR cns3_2B51
ENCODING 11089
SWIDTH 854 0
DWIDTH 16 0
BBX 16 18 0 -2
BITMAP
0000
0000
0020
0020
7BFE
4A02
4A22
4820
4BFF
4844
4884
4888
78C8
4930
0018
0064
0783
0000
ENDCHAR

STARTCHAR cns3_2B52
ENCODING 11090
SWIDTH 854 0
DWIDTH 16 0
BBX 16 18 0 -2
BITMAP
0000
0000
0020
0020
79FE
4822
49FF
4822
4822
49FE
4820
49FE
7820
4BFF
0020
0020
0020
0000
ENDCHAR

STARTCHAR cns3_2B53
ENCODING 11091
SWIDTH 854 0
DWIDTH 16 0
BBX 16 18 0 -2
BITMAP
0000
0000
01FF
0100
7900
497F
4908
4908
4908
497F
4908
4908
7908
497F
4100
01FF
0100
0000
ENDCHAR

STARTCHAR cns3_2B54
ENCODING 11092
SWIDTH 854 0
DWIDTH 16 0
BBX 16 18 0 -2
BITMAP
0000
0000
0080
0080
7BFF
4890
4890
4892
4952
4954
4A90
4A10
7A38
4C28
4044
0082
0301
0000
ENDCHAR

STARTCHAR cns3_2B55
ENCODING 11093
SWIDTH 854 0
DWIDTH 16 0
BBX 16 18 0 -2
BITMAP
0000
0000
0020
0020
7BFF
4840
4840
48FE
4982
4A82
4CFE
4882
7882
48FE
4082
0082
008C
0000
ENDCHAR

STARTCHAR cns3_2B56
ENCODING 11094
SWIDTH 854 0
DWIDTH 16 0
BBX 16 18 0 -2
BITMAP
0000
0000
0000
07FF
7820
4820
4BFF
4A49
4A49
4A49
4A49
4A49
7A49
4A49
0249
0249
0206
0000
ENDCHAR

STARTCHAR cns3_2B57
ENCODING 11095
SWIDTH 854 0
DWIDTH 16 0
BBX 16 18 0 -2
BITMAP
0000
0000
0020
0222
7A22
4924
4924
48A4
4BFF
4850
4850
4850
7850
4890
0091
0111
020E
0000
ENDCHAR

STARTCHAR cns3_2B58
ENCODING 11096
SWIDTH 854 0
DWIDTH 16 0
BBX 16 18 0 -2
BITMAP
0000
0000
00F8
0088
7888
4889
4909
4926
4A20
4820
4BFF
4830
7868
48A4
0122
0221
0020
0000
ENDCHAR

STARTCHAR cns3_2B59
ENCODING 11097
SWIDTH 854 0
DWIDTH 16 0
BBX 16 18 0 -2
BITMAP
0000
0000
0020
0020
7DFE
4502
450E
4572
45A0
4420
4427
4478
7DA0
4420
0021
0021
001E
0000
ENDCHAR

STARTCHAR cns3_2B5A
ENCODING 11098
SWIDTH 854 0
DWIDTH 16 0
BBX 16 18 0 -2
BITMAP
0000
0000
0089
0089
7889
4889
4C89
4ACD
4AAB
48AB
4889
4889
7889
4889
0109
0109
0201
0000
ENDCHAR

STARTCHAR cns3_2B5B
ENCODING 11099
SWIDTH 854 0
DWIDTH 16 0
BBX 16 18 0 -2
BITMAP
0000
0000
0000
0102
7884
4848
4830
48FC
4820
4820
4BFF
4820
7870
4850
0088
0104
0603
0000
ENDCHAR

STARTCHAR cns3_2B5C
ENCODING 11100
SWIDTH 854 0
DWIDTH 16 0
BBX 16 18 0 -2
BITMAP
0000
0001
4BEF
7884
4884
4884
4884
4885
4BEF
4884
4884
7884
4884
4104
0104
0204
0404
0000
ENDCHAR

STARTCHAR cns3_2B5D
ENCODING 11101
SWIDTH 854 0
DWIDTH 16 0
BBX 16 18 0 -2
BITMAP
0000
0000
03FF
7C20
4420
4420
45FE
4502
4502
4502
45FE
7D02
4502
4102
0102
01FE
0102
0000
ENDCHAR

STARTCHAR cns3_2B5E
ENCODING 11102
SWIDTH 854 0
DWIDTH 16 0
BBX 16 18 0 -2
BITMAP
0000
0000
0020
03FF
7828
4844
4882
497D
4A00
4800
4BFF
4840
48FC
7884
4804
4004
0038
0000
ENDCHAR

STARTCHAR cns3_2B5F
ENCODING 11103
SWIDTH 854 0
DWIDTH 16 0
BBX 16 18 0 -2
BITMAP
0000
0020
0020
03FE
0222
7A22
4BFE
4A22
4A22
4BFE
4820
4822
4824
7818
4831
40C9
0706
0000
ENDCHAR

STARTCHAR cns3_2B60
ENCODING 11104
SWIDTH 854 0
DWIDTH 16 0
BBX 16 18 0 -2
BITMAP
0000
0000
0082
0044
7838
4828
48C4
4B22
4BFF
4820
4848
4848
4892
7892
4921
013F
02E1
0000
ENDCHAR

STARTCHAR cns3_2B61
ENCODING 11105
SWIDTH 854 0
DWIDTH 16 0
BBX 16 18 0 -2
BITMAP
0000
0000
0010
0020
7C40
45FF
4501
4501
457D
4545
4545
4545
457D
7D45
4501
0101
010E
0000
ENDCHAR

STARTCHAR cns3_2B62
ENCODING 11106
SWIDTH 854 0
DWIDTH 16 0
BBX 16 18 0 -2
BITMAP
0000
0000
0007
00F8
7C80
4480
4480
44FF
4480
4480
457F
4541
7D41
4641
4241
047F
0041
0000
ENDCHAR

STARTCHAR cns3_2B63
ENCODING 11107
SWIDTH 854 0
DWIDTH 16 0
BBX 16 18 0 -2
BITMAP
0000
0000
0006
01F8
7900
490C
4970
4950
4954
4958
4950
4948
4A48
7A44
4A5C
0462
0881
0000
ENDCHAR

STARTCHAR cns3_2B64
ENCODING 11108
SWIDTH 854 0
DWIDTH 16 0
BBX 16 18 0 -2
BITMAP
0000
0000
7FFF
4001
4889
4889
4491
4491
5FFF
4241
4241
4445
4445
4839
4001
7FFF
4001
0000
ENDCHAR

STARTCHAR cns3_2B65
ENCODING 11109
SWIDTH 854 0
DWIDTH 16 0
BBX 16 18 0 -2
BITMAP
0000
0000
3FFF
2221
2221
2425
24BD
2881
3FFF
2101
21F9
2109
2209
2471
2001
3FFF
2001
0000
ENDCHAR

STARTCHAR cns3_2B66
ENCODING 11110
SWIDTH 854 0
DWIDTH 16 0
BBX 16 18 0 -2
BITMAP
0000
0000
0048
1048
1048
11FE
1048
7E48
1048
1048
1048
13FF
1000
1E48
7084
0102
0601
0000
ENDCHAR

STARTCHAR cns3_2B67
ENCODING 11111
SWIDTH 854 0
DWIDTH 16 0
BBX 16 18 0 -2
BITMAP
0000
0000
0010
107E
1084
1148
1030
7C10
1064
138F
1012
1062
1194
1C08
7030
00C0
0700
0000
ENDCHAR

STARTCHAR cns3_2B68
ENCODING 11112
SWIDTH 854 0
DWIDTH 16 0
BBX 16 18 0 -2
BITMAP
0000
0000
0040
1040
10FC
1144
1228
7C10
1028
1044
1182
10FD
1084
1E84
7084
00FC
0084
0000
ENDCHAR

STARTCHAR cns3_2B69
ENCODING 11113
SWIDTH 854 0
DWIDTH 16 0
BBX 16 18 0 -2
BITMAP
0000
0010
0010
08FF
0881
0881
0881
3EFF
0881
0881
0881
08FF
0E81
1881
6081
00FF
0081
0000
ENDCHAR

STARTCHAR cns3_2B6A
ENCODING 11114
SWIDTH 854 0
DWIDTH 16 0
BBX 16 18 0 -2
BITMAP
0000
0000
0100
0200
0420
09F0
1E08
0808
1212
2F27
70F9
0080
0080
1FFE
0080
0080
7FFF
0000
ENDCHAR

STARTCHAR cns3_2B6B
ENCODING 11115
SWIDTH 854 0
DWIDTH 16 0
BBX 16 18 0 -2
BITMAP
0000
0000
0448
0844
107F
27C0
5044
1028
1031
10D9
1306
1080
0080
1FFE
0080
0080
7FFF
0000
ENDCHAR

STARTCHAR cns3_2B6C
ENCODING 11116
SWIDTH 854 0
DWIDTH 16 0
BBX 16 18 0 -2
BITMAP
0000
0000
0040
3840
06FF
0092
0114
0210
1828
60C4
0703
0080
0080
1FFE
0080
0080
7FFF
0000
ENDCHAR

STARTCHAR cns3_2B6D
ENCODING 11117
SWIDTH 854 0
DWIDTH 16 0
BBX 16 18 0 -2
BITMAP
0000
0000
0FF8
0808
0FF8
0808
0FF8
0908
0898
0870
0990
0E4C
1843
07FC
0040
0040
7FFF
0000
ENDCHAR

STARTCHAR cns3_2B6E
ENCODING 11118
SWIDTH 854 0
DWIDTH 16 0
BBX 16 18 0 -2
BITMAP
0000
0000
0010
0810
0BFF
0A01
0A09
7E09
0808
0BFF
0808
0888
0E48
1848
6008
0008
0030
0000
ENDCHAR

STARTCHAR cns3_2B6F
ENCODING 11119
SWIDTH 854 0
DWIDTH 16 0
BBX 16 18 0 -2
BITMAP
0000
0000
09FF
0901
0911
0911
7F11
09FF
0911
0939
0929
0945
0F45
1983
6101
01FF
0101
0000
ENDCHAR

STARTCHAR cns3_2B70
ENCODING 11120
SWIDTH 854 0
DWIDTH 16 0
BBX 16 18 0 -2
BITMAP
0000
0000
09FC
0824
0828
084F
7E49
0881
092E
0820
0BFF
0830
0E68
18A4
6122
0621
0020
0000
ENDCHAR

STARTCHAR cns3_2B71
ENCODING 11121
SWIDTH 854 0
DWIDTH 16 0
BBX 16 18 0 -2
BITMAP
0000
0000
0808
0810
08FE
0882
7E82
0882
08FE
0880
0880
08FF
0B81
1C81
6081
00FF
0081
0000
ENDCHAR

STARTCHAR cns3_2B72
ENCODING 11122
SWIDTH 854 0
DWIDTH 16 0
BBX 16 18 0 -2
BITMAP
0000
0000
1010
1020
1020
11FF
7D01
1101
1179
1149
1149
1149
1779
1949
6101
0101
0106
0000
ENDCHAR

STARTCHAR cns3_2B73
ENCODING 11123
SWIDTH 854 0
DWIDTH 16 0
BBX 16 18 0 -2
BITMAP
0000
0000
1020
10AC
10A2
1120
7E2F
13F0
1522
1914
1114
1108
1D18
3128
4145
0185
0103
0000
ENDCHAR

STARTCHAR cns3_2B74
ENCODING 11124
SWIDTH 854 0
DWIDTH 16 0
BBX 16 18 0 -2
BITMAP
0000
0001
7FFF
0420
0820
1FA2
30BE
4920
0621
0421
089E
3080
0082
1FFE
0080
0081
7FFF
0000
ENDCHAR

STARTCHAR cns3_2B75
ENCODING 11125
SWIDTH 854 0
DWIDTH 16 0
BBX 16 18 0 -2
BITMAP
0000
0000
0440
0440
0440
177C
1440
1441
1441
7F7E
0080
0080
1FFE
0080
0080
0080
7FFF
0000
ENDCHAR

STARTCHAR cns3_2B76
ENCODING 11126
SWIDTH 854 0
DWIDTH 16 0
BBX 16 18 0 -2
BITMAP
0000
0000
0404
0804
1FBF
30A4
4924
0624
08FF
1004
6084
0084
0080
1FFE
0080
0080
7FFF
0000
ENDCHAR

STARTCHAR cns3_2B77
ENCODING 11127
SWIDTH 854 0
DWIDTH 16 0
BBX 16 18 0 -2
BITMAP
0000
0000
0080
0080
7FFF
0080
0080
0080
1FFC
0000
0808
0808
7F7F
0808
0808
0808
3E3E
0000
ENDCHAR

STARTCHAR cns3_2B78
ENCODING 11128
SWIDTH 854 0
DWIDTH 16 0
BBX 16 18 0 -2
BITMAP
0000
0200
0200
07F8
0A10
1120
21C0
0620
1818
6FF6
0880
1FFC
3080
0FFC
0080
7FFF
0000
0000
ENDCHAR

STARTCHAR cns3_2B79
ENCODING 11129
SWIDTH 854 0
DWIDTH 16 0
BBX 16 18 0 -2
BITMAP
0000
0000
0080
0080
7FFF
0A18
1214
6212
0211
04E0
1A00
07F8
0810
1320
60C0
0730
780F
0000
ENDCHAR

STARTCHAR cns3_2B7A
ENCODING 11130
SWIDTH 854 0
DWIDTH 16 0
BBX 16 18 0 -2
BITMAP
0000
0000
0100
03F8
0610
0920
30C0
0330
7C0F
0884
0488
7FFF
00C0
03B0
0C8C
7083
0080
0000
ENDCHAR

STARTCHAR cns3_2B7B
ENCODING 11131
SWIDTH 854 0
DWIDTH 16 0
BBX 16 18 0 -2
BITMAP
0000
0420
0420
17BC
1420
1421
17A1
7C3E
0100
03FC
0404
0904
30C8
0030
00C0
0300
1C00
0000
ENDCHAR

STARTCHAR cns3_2B7C
ENCODING 11132
SWIDTH 854 0
DWIDTH 16 0
BBX 16 18 0 -2
BITMAP
0000
0000
0100
0200
7FFE
0410
0888
17F4
6083
0510
0320
00C8
0110
0660
1890
0308
0C06
0000
ENDCHAR

STARTCHAR cns3_2B7D
ENCODING 11133
SWIDTH 854 0
DWIDTH 16 0
BBX 16 18 0 -2
BITMAP
0000
0000
0100
0200
7FFE
0410
0908
13F4
6613
0920
00C0
0180
07FC
7C04
0404
07FC
0404
0000
ENDCHAR

STARTCHAR cns3_2B7E
ENCODING 11134
SWIDTH 854 0
DWIDTH 16 0
BBX 16 18 0 -2
BITMAP
0000
0000
0820
0820
0820
7FFF
1220
1240
2292
2314
1690
1488
0888
0C84
129A
20E1
4180
0000
ENDCHAR

STARTCHAR cns3_2C21
ENCODING 11297
SWIDTH 854 0
DWIDTH 16 0
BBX 16 18 0 -2
BITMAP
0000
0000
0810
0810
0BFF
7E20
1224
12C4
2248
2252
1422
1444
0888
0C08
1214
2122
40C1
0000
ENDCHAR

STARTCHAR cns3_2C22
ENCODING 11298
SWIDTH 854 0
DWIDTH 16 0
BBX 16 18 0 -2
BITMAP
0000
0000
0BFF
0842
0842
7E42
127E
1242
2242
247E
1442
1442
0842
0C5F
12E2
2102
4002
0000
ENDCHAR

STARTCHAR cns3_2C23
ENCODING 11299
SWIDTH 854 0
DWIDTH 16 0
BBX 16 18 0 -2
BITMAP
0000
0000
0800
08FF
0890
7E90
12FE
1282
2282
2282
1482
14FE
0890
0C90
1290
20FF
4080
0000
ENDCHAR

STARTCHAR cns3_2C24
ENCODING 11300
SWIDTH 854 0
DWIDTH 16 0
BBX 16 18 0 -2
BITMAP
0000
0000
0820
0922
0922
7EA2
12A4
12A4
23FF
2248
1448
1448
0848
0C88
1289
2109
4206
0000
ENDCHAR

STARTCHAR cns3_2C25
ENCODING 11301
SWIDTH 854 0
DWIDTH 16 0
BBX 16 18 0 -2
BITMAP
0000
0000
0840
0840
087F
1081
7F01
13F9
1289
2289
24F9
3489
5889
08F9
1489
2201
400E
0000
ENDCHAR

STARTCHAR cns3_2C26
ENCODING 11302
SWIDTH 854 0
DWIDTH 16 0
BBX 16 18 0 -2
BITMAP
0000
0000
0440
0444
177E
1440
1441
1741
783E
0100
0200
7FFF
0410
0E20
01E0
0098
1F06
0000
ENDCHAR

STARTCHAR cns3_2C27
ENCODING 11303
SWIDTH 854 0
DWIDTH 16 0
BBX 16 18 0 -2
BITMAP
0000
0000
0808
080C
080A
7EFF
1288
1288
22E8
22AA
14AA
14A4
08A4
1568
2114
4265
0003
0000
ENDCHAR

STARTCHAR cns3_2C28
ENCODING 11304
SWIDTH 854 0
DWIDTH 16 0
BBX 16 18 0 -2
BITMAP
0000
0000
0080
1084
0898
7FFF
01C0
06A0
1898
6106
0200
7FFF
0410
0E20
01E0
0098
3F06
0000
ENDCHAR

STARTCHAR cns3_2C29
ENCODING 11305
SWIDTH 854 0
DWIDTH 16 0
BBX 16 18 0 -2
BITMAP
0000
0000
0810
0810
09FE
7D02
150E
1532
24E0
2420
483F
4BE0
2820
1420
1221
2021
401E
0000
ENDCHAR

STARTCHAR cns3_2C2A
ENCODING 11306
SWIDTH 854 0
DWIDTH 16 0
BBX 16 18 0 -2
BITMAP
0000
0000
0848
0848
0848
7FFE
1248
1248
2248
2448
1448
17FF
0800
0848
1484
2302
4201
0000
ENDCHAR

STARTCHAR cns3_2C2B
ENCODING 11307
SWIDTH 854 0
DWIDTH 16 0
BBX 16 18 0 -2
BITMAP
0000
0000
0800
09EF
0884
7E84
1284
1284
23EF
2284
1484
1484
0884
1484
2504
4104
0204
0000
ENDCHAR

STARTCHAR cns3_2C2C
ENCODING 11308
SWIDTH 854 0
DWIDTH 16 0
BBX 16 18 0 -2
BITMAP
0000
0000
0010
1024
1242
174E
3AF1
5200
12FE
2282
24A2
3492
5882
089A
14A2
2282
410C
0000
ENDCHAR

STARTCHAR cns3_2C2D
ENCODING 11309
SWIDTH 854 0
DWIDTH 16 0
BBX 16 18 0 -2
BITMAP
0000
0000
1040
1043
10FC
1088
7D08
1588
1688
24FF
2488
1488
1888
0C88
1288
20FF
4080
0000
ENDCHAR

STARTCHAR cns3_2C2E
ENCODING 11310
SWIDTH 854 0
DWIDTH 16 0
BBX 16 18 0 -2
BITMAP
0000
0000
0800
7F3E
1208
2208
6408
1808
0C08
337F
7F88
1208
2208
1408
0C08
1208
6108
0000
ENDCHAR

STARTCHAR cns3_2C2F
ENCODING 11311
SWIDTH 854 0
DWIDTH 16 0
BBX 16 18 0 -2
BITMAP
0000
0000
0080
0080
7FFF
0A18
1214
2212
0410
0000
0FE0
0040
0080
7FFF
0080
0080
0380
0000
ENDCHAR

STARTCHAR cns3_2C30
ENCODING 11312
SWIDTH 854 0
DWIDTH 16 0
BBX 16 18 0 -2
BITMAP
0000
0000
0080
0080
7FFF
4081
4081
7FFF
0410
180C
6403
0210
0120
00C0
00A0
0718
7807
0000
ENDCHAR

STARTCHAR cns3_2C31
ENCODING 11313
SWIDTH 854 0
DWIDTH 16 0
BBX 16 18 0 -2
BITMAP
0000
0000
0080
0080
7FFF
4501
4CD5
1414
23E2
0000
1FF0
0210
0220
0140
00C0
0738
3807
0000
ENDCHAR

STARTCHAR cns3_2C32
ENCODING 11314
SWIDTH 854 0
DWIDTH 16 0
BBX 16 18 0 -2
BITMAP
0000
0000
0080
0080
7FFF
4001
4FF9
4809
0808
0FF8
0000
0000
1FFC
1004
1004
1004
1FFC
0000
ENDCHAR

STARTCHAR cns3_2C33
ENCODING 11315
SWIDTH 854 0
DWIDTH 16 0
BBX 16 18 0 -2
BITMAP
0000
0000
0080
0080
7FFF
4081
43F9
4C11
3320
00D0
073E
3842
0384
1C58
00E0
0700
3800
0000
ENDCHAR

STARTCHAR cns3_2C34
ENCODING 11316
SWIDTH 854 0
DWIDTH 16 0
BBX 16 18 0 -2
BITMAP
0000
0000
0040
0040
0448
0448
0844
1042
2041
0380
0408
0408
162A
2549
4489
0408
3870
0000
ENDCHAR

STARTCHAR cns3_2C35
ENCODING 11317
SWIDTH 854 0
DWIDTH 16 0
BBX 16 18 0 -2
BITMAP
0000
0000
0820
087C
0884
7F08
09FE
0900
097C
0944
0944
0D5C
0D40
1545
163D
2401
43FE
0000
ENDCHAR

STARTCHAR cns3_2C36
ENCODING 11318
SWIDTH 854 0
DWIDTH 16 0
BBX 16 18 0 -2
BITMAP
0000
0000
1FFF
1001
1001
1FFF
1020
1FFF
1020
13FE
1222
1222
1272
10A8
2124
2623
4020
0000
ENDCHAR

STARTCHAR cns3_2C37
ENCODING 11319
SWIDTH 854 0
DWIDTH 16 0
BBX 16 18 0 -2
BITMAP
0000
0000
1FFF
1001
1001
1FFF
1040
1020
1010
17F8
1416
17F0
1410
17F0
2000
3FFE
4000
0000
ENDCHAR

STARTCHAR cns3_2C38
ENCODING 11320
SWIDTH 854 0
DWIDTH 16 0
BBX 16 18 0 -2
BITMAP
0000
0000
1FFF
1001
1001
1FFF
120C
1402
1BFD
1204
13FC
1204
13FC
1204
2404
2404
4818
0000
ENDCHAR

STARTCHAR cns3_2C39
ENCODING 11321
SWIDTH 854 0
DWIDTH 16 0
BBX 16 18 0 -2
BITMAP
0000
0000
1FFF
1001
1001
1FFF
1040
10FC
1318
1EE0
1040
11FF
1E21
10C6
2738
2060
4F80
0000
ENDCHAR

STARTCHAR cns3_2C3A
ENCODING 11322
SWIDTH 854 0
DWIDTH 16 0
BBX 16 18 0 -2
BITMAP
0000
0000
1082
1044
5444
55FF
5410
5410
55FF
5410
5410
57FF
5410
7C10
4410
0010
0010
0000
ENDCHAR

STARTCHAR cns3_2C3B
ENCODING 11323
SWIDTH 854 0
DWIDTH 16 0
BBX 16 18 0 -2
BITMAP
0000
0000
0080
2082
2082
3FFE
0180
0260
0418
0806
17F9
6080
0080
0FFC
0080
0080
7FFF
0000
ENDCHAR

STARTCHAR cns3_2C3C
ENCODING 11324
SWIDTH 854 0
DWIDTH 16 0
BBX 16 18 0 -2
BITMAP
0000
0000
0080
2082
2082
3FFE
0180
0240
0430
088C
1083
6880
08FC
0880
0880
0880
7FFF
0000
ENDCHAR

STARTCHAR cns3_2C3D
ENCODING 11325
SWIDTH 854 0
DWIDTH 16 0
BBX 16 18 0 -2
BITMAP
0000
0000
0080
0080
7FFF
0A14
1214
6212
0411
04E0
0800
0080
1082
1082
1082
1FFE
1002
0000
ENDCHAR

STARTCHAR cns3_2C3E
ENCODING 11326
SWIDTH 854 0
DWIDTH 16 0
BBX 16 18 0 -2
BITMAP
0000
0000
1020
1020
57FF
5522
5522
54A4
54A4
5468
57FF
5420
5420
7C50
4450
0088
0306
0000
ENDCHAR

STARTCHAR cns3_2C3F
ENCODING 11327
SWIDTH 854 0
DWIDTH 16 0
BBX 16 18 0 -2
BITMAP
0000
0020
1020
11FE
5422
5422
57FF
5422
5422
55FE
5420
55FE
5420
7FFF
4420
0020
0020
0000
ENDCHAR

STARTCHAR cns3_2C40
ENCODING 11328
SWIDTH 854 0
DWIDTH 16 0
BBX 16 18 0 -2
BITMAP
0000
0000
1000
13EF
1084
5484
5484
5484
57EF
5484
5484
5484
5484
7C84
4504
0104
0204
0000
ENDCHAR

STARTCHAR cns3_2C41
ENCODING 11329
SWIDTH 854 0
DWIDTH 16 0
BBX 16 18 0 -2
BITMAP
0000
0000
1001
13F9
1045
5445
54F5
5495
5595
5555
5625
5425
5445
5445
7C81
0081
0106
0000
ENDCHAR

STARTCHAR cns3_2C42
ENCODING 11330
SWIDTH 854 0
DWIDTH 16 0
BBX 16 18 0 -2
BITMAP
0000
0080
2082
2082
3FFE
0000
3FFE
2002
2FFA
2002
27F2
2412
2412
27F2
2412
2002
200C
0000
ENDCHAR

STARTCHAR cns3_2C43
ENCODING 11331
SWIDTH 854 0
DWIDTH 16 0
BBX 16 18 0 -2
BITMAP
0000
0000
1040
10FC
5488
5508
57FE
5422
5422
57FF
5422
5422
57FE
7C22
4420
0020
00C0
0000
ENDCHAR

STARTCHAR cns3_2C44
ENCODING 11332
SWIDTH 854 0
DWIDTH 16 0
BBX 16 18 0 -2
BITMAP
0000
0000
0888
0490
02A0
0FF0
0100
0200
7FFF
0410
0FF8
1014
2412
47E1
0404
0404
03F8
0000
ENDCHAR

STARTCHAR cns3_2C45
ENCODING 11333
SWIDTH 854 0
DWIDTH 16 0
BBX 16 18 0 -2
BITMAP
0000
0000
7E7E
4242
4242
4242
7E7E
4141
4141
3E3E
0000
7FFF
0220
0410
0808
1004
6003
0000
ENDCHAR

STARTCHAR cns3_2C46
ENCODING 11334
SWIDTH 854 0
DWIDTH 16 0
BBX 16 18 0 -2
BITMAP
0000
0000
0800
08FF
0808
7F10
497F
4941
4941
4941
4941
497F
4941
4E41
0841
087F
0841
0000
ENDCHAR

STARTCHAR cns3_2C47
ENCODING 11335
SWIDTH 854 0
DWIDTH 16 0
BBX 16 18 0 -2
BITMAP
0000
0000
1040
1040
10FF
7C81
5501
5579
5649
5449
5479
5449
5449
5C79
1049
1001
100E
0000
ENDCHAR

STARTCHAR cns3_2C48
ENCODING 11336
SWIDTH 854 0
DWIDTH 16 0
BBX 16 18 0 -2
BITMAP
0000
0000
0080
3FFF
2040
2040
2FFF
2060
20A2
2094
2114
2208
2608
3A04
2264
4382
4601
0000
ENDCHAR

STARTCHAR cns3_2C49
ENCODING 11337
SWIDTH 854 0
DWIDTH 16 0
BBX 16 18 0 -2
BITMAP
0000
0100
0080
3FFF
2040
2040
2FFC
2044
3FFF
2044
27FC
2040
2FFE
2040
3FFF
4040
4040
0000
ENDCHAR

STARTCHAR cns3_2C4A
ENCODING 11338
SWIDTH 854 0
DWIDTH 16 0
BBX 16 18 0 -2
BITMAP
0000
0000
0080
3FFF
2000
27FC
2404
27FC
2404
27FC
2480
2444
2448
2430
2410
47CC
5C03
0000
ENDCHAR

STARTCHAR cns3_2C4B
ENCODING 11339
SWIDTH 854 0
DWIDTH 16 0
BBX 16 18 0 -2
BITMAP
0000
0000
0000
7FFF
0448
0848
11FE
214A
7D4A
254A
25CE
1502
0902
09FE
1502
2300
40FF
0000
ENDCHAR

STARTCHAR cns3_2C4C
ENCODING 11340
SWIDTH 854 0
DWIDTH 16 0
BBX 16 18 0 -2
BITMAP
0000
0000
0000
7DFE
0502
097A
114A
214A
7D4A
054A
257A
154A
0902
09FE
1502
2300
40FF
0000
ENDCHAR

STARTCHAR cns3_2C4D
ENCODING 11341
SWIDTH 854 0
DWIDTH 16 0
BBX 16 18 0 -2
BITMAP
0000
0000
0080
0080
7FFF
0A14
1212
6461
0000
1FF8
0008
1FF8
1000
1FFE
2002
0002
003C
0000
ENDCHAR

STARTCHAR cns3_2C4E
ENCODING 11342
SWIDTH 854 0
DWIDTH 16 0
BBX 16 18 0 -2
BITMAP
0000
0000
7E7E
0202
3E3E
2020
7F7F
4141
0101
0E0E
0000
7FFF
0220
0220
0410
0808
3006
0000
ENDCHAR

STARTCHAR cns3_2C4F
ENCODING 11343
SWIDTH 854 0
DWIDTH 16 0
BBX 16 18 0 -2
BITMAP
0000
0000
7DFF
0410
0410
0420
3CFE
2082
4082
4082
7CFE
0482
0482
0482
0482
04FE
3882
0000
ENDCHAR

STARTCHAR cns3_2C50
ENCODING 11344
SWIDTH 854 0
DWIDTH 16 0
BBX 16 18 0 -2
BITMAP
0000
0000
0040
0040
3FFF
0208
0110
7FFF
1000
1078
1780
100E
1070
2780
200E
2070
4F80
0000
ENDCHAR

STARTCHAR cns3_2C51
ENCODING 11345
SWIDTH 854 0
DWIDTH 16 0
BBX 16 18 0 -2
BITMAP
0000
0000
3DE0
1083
108C
10B0
1080
1080
3DE3
108C
10B0
1080
1083
108C
20B0
2080
4080
0000
ENDCHAR

STARTCHAR cns3_2C52
ENCODING 11346
SWIDTH 854 0
DWIDTH 16 0
BBX 16 18 0 -2
BITMAP
0000
0000
0401
0FF9
1125
2125
4525
0525
0925
17FD
2925
4925
0925
0925
0921
0A21
0A26
0000
ENDCHAR

STARTCHAR cns3_2C53
ENCODING 11347
SWIDTH 854 0
DWIDTH 16 0
BBX 16 18 0 -2
BITMAP
0000
0000
0410
0810
1010
21FF
4410
0410
08FE
1000
2800
48FE
0882
0882
0882
08FE
0882
0000
ENDCHAR

STARTCHAR cns3_2C54
ENCODING 11348
SWIDTH 854 0
DWIDTH 16 0
BBX 16 18 0 -2
BITMAP
0000
0000
0820
0824
0822
0DFF
2A20
2A20
2820
4BE0
4890
0890
0890
08C8
0B89
0805
0807
0000
ENDCHAR

STARTCHAR cns3_2C55
ENCODING 11349
SWIDTH 854 0
DWIDTH 16 0
BBX 16 18 0 -2
BITMAP
0000
0000
0848
0848
0848
0C48
2BFF
2A48
2848
4848
4848
0BFF
0848
0848
0884
0902
0A01
0000
ENDCHAR

STARTCHAR cns3_2C56
ENCODING 11350
SWIDTH 854 0
DWIDTH 16 0
BBX 16 18 0 -2
BITMAP
0000
0000
0800
0BFF
0840
0C48
2A84
2A9E
29F1
4810
4810
0810
09FE
0810
0810
0810
0BFF
0000
ENDCHAR

STARTCHAR cns3_2C57
ENCODING 11351
SWIDTH 854 0
DWIDTH 16 0
BBX 16 18 0 -2
BITMAP
0000
0000
0820
087C
0884
0D08
2BFF
2B00
2900
497E
4942
0942
0942
095C
0941
0A41
0A3E
0000
ENDCHAR

STARTCHAR cns3_2C58
ENCODING 11352
SWIDTH 854 0
DWIDTH 16 0
BBX 16 18 0 -2
BITMAP
0000
0000
0000
1FFC
1004
1FE4
1024
1024
1FE4
1004
1FFC
0480
1444
142A
2409
4409
03F0
0000
ENDCHAR

STARTCHAR cns3_2C59
ENCODING 11353
SWIDTH 854 0
DWIDTH 16 0
BBX 16 18 0 -2
BITMAP
0000
0000
0100
0100
01FE
0100
1FFC
1004
1004
1004
1FFC
1004
0440
242A
240A
4409
43F0
0000
ENDCHAR

STARTCHAR cns3_2C5A
ENCODING 11354
SWIDTH 854 0
DWIDTH 16 0
BBX 16 18 0 -2
BITMAP
0000
0000
0080
0480
0FFC
1080
2080
7FFF
00C0
0330
0C0C
7083
0440
142A
2409
4409
43F0
0000
ENDCHAR

STARTCHAR cns3_2C5B
ENCODING 11355
SWIDTH 854 0
DWIDTH 16 0
BBX 16 18 0 -2
BITMAP
0000
0000
0400
07FE
0892
1092
2292
0122
02F2
0442
088E
0000
0440
244A
240A
440A
03F0
0000
ENDCHAR

STARTCHAR cns3_2C5C
ENCODING 11356
SWIDTH 854 0
DWIDTH 16 0
BBX 16 18 0 -2
BITMAP
0000
0000
0810
0810
0911
0DFF
2B45
2B45
2B29
4929
4911
0911
0929
0947
0981
09FF
0901
0000
ENDCHAR

STARTCHAR cns3_2C5D
ENCODING 11357
SWIDTH 854 0
DWIDTH 16 0
BBX 16 18 0 -2
BITMAP
0000
0000
0800
0BFF
0800
0C00
2AFE
2A82
2A82
48FE
4882
0882
08FE
0882
0800
0BFF
0800
0000
ENDCHAR

STARTCHAR cns3_2C5E
ENCODING 11358
SWIDTH 854 0
DWIDTH 16 0
BBX 16 18 0 -2
BITMAP
0000
0000
0820
0820
0820
0DFC
2A20
2A20
2A20
49FE
4820
0820
09FC
0820
0820
0820
0BFF
0000
ENDCHAR

STARTCHAR cns3_2C5F
ENCODING 11359
SWIDTH 854 0
DWIDTH 16 0
BBX 16 18 0 -2
BITMAP
0000
0000
0810
0810
0BFF
0C20
2A48
2A48
2888
4908
4ABE
0888
0888
0888
0888
08FF
0880
0000
ENDCHAR

STARTCHAR cns3_2C60
ENCODING 11360
SWIDTH 854 0
DWIDTH 16 0
BBX 16 18 0 -2
BITMAP
0000
0000
0810
0810
09FE
0C12
2A22
2A42
289C
4800
4904
0FDF
0945
0A45
0A49
0C51
0986
0000
ENDCHAR

STARTCHAR cns3_2C61
ENCODING 11361
SWIDTH 854 0
DWIDTH 16 0
BBX 16 18 0 -2
BITMAP
0000
0000
0802
0984
0848
0C30
2A68
2AA4
29FF
4820
4828
0848
0852
0892
08A1
093F
09E1
0000
ENDCHAR

STARTCHAR cns3_2C62
ENCODING 11362
SWIDTH 854 0
DWIDTH 16 0
BBX 16 18 0 -2
BITMAP
0000
0000
0820
0843
08BC
0D88
2A88
2A88
2A88
48BE
4888
0888
0888
0888
0888
0888
08FF
0000
ENDCHAR

STARTCHAR cns3_2C63
ENCODING 11363
SWIDTH 854 0
DWIDTH 16 0
BBX 16 18 0 -2
BITMAP
0000
0000
0820
0828
0824
0822
0FA0
082F
08F0
0822
7F12
4114
4108
4108
4119
7F25
4143
0000
ENDCHAR

STARTCHAR cns3_2C64
ENCODING 11364
SWIDTH 854 0
DWIDTH 16 0
BBX 16 18 0 -2
BITMAP
0000
0000
0007
0FF8
0800
0FFE
0802
0FFE
0800
0BFE
0A22
0A22
0A22
0BFE
1222
1222
23FE
0000
ENDCHAR

STARTCHAR cns3_2C65
ENCODING 11365
SWIDTH 854 0
DWIDTH 16 0
BBX 16 18 0 -2
BITMAP
0000
0000
1020
1020
1024
7DFC
1028
1030
13FF
1440
1880
7140
1640
107E
1040
1040
703E
0000
ENDCHAR

STARTCHAR cns3_2C66
ENCODING 11366
SWIDTH 854 0
DWIDTH 16 0
BBX 16 18 0 -2
BITMAP
0000
0000
1010
1090
1090
7DFE
1110
1210
1210
17FF
1830
7058
1054
1092
1311
1010
7010
0000
ENDCHAR

ENDFONT
